<svg width="40" height="40" viewBox="0 0 40 40" fill="none" xmlns="http://www.w3.org/2000/svg">
<path d="M4.04381 0.0532628C4.15866 0.052736 4.27351 0.0522092 4.39184 0.0516664C4.58188 0.0515889 4.58188 0.0515889 4.77577 0.0515098C4.97706 0.0508274 4.97706 0.0508274 5.18243 0.0501312C5.55572 0.0488885 5.92901 0.0483025 6.30231 0.0478285C6.70464 0.0472103 7.10698 0.0460049 7.50931 0.0448915C8.48152 0.0423448 9.45373 0.0408267 10.4259 0.0394868C10.7006 0.0391015 10.9753 0.038689 11.2499 0.0382667C12.9558 0.0356464 14.6617 0.0333571 16.3676 0.0320661C16.7628 0.0317619 17.158 0.0314544 17.5532 0.0311415C17.6514 0.0310641 17.7497 0.0309866 17.8509 0.0309068C19.4411 0.029594 21.0312 0.0261461 22.6214 0.0218187C24.2544 0.0174113 25.8874 0.0149678 27.5204 0.0144257C28.4371 0.0140717 29.3538 0.0128558 30.2705 0.00943193C31.0515 0.00651982 31.8324 0.00538543 32.6134 0.00654539C33.0116 0.00708256 33.4097 0.00679264 33.8079 0.00421313C34.2405 0.00143415 34.673 0.00271925 35.1056 0.00436719C35.2302 0.00292601 35.3548 0.00148484 35.4832 0C36.7924 0.0122508 37.8362 0.500202 38.7768 1.39356C39.452 2.10359 39.9443 3.05436 39.9467 4.04381C39.9475 4.21608 39.9475 4.21608 39.9483 4.39184C39.9484 4.51854 39.9484 4.64523 39.9485 4.77577C39.9489 4.90996 39.9494 5.04416 39.9499 5.18243C39.9511 5.55572 39.9517 5.92901 39.9522 6.30231C39.9528 6.70464 39.954 7.10698 39.9551 7.50931C39.9577 8.48152 39.9592 9.45373 39.9605 10.4259C39.9609 10.7006 39.9613 10.9753 39.9617 11.2499C39.9644 12.9558 39.9666 14.6617 39.9679 16.3676C39.9682 16.7628 39.9685 17.158 39.9689 17.5532C39.9689 17.6514 39.969 17.7497 39.9691 17.8509C39.9704 19.4411 39.9739 21.0312 39.9782 22.6214C39.9826 24.2544 39.985 25.8874 39.9856 27.5204C39.9859 28.4371 39.9871 29.3538 39.9906 30.2705C39.9935 31.0515 39.9946 31.8324 39.9935 32.6134C39.9929 33.0116 39.9932 33.4097 39.9958 33.8079C39.9986 34.2405 39.9973 34.673 39.9956 35.1056C39.9971 35.2302 39.9985 35.3548 40 35.4832C39.9877 36.7924 39.4998 37.8362 38.6064 38.7768C37.8964 39.452 36.9456 39.9443 35.9562 39.9467C35.7839 39.9475 35.7839 39.9475 35.6082 39.9483C35.4181 39.9484 35.4181 39.9484 35.2242 39.9485C35.09 39.9489 34.9558 39.9494 34.8176 39.9499C34.4443 39.9511 34.071 39.9517 33.6977 39.9522C33.2954 39.9528 32.893 39.954 32.4907 39.9551C31.5185 39.9577 30.5463 39.9592 29.574 39.9605C29.2994 39.9609 29.0247 39.9613 28.7501 39.9617C27.0442 39.9644 25.3383 39.9666 23.6324 39.9679C23.2372 39.9682 22.842 39.9685 22.4468 39.9689C22.3486 39.9689 22.2503 39.969 22.1491 39.9691C20.5589 39.9704 18.9688 39.9739 17.3786 39.9782C15.7456 39.9826 14.1126 39.985 12.4796 39.9856C11.5629 39.9859 10.6462 39.9871 9.7295 39.9906C8.94853 39.9935 8.16758 39.9946 7.38661 39.9935C6.98843 39.9929 6.59029 39.9932 6.19211 39.9958C5.75951 39.9986 5.32702 39.9973 4.89441 39.9956C4.7698 39.9971 4.64519 39.9985 4.5168 40C3.20763 39.9877 2.16383 39.4998 1.22324 38.6064C0.547994 37.8964 0.055669 36.9456 0.0532628 35.9562C0.052736 35.8413 0.0522092 35.7265 0.0516664 35.6082C0.0516147 35.4815 0.0515628 35.3548 0.0515096 35.2242C0.0510546 35.09 0.0505998 34.9558 0.050131 34.8176C0.0488883 34.4443 0.0483022 34.071 0.0478281 33.6977C0.04721 33.2954 0.0460047 32.893 0.0448912 32.4907C0.0423446 31.5185 0.0408266 30.5463 0.0394867 29.574C0.0391013 29.2994 0.0386888 29.0247 0.0382666 28.7501C0.0356462 27.0442 0.0333571 25.3383 0.032066 23.6324C0.0317619 23.2372 0.0314542 22.842 0.0311413 22.4468C0.0310639 22.3486 0.0309867 22.2503 0.0309069 22.1491C0.029594 20.5589 0.0261459 18.9688 0.0218185 17.3786C0.017411 15.7456 0.0149676 14.1126 0.0144255 12.4796C0.0140715 11.5629 0.0128555 10.6462 0.00943169 9.7295C0.00651958 8.94853 0.00538512 8.16758 0.00654508 7.38661C0.00708224 6.98843 0.00679241 6.59029 0.0042129 6.19211C0.00143392 5.75951 0.00271901 5.32702 0.00436695 4.89441C0.00292578 4.7698 0.00148484 4.64519 0 4.5168C0.0122508 3.20763 0.500202 2.16383 1.39356 1.22324C2.10359 0.547994 3.05436 0.055669 4.04381 0.0532628ZM7.64599 10.449C7.64599 16.6499 7.64599 22.8508 7.64599 29.2396C13.2754 29.7316 16.5222 30.0182 18.3909 28.0639C19.2214 27.0594 19.6182 25.1818 19.5895 23.8055C19.5297 22.4459 19.2227 21.345 18.1962 20.3958C17.6145 19.8788 17.6145 19.8788 16.8855 19.6886C17.1049 19.4577 17.3325 19.2744 17.5928 19.0916C18.5887 18.3478 19.0525 17.4516 19.2404 16.2294C19.3897 14.9653 19.1454 13.5609 18.3876 12.5131C17.4585 11.394 16.2381 10.7845 14.8092 10.5528C12.4273 10.3827 10.034 10.449 7.64599 10.449ZM23.1145 10.449C23.1145 11.1684 23.1145 11.8879 23.1145 12.6291C25.7867 12.6291 28.4589 12.6291 31.212 12.6291C31.212 11.9097 31.212 11.1902 31.212 10.449C28.5398 10.449 25.8676 10.449 23.1145 10.449ZM24.0131 16.7716C22.7423 18.3811 22.4528 20.2568 22.4588 22.2489C22.4591 22.4776 22.4567 22.7061 22.4541 22.9348C22.4454 24.861 22.859 26.6297 24.213 28.0639C25.3143 29.1009 26.8483 29.5091 28.3247 29.4991C28.48 29.4982 28.48 29.4982 28.6385 29.4973C30.0032 29.4647 31.2889 29.0952 32.354 28.2014C32.5699 27.9657 32.7753 27.7227 32.9769 27.4747C32.7763 27.1867 32.5749 26.8992 32.3735 26.6117C32.3167 26.5302 32.2599 26.4486 32.2013 26.3646C32.1461 26.2859 32.0909 26.2073 32.034 26.1263C31.9835 26.054 31.9329 25.9817 31.8808 25.9072C31.7391 25.7203 31.5897 25.5596 31.4197 25.3984C31.373 25.446 31.3263 25.4937 31.2781 25.5428C30.4447 26.3378 29.6247 26.5738 28.4934 26.5923C28.4157 26.5942 28.338 26.5961 28.258 26.5981C27.5427 26.59 27.0284 26.3354 26.4625 25.911C25.9089 25.1882 25.8092 24.4236 25.7098 23.5297C28.2107 23.5297 30.7117 23.5297 33.2883 23.5297C33.3177 19.6577 33.4279 18.8477 32.1983 17.1451C30.8487 15.2764 29.0379 15.1695 27.6105 15.1957C26.254 15.2571 24.9468 15.7696 24.0131 16.7716Z" fill="black"/>
<path d="M11.2795 21.038C12.0536 21.0284 12.0536 21.0284 12.8433 21.0186C13.0047 21.0157 13.1661 21.0129 13.3323 21.01C13.4612 21.0092 13.5901 21.0084 13.7228 21.0076C13.8539 21.006 13.9849 21.0044 14.1199 21.0027C14.6099 21.0485 15.0211 21.1784 15.4054 21.5016C16.0362 22.3216 15.9094 23.3677 15.8474 24.3601C15.7493 24.9689 15.5788 25.4854 15.1207 25.9174C14.6407 26.2062 14.29 26.2661 13.733 26.2592C13.6039 26.2584 13.4747 26.2577 13.3417 26.2569C13.0982 26.2526 13.0982 26.2526 12.8497 26.2483C12.3316 26.2418 11.8134 26.2354 11.2795 26.2288C11.2795 24.5159 11.2795 22.8029 11.2795 21.038Z" fill="black"/>
<path d="M11.2795 13.5634C11.7463 13.557 12.2131 13.5506 12.694 13.544C12.8401 13.5411 12.9862 13.5383 13.1367 13.5354C13.2532 13.5346 13.3697 13.5338 13.4897 13.533C13.6674 13.5306 13.6674 13.5306 13.8488 13.5281C14.3519 13.5808 14.692 13.7849 15.0883 14.089C15.6245 14.7701 15.7342 15.6243 15.6398 16.4703C15.5483 16.9923 15.4423 17.4565 15.0364 17.8199C14.4978 18.1578 14.0409 18.2614 13.4086 18.2554C13.2963 18.2549 13.184 18.2544 13.0684 18.2538C12.9277 18.2519 12.787 18.25 12.6421 18.2481C12.1925 18.2438 11.7428 18.2395 11.2795 18.2351C11.2795 16.6935 11.2795 15.1518 11.2795 13.5634Z" fill="black"/>
<path d="M28.4263 18.1763C28.9826 18.4934 29.1854 18.7084 29.2893 19.0198C29.4305 19.4434 29.3931 20.2656 29.3412 21.0442C28.0736 21.0442 26.806 21.0442 25.5 21.0442C25.5 20.0401 25.6557 19.1236 26.1553 18.5527C26.7977 17.9817 27.5973 17.8475 28.4263 18.1763Z" fill="black"/>
</svg>
