<svg width="40" height="40" viewBox="0 0 40 40" fill="none" xmlns="http://www.w3.org/2000/svg">
<path d="M20 40C31.0457 40 40 31.0457 40 20C40 8.9543 31.0457 0 20 0C8.9543 0 0 8.9543 0 20C0 31.0457 8.9543 40 20 40Z" fill="#010814"/>
<path d="M28.7054 11.6773C28.8321 11.7972 28.9581 11.9178 29.0817 12.0408C28.9125 12.4142 28.6833 12.7371 28.4439 13.0676C28.4003 13.1283 28.3567 13.1889 28.3118 13.2514C27.9125 13.8046 27.5088 14.3547 27.1047 14.9044C27.0136 15.0282 27.0136 15.0282 26.9208 15.1545C26.628 15.5515 26.3326 15.9444 26.0205 16.3266C25.5957 16.1954 25.2193 16.0326 24.8279 15.8227C23.3314 15.0615 21.6419 14.8831 20.0144 15.3018C18.6688 15.7486 17.8163 16.5287 17.1429 17.7551C16.5305 19.0581 16.5457 20.7265 17.0277 22.0652C17.0657 22.1581 17.1037 22.2511 17.1429 22.347C17.1889 22.4628 17.1889 22.4628 17.2358 22.5809C17.7016 23.6235 18.5383 24.2572 19.5281 24.7704C20.3865 25.0664 21.2393 25.1541 22.1429 25.1021C22.2474 25.0975 22.3518 25.0929 22.4594 25.0881C23.8146 24.9659 25.1521 24.3423 26.2447 23.5443C26.4286 23.4694 26.4286 23.4694 26.6392 23.5328C26.8671 23.6951 26.9663 23.8366 27.105 24.0789C27.1533 24.1615 27.2015 24.2441 27.2512 24.3292C27.3017 24.418 27.3523 24.5068 27.4044 24.5982C27.5124 24.7835 27.6207 24.9686 27.7293 25.1535C27.8115 25.2938 27.8115 25.2938 27.8954 25.4369C28.1925 25.9337 28.5102 26.4167 28.8288 26.8998C28.8725 26.9663 28.9163 27.0329 28.9613 27.1014C29.0186 27.1877 29.0186 27.1877 29.077 27.2758C29.1932 27.4643 29.2915 27.6578 29.3878 27.8572C26.2695 30.2019 22.5634 31.1209 18.6652 30.6637C16.5917 30.3563 14.5689 29.503 12.9592 28.1633C12.8877 28.1083 12.8161 28.0533 12.7424 27.9967C10.7744 26.4175 9.78329 23.9366 9.51302 21.4884C9.26457 18.6587 9.77036 15.9638 11.5689 13.7054C13.7517 11.1448 16.7634 9.7455 20.1021 9.41966C22.9981 9.23383 26.4478 9.67763 28.7054 11.6773Z" fill="#FEFEFE"/>
</svg>