<svg fill="none" xmlns="http://www.w3.org/2000/svg">
<path d="M10.9015 1.24621C11.0011 1.24632 11.1006 1.24624 11.2001 1.24617C11.3861 1.24604 11.572 1.24604 11.758 1.24612C11.9461 1.2462 12.1343 1.24622 12.3224 1.24616C12.3344 1.24615 12.3463 1.24615 12.3586 1.24615C12.4072 1.24613 12.4558 1.24611 12.5044 1.2461C12.956 1.24594 13.4075 1.24593 13.8591 1.24601C13.8726 1.24602 13.8861 1.24602 13.8996 1.24602C13.9063 1.24602 13.913 1.24602 13.9198 1.24602C14.008 1.24604 14.0962 1.24606 14.1844 1.24607C14.1945 1.24607 14.1945 1.24607 14.2048 1.24607C14.5178 1.24613 14.8309 1.24611 15.1439 1.24609C15.1781 1.24608 15.2123 1.24608 15.2465 1.24608C15.3496 1.24607 15.4527 1.24606 15.5558 1.24605C15.8701 1.24603 16.1844 1.24601 16.4988 1.246C16.5058 1.246 16.5128 1.246 16.52 1.246C16.9728 1.24599 17.4257 1.24602 17.8785 1.24608C17.8893 1.24608 17.8893 1.24608 17.9004 1.24609C18.1423 1.24612 18.3843 1.24616 18.6262 1.24619C19.3577 1.24631 20.0893 1.24637 21.3957 1.24619C21.6376 1.24615 21.8795 1.24612 22.1214 1.24608C22.1286 1.24608 22.1358 1.24608 22.1432 1.24608C22.5959 1.24601 23.0485 1.24599 23.5011 1.246C23.5116 1.246 23.5116 1.246 23.5223 1.246C23.8365 1.24601 24.1506 1.24603 24.4648 1.24605C24.5678 1.24606 24.6708 1.24607 24.7739 1.24608C24.8081 1.24608 24.8422 1.24609 24.8764 1.24609C25.1894 1.24612 25.5025 1.24612 25.8155 1.24607C25.8222 1.24607 25.829 1.24607 25.8359 1.24607C25.924 1.24605 26.0122 1.24604 26.1003 1.24602C26.1103 1.24602 26.1103 1.24602 26.1205 1.24602C26.134 1.24601 26.1475 1.24601 26.1609 1.24601C26.618 1.24593 27.075 1.24595 27.5321 1.24611C27.5805 1.24613 27.629 1.24614 27.6774 1.24616C27.6952 1.24616 27.6952 1.24616 27.7134 1.24617C27.901 1.24623 28.0886 1.24619 28.2762 1.2461C28.461 1.24603 28.6458 1.24606 28.8307 1.24619C28.9294 1.24626 29.0281 1.24629 29.1268 1.24618C29.8816 1.24539 29.8816 1.24539 30.2343 1.2793C30.257 1.28137 30.2798 1.28343 30.3025 1.28549C30.3515 1.28998 30.4003 1.2954 30.4491 1.30128C30.4577 1.30228 30.4662 1.30328 30.475 1.30431C31.3216 1.40397 32.1537 1.61678 34.0429 2.48048C34.0611 2.49108 34.0793 2.50167 34.0975 2.51225C34.5178 2.75744 34.9182 3.03664 35.2947 3.34485C35.3102 3.35757 35.3258 3.37023 35.3414 3.38288C35.4455 3.46739 35.5471 3.55455 35.6453 3.64583C35.6672 3.66592 35.6894 3.68562 35.7118 3.70515C35.833 3.81088 35.9469 3.92452 36.0607 4.03809C36.0667 4.04403 36.0726 4.04996 36.0788 4.05608C36.193 4.16989 36.193 4.16989 36.2448 4.23072C36.2715 4.26183 36.2999 4.29144 36.3281 4.3213C36.3746 4.37096 36.4207 4.42078 36.4648 4.47266C36.4762 4.48605 36.4762 4.48605 36.4879 4.49971C36.5162 4.53287 36.5442 4.56621 36.5722 4.59962C36.5775 4.60598 36.5829 4.61235 36.5884 4.6189C36.6678 4.71395 36.7447 4.81057 36.8192 4.90951C36.8368 4.93293 36.8545 4.9563 36.8723 4.97967C37.4084 5.68872 37.8465 6.47618 38.7184 9.74214C38.7205 9.76398 38.7226 9.78581 38.7247 9.80765C38.7592 10.1715 38.7541 10.5366 38.7537 10.9016C38.7536 11.0011 38.7537 11.1007 38.7538 11.2002C38.7539 11.3862 38.7539 11.5721 38.7538 11.758C38.7537 11.9462 38.7537 12.1344 38.7538 12.3225C38.7538 12.3345 38.7538 12.3464 38.7538 12.3587C38.7538 12.4073 38.7538 12.4559 38.7538 12.5045C38.754 12.956 38.754 13.4076 38.7539 13.8592C38.7539 13.8727 38.7539 13.8862 38.7539 13.8997C38.7539 13.9097 38.7539 13.9097 38.7539 13.9199C38.7539 14.0081 38.7539 14.0963 38.7539 14.1844C38.7539 14.1912 38.7539 14.1979 38.7539 14.2049C38.7538 14.5179 38.7538 14.831 38.7538 15.144C38.7539 15.1782 38.7539 15.2124 38.7539 15.2466C38.7539 15.3497 38.7539 15.4528 38.7539 15.5559C38.7539 15.8702 38.7539 16.1845 38.7539 16.4988C38.7539 16.5058 38.7539 16.5128 38.7539 16.52C38.7539 16.9729 38.7539 17.4257 38.7539 17.8786C38.7539 17.8858 38.7538 17.893 38.7538 17.9005C38.7538 18.1424 38.7538 18.3844 38.7537 18.6263C38.7536 19.3578 38.7536 20.0893 38.7537 21.3958C38.7538 21.6377 38.7538 21.8796 38.7539 22.1214C38.7539 22.1287 38.7539 22.1359 38.7539 22.1433C38.7539 22.5959 38.7539 23.0486 38.7539 23.5012C38.7539 23.5117 38.7539 23.5117 38.7539 23.5224C38.7539 23.8365 38.7539 24.1507 38.7539 24.4648C38.7539 24.5679 38.7539 24.6709 38.7539 24.774C38.7538 24.8081 38.7539 24.8423 38.7538 24.8765C38.7538 25.1895 38.7538 25.5026 38.7539 25.8156C38.7539 25.8223 38.7539 25.829 38.7539 25.836C38.7539 25.9241 38.7539 26.0122 38.7539 26.1004C38.7539 26.107 38.7539 26.1137 38.7539 26.1206C38.7539 26.1341 38.7539 26.1476 38.7539 26.161C38.754 26.6181 38.754 27.0751 38.7538 27.5322C38.7538 27.5806 38.7538 27.629 38.7538 27.6775C38.7538 27.6894 38.7538 27.7013 38.7538 27.7135C38.7537 27.9011 38.7537 28.0887 38.7538 28.2763C38.7539 28.4611 38.7539 28.6459 38.7537 28.8307C38.7537 28.9294 38.7536 29.0282 38.7538 29.1269C38.7545 29.8817 38.7545 29.8817 38.7206 30.2344C38.7186 30.2571 38.7165 30.2799 38.7145 30.3026C38.71 30.3516 38.7045 30.4004 38.6987 30.4492C38.6977 30.4578 38.6967 30.4663 38.6956 30.4751C38.5961 31.3209 38.3834 32.1486 37.7734 33.5645C37.7683 33.5749 37.7632 33.5853 37.7579 33.5961C37.6869 33.7417 37.6104 33.8833 37.5292 34.0234C37.5178 34.0433 37.5064 34.0632 37.4949 34.0831C37.2491 34.5093 36.9667 34.9141 36.6551 35.2947C36.6424 35.3103 36.6297 35.3259 36.6171 35.3415C36.5326 35.4456 36.4454 35.5472 36.3541 35.6454C36.334 35.6673 36.3143 35.6895 36.2948 35.7119C36.1891 35.8331 36.0754 35.947 35.9618 36.0608C35.9559 36.0668 35.95 36.0727 35.9439 36.0789C35.83 36.1931 35.83 36.1931 35.7692 36.2449C35.7381 36.2716 35.7085 36.3 35.6786 36.3281C35.629 36.3747 35.5792 36.4208 35.5273 36.4649C35.5183 36.4725 35.5094 36.4801 35.5002 36.488C35.4671 36.5162 35.4337 36.5443 35.4003 36.5723C35.394 36.5776 35.3876 36.5829 35.381 36.5884C35.286 36.6679 35.1894 36.7448 35.0904 36.8193C35.067 36.8369 35.0436 36.8546 35.0203 36.8723C34.3006 37.4164 33.5036 37.8519 31.2402 38.5742C31.2337 38.5756 31.2273 38.5769 31.2206 38.5783C30.9187 38.6408 30.6129 38.6822 30.3063 38.7134C30.2991 38.7141 30.2918 38.7149 30.2844 38.7157C30.0146 38.7433 29.7452 38.753 29.4743 38.7525C29.4327 38.7525 29.3911 38.7525 29.3495 38.7526C29.2767 38.7527 29.2039 38.7527 29.1311 38.7526C29.0221 38.7525 28.9131 38.7526 28.8041 38.7527C28.6183 38.7528 28.4324 38.7528 28.2466 38.7527C28.0584 38.7527 27.8702 38.7527 27.6821 38.7528C27.6642 38.7528 27.6642 38.7528 27.646 38.7528C27.5974 38.7528 27.5489 38.7528 27.5004 38.7528C27.049 38.7529 26.5976 38.753 26.1463 38.753C26.1396 38.753 26.1329 38.753 26.126 38.753C26.099 38.753 26.072 38.753 26.0449 38.753C25.9702 38.753 25.8956 38.753 25.8209 38.753C25.8141 38.753 25.8074 38.753 25.8005 38.753C25.4943 38.7529 25.1882 38.753 24.8821 38.753C24.8411 38.753 24.8001 38.753 24.7591 38.753C24.749 38.753 24.749 38.753 24.7386 38.753C24.7249 38.753 24.7112 38.753 24.6975 38.753C24.6632 38.753 24.6289 38.753 24.5946 38.753C24.5878 38.753 24.581 38.753 24.574 38.753C24.5396 38.753 24.5052 38.753 24.4708 38.753C24.1498 38.7531 23.8288 38.7531 23.5078 38.7531C23.4973 38.7531 23.4973 38.7531 23.4866 38.7531C23.0412 38.7532 22.5958 38.7532 22.1504 38.7531C22.1285 38.7531 22.1067 38.7531 22.0848 38.7531C21.9237 38.7531 21.7625 38.7531 21.6014 38.7531C21.5867 38.7531 21.572 38.7531 21.5573 38.7531C21.5426 38.7531 21.5279 38.7531 21.5132 38.7531C21.5023 38.7531 21.5023 38.7531 21.4912 38.7531C21.4544 38.7531 21.4176 38.7531 21.3809 38.7531C20.6864 38.7531 19.992 38.753 19.2975 38.7532C19.2902 38.7532 19.2829 38.7532 19.2754 38.7532C19.0543 38.7532 18.8332 38.7532 18.6122 38.7533C18.3705 38.7533 18.1287 38.7534 17.887 38.7534C17.8798 38.7534 17.8726 38.7534 17.8651 38.7534C17.4128 38.7535 16.9604 38.7536 16.5081 38.7536C16.4976 38.7536 16.4976 38.7536 16.4869 38.7536C16.1798 38.7536 15.8727 38.7536 15.5655 38.7536C15.4488 38.7536 15.3321 38.7536 15.2154 38.7536C15.188 38.7536 15.1607 38.7535 15.1334 38.7535C14.8205 38.7535 14.5076 38.7536 14.1947 38.7536C14.188 38.7536 14.1812 38.7536 14.1743 38.7536C14.066 38.7537 13.9577 38.7537 13.8494 38.7537C13.3924 38.7538 12.9355 38.7538 12.4785 38.7537C12.4301 38.7537 12.3816 38.7537 12.3332 38.7537C12.3213 38.7537 12.3094 38.7537 12.2972 38.7537C12.1096 38.7536 11.9221 38.7537 11.7345 38.7538C11.5497 38.7539 11.3649 38.7539 11.1801 38.7537C11.0814 38.7537 10.9827 38.7537 10.884 38.7538C10.1133 38.7547 10.1133 38.7547 9.76555 38.7207C9.7565 38.7198 9.74744 38.7189 9.73811 38.718C9.53709 38.6983 9.53709 38.6983 9.44626 38.6866C9.43746 38.6854 9.42866 38.6843 9.4196 38.6831C9.09252 38.6404 8.76831 38.5811 8.44719 38.5059C8.43937 38.504 8.43155 38.5022 8.42349 38.5003C7.73965 38.3398 7.0854 38.0908 6.45501 37.7832C6.44444 37.7781 6.43388 37.7729 6.423 37.7676C6.28078 37.6982 6.14152 37.625 6.0046 37.5456C5.97576 37.5289 5.94685 37.5123 5.91794 37.4957C5.49128 37.2502 5.08599 36.9669 4.7052 36.6552C4.68965 36.6424 4.67405 36.6298 4.65844 36.6171C4.55434 36.5326 4.45277 36.4455 4.35456 36.3542C4.33261 36.3341 4.31047 36.3144 4.28803 36.2949C4.16682 36.1891 4.05294 36.0755 3.93914 35.9619C3.93318 35.956 3.92722 35.9501 3.92107 35.9439C3.80688 35.8301 3.80688 35.8301 3.75506 35.7693C3.72832 35.7382 3.69994 35.7086 3.6718 35.6787C3.62526 35.6291 3.57916 35.5792 3.53508 35.5274C3.52746 35.5184 3.51983 35.5095 3.51197 35.5003C3.4837 35.4671 3.45565 35.4338 3.42766 35.4004C3.42233 35.394 3.417 35.3877 3.4115 35.3811C3.33208 35.2861 3.25519 35.1894 3.18067 35.0905C3.16302 35.0671 3.14531 35.0437 3.1276 35.0203C2.5915 34.3113 2.15339 33.5238 1.28594 30.3131C1.28483 30.3024 1.28483 30.3024 1.2837 30.2914C1.25655 30.0225 1.24695 29.7539 1.24741 29.4838C1.24746 29.4422 1.2474 29.4006 1.24735 29.359C1.24728 29.2861 1.24727 29.2132 1.24732 29.1403C1.24739 29.0312 1.24735 28.9221 1.24729 28.813C1.24718 28.627 1.24717 28.4409 1.24721 28.2549C1.24724 28.0665 1.24724 27.8782 1.24718 27.6898C1.24718 27.6779 1.24718 27.666 1.24717 27.6537C1.24716 27.6051 1.24714 27.5565 1.24713 27.5079C1.24699 27.0561 1.24695 26.6043 1.24697 26.1525C1.24697 26.1458 1.24697 26.1391 1.24697 26.1322C1.24697 26.1052 1.24697 26.0781 1.24697 26.0511C1.24698 25.9763 1.24698 25.9015 1.24698 25.8268C1.24698 25.82 1.24698 25.8133 1.24698 25.8063C1.247 25.4999 1.24697 25.1935 1.24694 24.8871C1.24693 24.8461 1.24693 24.805 1.24693 24.764C1.24692 24.7572 1.24692 24.7504 1.24692 24.7434C1.24692 24.7297 1.24692 24.716 1.24692 24.7023C1.24692 24.6679 1.24691 24.6336 1.24691 24.5993C1.24691 24.5925 1.24691 24.5856 1.24691 24.5786C1.2469 24.5442 1.2469 24.5098 1.24689 24.4753C1.24686 24.154 1.24683 23.8327 1.24681 23.5114C1.24681 23.5044 1.24681 23.4974 1.24681 23.4902C1.24678 23.0444 1.24678 22.5985 1.24681 22.1527C1.24681 22.1308 1.24681 22.1088 1.24681 22.0869C1.24682 21.9256 1.24683 21.7644 1.24684 21.6031C1.24684 21.5884 1.24684 21.5737 1.24684 21.559C1.24684 21.5443 1.24684 21.5295 1.24684 21.5148C1.24684 21.5075 1.24684 21.5003 1.24684 21.4927C1.24684 21.4559 1.24685 21.4191 1.24685 21.3823C1.24689 20.6872 1.2469 19.992 1.24678 19.2969C1.24678 19.2896 1.24678 19.2822 1.24677 19.2747C1.24674 19.0534 1.24669 18.8321 1.24665 18.6109C1.2466 18.3689 1.24655 18.1269 1.24651 17.885C1.24651 17.8777 1.24651 17.8705 1.24651 17.8631C1.24642 17.4102 1.24637 16.9574 1.24637 16.5046C1.24637 16.4976 1.24637 16.4906 1.24637 16.4834C1.24636 16.176 1.24636 15.8686 1.24638 15.5612C1.24638 15.4443 1.24638 15.3275 1.24639 15.2106C1.24639 15.1833 1.24639 15.1559 1.24639 15.1286C1.2464 14.8154 1.24639 14.5022 1.24631 14.189C1.24631 14.1822 1.24631 14.1755 1.24631 14.1685C1.24628 14.0601 1.24626 13.9517 1.24623 13.8433C1.24611 13.3859 1.2461 12.9285 1.24622 12.471C1.24623 12.4226 1.24625 12.3741 1.24626 12.3256C1.24626 12.3137 1.24626 12.3018 1.24627 12.2895C1.24631 12.1018 1.24625 11.9141 1.24616 11.7263C1.24606 11.5413 1.24607 11.3563 1.2462 11.1714C1.24626 11.0726 1.24628 10.9738 1.24616 10.875C1.24517 10.0012 1.31571 9.15225 2.20696 6.47462C2.21237 6.46352 2.21779 6.45243 2.22337 6.44099C2.29585 6.29277 2.37154 6.14718 2.45441 6.00449C2.47131 5.9754 2.48808 5.94623 2.50485 5.91706C2.75067 5.49081 3.03311 5.08595 3.34477 4.70528C3.35749 4.68973 3.37015 4.67412 3.3828 4.65851C3.46731 4.55441 3.55447 4.45285 3.64575 4.35464C3.66584 4.33269 3.68554 4.31055 3.70507 4.28811C3.8108 4.1669 3.92444 4.05301 4.03801 3.93922C4.04395 3.93325 4.04989 3.92729 4.056 3.92115C4.16981 3.80696 4.16981 3.80696 4.23064 3.75514C4.26176 3.7284 4.29136 3.70002 4.32122 3.67188C4.37088 3.62534 4.4207 3.57924 4.47258 3.53516C4.48151 3.52753 4.49044 3.51991 4.49963 3.51205C4.5328 3.48378 4.56613 3.45572 4.59954 3.42774C4.6059 3.42241 4.61227 3.41708 4.61883 3.41158C4.71387 3.33216 4.8105 3.25526 4.90943 3.18075C4.93285 3.1631 4.95622 3.14539 4.9796 3.12768C5.68864 2.59158 6.4761 2.15347 9.74206 1.28149C9.7639 1.27946 9.78573 1.27736 9.80757 1.27525C10.1714 1.24075 10.5365 1.24581 10.9015 1.24621ZM17.9797 6.6626C17.9723 6.66322 17.9649 6.66383 17.9573 6.66446C17.5351 6.69971 17.1194 6.77081 16.7089 6.87501C16.697 6.87804 16.685 6.88107 16.6727 6.88419C16.1739 7.01242 15.6946 7.20206 15.2343 7.43165C15.2232 7.4372 15.212 7.44275 15.2005 7.44847C15.0314 7.53326 14.8683 7.62588 14.707 7.72462C14.6941 7.73251 14.6941 7.73251 14.6809 7.74056C14.4427 7.8869 14.2119 8.04734 13.9941 8.22266C13.9847 8.23014 13.9847 8.23014 13.9752 8.23777C13.8529 8.33594 13.7331 8.43661 13.6176 8.54272C13.5969 8.56155 13.5759 8.57986 13.5546 8.59803C13.5131 8.63403 13.4749 8.67318 13.4365 8.71247C13.4154 8.73364 13.3933 8.75317 13.3706 8.77259C13.3279 8.80963 13.2896 8.85006 13.2513 8.89161C13.2082 8.93801 13.1649 8.98381 13.1199 9.02836C13.1033 9.04504 13.0877 9.06231 13.0724 9.08021C13.0468 9.10993 13.0207 9.1391 12.9943 9.1681C12.9481 9.21936 12.9046 9.27252 12.8613 9.32618C12.8514 9.3382 12.8415 9.35022 12.8316 9.36223C12.7575 9.45249 12.6863 9.54453 12.6171 9.63868C12.6121 9.6455 12.6071 9.65232 12.6019 9.65934C12.5152 9.77691 12.4332 9.89722 12.3534 10.0195C12.346 10.031 12.346 10.031 12.3384 10.0426C12.1569 10.3219 11.9946 10.6154 11.8554 10.918C11.8484 10.9331 11.8484 10.9331 11.8413 10.9486C11.4972 11.6967 11.282 12.5005 11.2011 13.3594C11.2 13.3711 11.1989 13.3828 11.1978 13.3949C11.1547 13.8752 11.1718 14.3633 11.1718 14.8438C10.089 14.8438 9.00618 14.8438 7.89055 14.8438C7.89055 16.468 7.89055 18.0922 7.89055 19.7656C8.97337 19.7656 10.0562 19.7656 11.1718 19.7656C11.1718 22.4469 11.1718 25.1281 11.1718 27.8906C10.089 27.8906 9.00618 27.8906 7.89055 27.8906C7.89055 29.5149 7.89055 31.1391 7.89055 32.8125C11.6804 32.8125 15.4702 32.8125 19.3749 32.8125C19.3749 31.1883 19.3749 29.5641 19.3749 27.8906C18.2921 27.8906 17.2093 27.8906 16.0937 27.8906C16.0937 25.2094 16.0937 22.5281 16.0937 19.7656C18.8007 19.7656 21.5077 19.7656 24.2968 19.7656C24.2968 22.4469 24.2968 25.1281 24.2968 27.8906C23.214 27.8906 22.1312 27.8906 21.0156 27.8906C21.0156 29.5149 21.0156 31.1391 21.0156 32.8125C24.8054 32.8125 28.5952 32.8125 32.4999 32.8125C32.4999 31.1883 32.4999 29.5641 32.4999 27.8906C31.4171 27.8906 30.3343 27.8906 29.2187 27.8906C29.2187 23.5852 29.2187 19.2797 29.2187 14.8438C24.8874 14.8438 20.5562 14.8438 16.0937 14.8438C16.1047 13.6565 16.1047 13.6565 16.1596 13.4412C16.1621 13.4311 16.1646 13.421 16.1672 13.4107C16.2735 12.9944 16.4813 12.6252 16.7773 12.3145C16.7828 12.3086 16.7884 12.3028 16.7941 12.2967C16.8775 12.2099 16.9636 12.1319 17.0605 12.0606C17.0659 12.0564 17.0714 12.0523 17.0771 12.0481C17.5228 11.7134 18.0498 11.5677 18.602 11.5681C18.6289 11.568 18.6559 11.5679 18.6828 11.5677C18.747 11.5675 18.8112 11.5674 18.8754 11.5673C18.9498 11.5673 19.0243 11.567 19.0987 11.5668C19.2947 11.5662 19.4908 11.5659 19.6868 11.5656C20.3445 11.564 20.3445 11.564 21.0156 11.5625C21.0156 9.93829 21.0156 8.31407 21.0156 6.64063C20.6121 6.64043 20.2087 6.64023 19.793 6.64002C19.6663 6.63993 19.5396 6.63984 19.409 6.63975C19.294 6.63972 19.294 6.63972 19.179 6.6397C19.1284 6.63969 19.0777 6.63966 19.027 6.6396C18.5029 6.63589 18.5029 6.63589 17.9797 6.6626ZM26.3183 6.67969C26.3093 6.68132 26.3003 6.68294 26.2911 6.68462C25.9488 6.74764 25.6151 6.88656 25.332 7.08985C25.3225 7.09651 25.3225 7.09651 25.3129 7.1033C25.2177 7.17101 25.1308 7.24482 25.0471 7.32635C25.0293 7.34368 25.0114 7.36085 24.9934 7.37801C24.9164 7.45255 24.8488 7.53107 24.7851 7.6172C24.7811 7.62252 24.777 7.62785 24.7729 7.63334C24.395 8.13475 24.2195 8.78266 24.3026 9.40656C24.3264 9.56885 24.3607 9.72762 24.414 9.88282C24.4168 9.891 24.4196 9.89919 24.4225 9.90762C24.5299 10.2155 24.6964 10.4889 24.912 10.7324C24.9167 10.7377 24.9214 10.7431 24.9263 10.7485C25.3554 11.2309 25.9717 11.5098 26.6124 11.5512C26.993 11.5719 27.3761 11.5014 27.7245 11.3477C27.7362 11.3426 27.7362 11.3426 27.7481 11.3374C28.1032 11.1806 28.436 10.9247 28.6718 10.6152C28.676 10.6097 28.6803 10.6041 28.6846 10.5984C28.7432 10.5213 28.7985 10.443 28.8472 10.3592C28.8543 10.3471 28.8614 10.335 28.8686 10.323C29.1909 9.78095 29.2759 9.11481 29.1262 8.50495C29.0549 8.22816 28.9405 7.94576 28.7695 7.71485C28.7625 7.70523 28.7555 7.69562 28.7483 7.68571C28.6148 7.5047 28.4671 7.3376 28.2909 7.19727C28.2836 7.19108 28.2762 7.18489 28.2686 7.1785C27.9557 6.91832 27.5657 6.75347 27.1679 6.67969C27.1594 6.6781 27.1509 6.6765 27.1421 6.67485C26.8774 6.62778 26.5822 6.62927 26.3183 6.67969Z" fill="black"/>
</svg>