<svg width="38" height="38" viewBox="0 0 38 38" fill="none" xmlns="http://www.w3.org/2000/svg">
<path d="M9.90153 0.246213C10.0011 0.246316 10.1006 0.246244 10.2001 0.24617C10.3861 0.246036 10.572 0.246039 10.758 0.24612C10.9461 0.246201 11.1343 0.246217 11.3224 0.246157C11.3344 0.246153 11.3463 0.246149 11.3586 0.246145C11.4072 0.24613 11.4558 0.246113 11.5044 0.246097C11.956 0.245942 12.4075 0.245931 12.8591 0.246013C12.8726 0.246016 12.8861 0.246018 12.8996 0.246021C12.9063 0.246022 12.913 0.246023 12.9198 0.246024C13.008 0.24604 13.0962 0.246056 13.1844 0.246071C13.1945 0.246073 13.1945 0.246073 13.2048 0.246074C13.5178 0.246127 13.8309 0.246115 14.1439 0.246088C14.1781 0.246085 14.2123 0.246082 14.2465 0.246079C14.3496 0.246071 14.4527 0.246062 14.5558 0.246053C14.8701 0.246025 15.1844 0.246008 15.4988 0.245999C15.5058 0.245998 15.5128 0.245998 15.52 0.245998C15.9728 0.245985 16.4257 0.246017 16.8785 0.246082C16.8893 0.246084 16.8893 0.246084 16.9004 0.246085C17.1423 0.24612 17.3843 0.246157 17.6262 0.246194C18.3577 0.246305 19.0893 0.246367 20.3957 0.24619C20.6376 0.246153 20.8795 0.246117 21.1214 0.246082C21.1286 0.246081 21.1358 0.24608 21.1432 0.246079C21.5959 0.246014 22.0485 0.245986 22.5011 0.245999C22.5116 0.245999 22.5116 0.245999 22.5223 0.245999C22.8365 0.246008 23.1506 0.246027 23.4648 0.246055C23.5678 0.246064 23.6708 0.246072 23.7739 0.246081C23.8081 0.246084 23.8422 0.246086 23.8764 0.246089C24.1894 0.246116 24.5025 0.246124 24.8155 0.246071C24.8222 0.24607 24.829 0.246069 24.8359 0.246067C24.924 0.246053 25.0122 0.246037 25.1003 0.246021C25.1103 0.246019 25.1103 0.246019 25.1205 0.246017C25.134 0.246014 25.1475 0.246012 25.1609 0.24601C25.618 0.245927 26.075 0.245953 26.5321 0.246109C26.5805 0.246126 26.629 0.246141 26.6774 0.246157C26.6952 0.246162 26.6952 0.246162 26.7134 0.246168C26.901 0.246226 27.0886 0.246186 27.2762 0.246105C27.461 0.246027 27.6458 0.246055 27.8307 0.246193C27.9294 0.246264 28.0281 0.24629 28.1268 0.246181C28.8816 0.245393 28.8816 0.245393 29.2343 0.279303C29.257 0.281368 29.2798 0.28343 29.3025 0.285485C29.3515 0.289982 29.4003 0.295396 29.4491 0.301276C29.4577 0.302278 29.4662 0.30328 29.475 0.304312C30.3216 0.403966 31.1537 0.616779 33.0429 1.48048C33.0611 1.49108 33.0793 1.50167 33.0975 1.51225C33.5178 1.75744 33.9182 2.03664 34.2947 2.34485C34.3102 2.35757 34.3258 2.37023 34.3414 2.38288C34.4455 2.46739 34.5471 2.55455 34.6453 2.64583C34.6672 2.66592 34.6894 2.68562 34.7118 2.70515C34.833 2.81088 34.9469 2.92452 35.0607 3.03809C35.0667 3.04403 35.0726 3.04996 35.0788 3.05608C35.193 3.16989 35.193 3.16989 35.2448 3.23072C35.2715 3.26183 35.2999 3.29144 35.3281 3.3213C35.3746 3.37096 35.4207 3.42078 35.4648 3.47266C35.4762 3.48605 35.4762 3.48605 35.4879 3.49971C35.5162 3.53287 35.5442 3.56621 35.5722 3.59962C35.5775 3.60598 35.5829 3.61235 35.5884 3.6189C35.6678 3.71395 35.7447 3.81057 35.8192 3.90951C35.8368 3.93293 35.8545 3.9563 35.8723 3.97967C36.4084 4.68872 36.8465 5.47618 37.7184 8.74214C37.7205 8.76398 37.7226 8.78581 37.7247 8.80765C37.7592 9.17146 37.7541 9.53659 37.7537 9.90161C37.7536 10.0011 37.7537 10.1007 37.7538 10.2002C37.7539 10.3862 37.7539 10.5721 37.7538 10.758C37.7537 10.9462 37.7537 11.1344 37.7538 11.3225C37.7538 11.3345 37.7538 11.3464 37.7538 11.3587C37.7538 11.4073 37.7538 11.4559 37.7538 11.5045C37.754 11.956 37.754 12.4076 37.7539 12.8592C37.7539 12.8727 37.7539 12.8862 37.7539 12.8997C37.7539 12.9097 37.7539 12.9097 37.7539 12.9199C37.7539 13.0081 37.7539 13.0963 37.7539 13.1844C37.7539 13.1912 37.7539 13.1979 37.7539 13.2049C37.7538 13.5179 37.7538 13.831 37.7538 14.144C37.7539 14.1782 37.7539 14.2124 37.7539 14.2466C37.7539 14.3497 37.7539 14.4528 37.7539 14.5559C37.7539 14.8702 37.7539 15.1845 37.7539 15.4988C37.7539 15.5058 37.7539 15.5128 37.7539 15.52C37.7539 15.9729 37.7539 16.4257 37.7539 16.8786C37.7539 16.8858 37.7539 16.893 37.7538 16.9005C37.7538 17.1424 37.7538 17.3844 37.7537 17.6263C37.7536 18.3578 37.7536 19.0893 37.7537 20.3958C37.7538 20.6377 37.7538 20.8796 37.7539 21.1214C37.7539 21.1287 37.7539 21.1359 37.7539 21.1433C37.7539 21.5959 37.7539 22.0486 37.7539 22.5012C37.7539 22.5117 37.7539 22.5117 37.7539 22.5224C37.7539 22.8365 37.7539 23.1507 37.7539 23.4648C37.7539 23.5679 37.7539 23.6709 37.7539 23.774C37.7539 23.8081 37.7539 23.8423 37.7538 23.8765C37.7538 24.1895 37.7538 24.5026 37.7539 24.8156C37.7539 24.8223 37.7539 24.829 37.7539 24.836C37.7539 24.9241 37.7539 25.0122 37.7539 25.1004C37.7539 25.107 37.7539 25.1137 37.7539 25.1206C37.7539 25.1341 37.7539 25.1476 37.7539 25.161C37.754 25.6181 37.754 26.0751 37.7538 26.5322C37.7538 26.5806 37.7538 26.6291 37.7538 26.6775C37.7538 26.6894 37.7538 26.7013 37.7538 26.7135C37.7537 26.9011 37.7537 27.0887 37.7538 27.2763C37.7539 27.4611 37.7539 27.6459 37.7537 27.8307C37.7537 27.9294 37.7536 28.0282 37.7538 28.1269C37.7545 28.8817 37.7545 28.8817 37.7206 29.2344C37.7186 29.2571 37.7165 29.2799 37.7145 29.3026C37.71 29.3516 37.7045 29.4004 37.6987 29.4492C37.6977 29.4578 37.6967 29.4663 37.6956 29.4751C37.5961 30.3209 37.3834 31.1486 36.7734 32.5645C36.7683 32.5749 36.7632 32.5853 36.7579 32.5961C36.6869 32.7417 36.6104 32.8832 36.5292 33.0234C36.5178 33.0433 36.5064 33.0632 36.4949 33.0831C36.2491 33.5093 35.9667 33.9141 35.6551 34.2947C35.6424 34.3103 35.6297 34.3259 35.6171 34.3415C35.5326 34.4456 35.4454 34.5472 35.3541 34.6454C35.334 34.6673 35.3143 34.6895 35.2948 34.7119C35.1891 34.8331 35.0754 34.947 34.9618 35.0608C34.9559 35.0668 34.95 35.0727 34.9439 35.0789C34.83 35.1931 34.83 35.1931 34.7692 35.2449C34.7381 35.2716 34.7085 35.3 34.6786 35.3281C34.629 35.3747 34.5792 35.4208 34.5273 35.4649C34.5183 35.4725 34.5094 35.4801 34.5002 35.488C34.4671 35.5162 34.4337 35.5443 34.4003 35.5723C34.394 35.5776 34.3876 35.5829 34.381 35.5884C34.286 35.6679 34.1894 35.7448 34.0904 35.8193C34.067 35.8369 34.0436 35.8546 34.0203 35.8723C33.3006 36.4164 32.5036 36.8519 30.2402 37.5742C30.2337 37.5756 30.2273 37.5769 30.2206 37.5783C29.9187 37.6408 29.6129 37.6822 29.3063 37.7134C29.2991 37.7141 29.2918 37.7149 29.2844 37.7157C29.0146 37.7433 28.7452 37.753 28.4743 37.7525C28.4327 37.7525 28.3911 37.7525 28.3495 37.7526C28.2767 37.7527 28.2039 37.7527 28.1311 37.7526C28.0221 37.7525 27.9131 37.7526 27.8041 37.7527C27.6183 37.7528 27.4324 37.7528 27.2466 37.7527C27.0584 37.7527 26.8702 37.7527 26.6821 37.7528C26.6642 37.7528 26.6642 37.7528 26.646 37.7528C26.5974 37.7528 26.5489 37.7528 26.5004 37.7528C26.049 37.7529 25.5976 37.753 25.1463 37.753C25.1396 37.753 25.1329 37.753 25.126 37.753C25.099 37.753 25.072 37.753 25.0449 37.753C24.9702 37.753 24.8956 37.753 24.8209 37.753C24.8141 37.753 24.8074 37.753 24.8005 37.753C24.4943 37.7529 24.1882 37.753 23.8821 37.753C23.8411 37.753 23.8001 37.753 23.7591 37.753C23.749 37.753 23.749 37.753 23.7386 37.753C23.7249 37.753 23.7112 37.753 23.6975 37.753C23.6632 37.753 23.6289 37.753 23.5946 37.753C23.5878 37.753 23.581 37.753 23.574 37.753C23.5396 37.753 23.5052 37.753 23.4708 37.753C23.1498 37.7531 22.8288 37.7531 22.5078 37.7531C22.4973 37.7531 22.4973 37.7531 22.4866 37.7531C22.0412 37.7532 21.5958 37.7532 21.1504 37.7531C21.1285 37.7531 21.1067 37.7531 21.0848 37.7531C20.9237 37.7531 20.7625 37.7531 20.6014 37.7531C20.5867 37.7531 20.572 37.7531 20.5573 37.7531C20.5426 37.7531 20.5279 37.7531 20.5132 37.7531C20.5023 37.7531 20.5023 37.7531 20.4912 37.7531C20.4544 37.7531 20.4176 37.7531 20.3809 37.7531C19.6864 37.7531 18.992 37.753 18.2975 37.7532C18.2902 37.7532 18.2829 37.7532 18.2754 37.7532C18.0543 37.7532 17.8332 37.7532 17.6122 37.7533C17.3705 37.7533 17.1287 37.7534 16.887 37.7534C16.8798 37.7534 16.8726 37.7534 16.8651 37.7534C16.4128 37.7535 15.9604 37.7536 15.5081 37.7536C15.4976 37.7536 15.4976 37.7536 15.4869 37.7536C15.1798 37.7536 14.8727 37.7536 14.5655 37.7536C14.4488 37.7536 14.3321 37.7536 14.2154 37.7536C14.188 37.7536 14.1607 37.7535 14.1334 37.7535C13.8205 37.7535 13.5076 37.7535 13.1947 37.7536C13.188 37.7536 13.1812 37.7536 13.1743 37.7536C13.066 37.7537 12.9577 37.7537 12.8494 37.7537C12.3924 37.7538 11.9355 37.7538 11.4785 37.7537C11.4301 37.7537 11.3816 37.7537 11.3332 37.7537C11.3213 37.7537 11.3094 37.7537 11.2972 37.7537C11.1096 37.7536 10.9221 37.7537 10.7345 37.7538C10.5497 37.7539 10.3649 37.7539 10.1801 37.7537C10.0814 37.7537 9.98274 37.7537 9.88405 37.7538C9.11325 37.7546 9.11325 37.7546 8.76555 37.7207C8.7565 37.7198 8.74744 37.719 8.73811 37.718C8.53709 37.6983 8.53709 37.6983 8.44626 37.6866C8.43746 37.6854 8.42866 37.6843 8.4196 37.6831C8.09252 37.6404 7.76831 37.5811 7.44719 37.5059C7.43937 37.504 7.43155 37.5022 7.42349 37.5003C6.73965 37.3398 6.0854 37.0908 5.45501 36.7832C5.44444 36.7781 5.43388 36.7729 5.423 36.7676C5.28078 36.6982 5.14152 36.625 5.0046 36.5456C4.97576 36.5289 4.94685 36.5123 4.91794 36.4957C4.49128 36.2502 4.08599 35.9669 3.7052 35.6552C3.68965 35.6424 3.67405 35.6298 3.65844 35.6171C3.55434 35.5326 3.45277 35.4455 3.35456 35.3542C3.33261 35.3341 3.31047 35.3144 3.28803 35.2949C3.16682 35.1891 3.05294 35.0755 2.93914 34.9619C2.93318 34.956 2.92722 34.9501 2.92107 34.9439C2.80688 34.8301 2.80688 34.8301 2.75506 34.7693C2.72832 34.7382 2.69994 34.7086 2.6718 34.6787C2.62526 34.6291 2.57916 34.5792 2.53508 34.5274C2.52746 34.5184 2.51983 34.5095 2.51197 34.5003C2.4837 34.4671 2.45565 34.4338 2.42766 34.4004C2.42233 34.394 2.417 34.3877 2.4115 34.3811C2.33208 34.2861 2.25519 34.1894 2.18067 34.0905C2.16302 34.0671 2.14531 34.0437 2.1276 34.0203C1.5915 33.3113 1.15339 32.5238 0.285939 29.3131C0.284832 29.3024 0.284832 29.3024 0.283703 29.2914C0.256555 29.0225 0.246946 28.7539 0.247415 28.4838C0.247465 28.4422 0.247398 28.4006 0.247348 28.359C0.247276 28.2861 0.247275 28.2132 0.247322 28.1403C0.247393 28.0312 0.24735 27.9221 0.247287 27.813C0.247181 27.627 0.247168 27.4409 0.247206 27.2549C0.247244 27.0665 0.247239 26.8782 0.247183 26.6898C0.247179 26.6779 0.247176 26.666 0.247173 26.6537C0.247158 26.6051 0.247143 26.5565 0.247128 26.5079C0.246988 26.0561 0.246946 25.6043 0.246968 25.1525C0.246968 25.1458 0.246969 25.1391 0.246969 25.1322C0.24697 25.1052 0.246971 25.0781 0.246973 25.051C0.246976 24.9763 0.24698 24.9015 0.246983 24.8268C0.246984 24.82 0.246984 24.8133 0.246984 24.8063C0.246997 24.4999 0.246973 24.1935 0.246939 23.8871C0.246935 23.8461 0.24693 23.805 0.246925 23.764C0.246925 23.7572 0.246924 23.7504 0.246923 23.7434C0.246922 23.7297 0.24692 23.716 0.246919 23.7023C0.246915 23.6679 0.246912 23.6336 0.246908 23.5993C0.246907 23.5925 0.246907 23.5856 0.246906 23.5786C0.246902 23.5442 0.246898 23.5098 0.246894 23.4753C0.24686 23.154 0.246831 22.8327 0.24681 22.5114C0.24681 22.5044 0.24681 22.4974 0.246809 22.4902C0.24678 22.0444 0.246781 21.5985 0.246805 21.1527C0.246806 21.1308 0.246807 21.1088 0.246809 21.0869C0.246817 20.9256 0.246826 20.7644 0.246835 20.6031C0.246836 20.5884 0.246837 20.5737 0.246838 20.559C0.246839 20.5443 0.246839 20.5295 0.24684 20.5148C0.246841 20.5075 0.246841 20.5003 0.246841 20.4927C0.246844 20.4559 0.246846 20.4191 0.246848 20.3823C0.246888 19.6872 0.246899 18.992 0.246778 18.2969C0.246777 18.2896 0.246775 18.2822 0.246774 18.2747C0.246735 18.0534 0.246693 17.8321 0.246649 17.6109C0.246602 17.3689 0.246555 17.1269 0.24651 16.885C0.246509 16.8777 0.246507 16.8705 0.246506 16.8631C0.246422 16.4102 0.246374 15.9574 0.246366 15.5046C0.246366 15.4976 0.246366 15.4906 0.246366 15.4834C0.24636 15.176 0.246363 14.8686 0.246375 14.5612C0.24638 14.4443 0.246383 14.3275 0.246387 14.2106C0.246387 14.1833 0.246389 14.1559 0.24639 14.1286C0.2464 13.8154 0.246389 13.5022 0.246314 13.189C0.246313 13.1822 0.246311 13.1755 0.24631 13.1685C0.246284 13.0601 0.246256 12.9517 0.246229 12.8433C0.246112 12.3859 0.246103 11.9285 0.246222 11.471C0.246234 11.4226 0.246246 11.3741 0.246257 11.3256C0.24626 11.3137 0.246263 11.3018 0.246266 11.2895C0.246308 11.1018 0.246252 10.9141 0.246155 10.7263C0.246062 10.5413 0.246074 10.3563 0.246196 10.1714C0.246259 10.0726 0.246276 9.97377 0.246158 9.87498C0.245171 9.00123 0.315711 8.15225 1.20696 5.47462C1.21237 5.46352 1.21779 5.45243 1.22337 5.44099C1.29585 5.29277 1.37154 5.14718 1.45441 5.00449C1.47131 4.9754 1.48808 4.94623 1.50485 4.91706C1.75067 4.49081 2.03311 4.08595 2.34477 3.70528C2.35749 3.68973 2.37015 3.67412 2.3828 3.65851C2.46731 3.55441 2.55447 3.45285 2.64575 3.35464C2.66584 3.33269 2.68554 3.31055 2.70507 3.28811C2.8108 3.1669 2.92444 3.05301 3.03801 2.93922C3.04395 2.93325 3.04989 2.92729 3.056 2.92115C3.16981 2.80696 3.16981 2.80696 3.23064 2.75514C3.26176 2.7284 3.29136 2.70002 3.32122 2.67188C3.37088 2.62534 3.4207 2.57924 3.47258 2.53516C3.48151 2.52753 3.49044 2.51991 3.49963 2.51205C3.5328 2.48378 3.56613 2.45572 3.59954 2.42774C3.6059 2.42241 3.61227 2.41708 3.61883 2.41158C3.71387 2.33216 3.8105 2.25526 3.90943 2.18075C3.93285 2.1631 3.95622 2.14539 3.9796 2.12768C4.68864 1.59158 5.4761 1.15347 8.74206 0.281491C8.7639 0.279457 8.78573 0.277357 8.80757 0.275246C9.17138 0.240748 9.53651 0.245809 9.90153 0.246213ZM16.9797 5.6626C16.9723 5.66322 16.9649 5.66383 16.9573 5.66446C16.5351 5.69971 16.1194 5.77081 15.7089 5.87501C15.697 5.87804 15.685 5.88107 15.6727 5.88419C15.1739 6.01242 14.6946 6.20206 14.2343 6.43165C14.2232 6.4372 14.212 6.44275 14.2005 6.44847C14.0314 6.53326 13.8683 6.62588 13.707 6.72462C13.6941 6.73251 13.6941 6.73251 13.6809 6.74056C13.4427 6.8869 13.2119 7.04734 12.9941 7.22266C12.9847 7.23014 12.9847 7.23014 12.9752 7.23777C12.8529 7.33594 12.7331 7.43661 12.6176 7.54272C12.5969 7.56155 12.5759 7.57986 12.5546 7.59803C12.5131 7.63403 12.4749 7.67318 12.4365 7.71247C12.4154 7.73364 12.3933 7.75317 12.3706 7.77259C12.3279 7.80963 12.2896 7.85006 12.2513 7.89161C12.2082 7.93801 12.1649 7.98381 12.1199 8.02836C12.1033 8.04504 12.0877 8.06231 12.0724 8.08021C12.0468 8.10993 12.0207 8.1391 11.9943 8.1681C11.9481 8.21936 11.9046 8.27252 11.8613 8.32618C11.8514 8.3382 11.8415 8.35022 11.8316 8.36223C11.7575 8.45249 11.6863 8.54453 11.6171 8.63868C11.6121 8.6455 11.6071 8.65232 11.6019 8.65934C11.5152 8.7769 11.4332 8.89722 11.3534 9.01954C11.346 9.03095 11.346 9.03095 11.3384 9.0426C11.1569 9.32189 10.9946 9.61539 10.8554 9.91798C10.8484 9.93313 10.8484 9.93313 10.8413 9.94858C10.4972 10.6967 10.282 11.5005 10.2011 12.3594C10.2 12.3711 10.1989 12.3828 10.1978 12.3949C10.1547 12.8752 10.1718 13.3633 10.1718 13.8438C9.08899 13.8438 8.00618 13.8438 6.89055 13.8438C6.89055 15.468 6.89055 17.0922 6.89055 18.7656C7.97337 18.7656 9.05618 18.7656 10.1718 18.7656C10.1718 21.4469 10.1718 24.1281 10.1718 26.8906C9.08899 26.8906 8.00618 26.8906 6.89055 26.8906C6.89055 28.5149 6.89055 30.1391 6.89055 31.8125C10.6804 31.8125 14.4702 31.8125 18.3749 31.8125C18.3749 30.1883 18.3749 28.5641 18.3749 26.8906C17.2921 26.8906 16.2093 26.8906 15.0937 26.8906C15.0937 24.2094 15.0937 21.5281 15.0937 18.7656C17.8007 18.7656 20.5077 18.7656 23.2968 18.7656C23.2968 21.4469 23.2968 24.1281 23.2968 26.8906C22.214 26.8906 21.1312 26.8906 20.0156 26.8906C20.0156 28.5149 20.0156 30.1391 20.0156 31.8125C23.8054 31.8125 27.5952 31.8125 31.4999 31.8125C31.4999 30.1883 31.4999 28.5641 31.4999 26.8906C30.4171 26.8906 29.3343 26.8906 28.2187 26.8906C28.2187 22.5852 28.2187 18.2797 28.2187 13.8438C23.8874 13.8438 19.5562 13.8438 15.0937 13.8438C15.1047 12.6565 15.1047 12.6565 15.1596 12.4412C15.1621 12.4311 15.1646 12.421 15.1672 12.4107C15.2735 11.9944 15.4813 11.6252 15.7773 11.3145C15.7828 11.3086 15.7884 11.3028 15.7941 11.2967C15.8775 11.2099 15.9636 11.1319 16.0605 11.0606C16.0659 11.0564 16.0714 11.0523 16.0771 11.0481C16.5228 10.7134 17.0498 10.5677 17.602 10.5681C17.6289 10.568 17.6559 10.5679 17.6828 10.5677C17.747 10.5675 17.8112 10.5674 17.8754 10.5673C17.9498 10.5673 18.0242 10.567 18.0987 10.5668C18.2947 10.5662 18.4908 10.5659 18.6868 10.5656C19.3445 10.564 19.3445 10.564 20.0156 10.5625C20.0156 8.93829 20.0156 7.31407 20.0156 5.64063C19.6121 5.64043 19.2087 5.64023 18.793 5.64002C18.6663 5.63993 18.5396 5.63984 18.409 5.63975C18.294 5.63972 18.294 5.63972 18.179 5.6397C18.1284 5.63969 18.0777 5.63966 18.027 5.6396C17.5029 5.63589 17.5029 5.63589 16.9797 5.6626ZM25.3183 5.67969C25.3093 5.68132 25.3003 5.68294 25.2911 5.68462C24.9488 5.74764 24.6151 5.88656 24.332 6.08985C24.3225 6.09651 24.3225 6.09651 24.3129 6.1033C24.2177 6.17101 24.1308 6.24482 24.0471 6.32635C24.0293 6.34368 24.0114 6.36085 23.9934 6.37801C23.9164 6.45255 23.8488 6.53107 23.7851 6.61719C23.7811 6.62252 23.777 6.62785 23.7729 6.63334C23.395 7.13475 23.2195 7.78266 23.3026 8.40656C23.3264 8.56885 23.3607 8.72762 23.414 8.88282C23.4168 8.891 23.4196 8.89919 23.4225 8.90762C23.5299 9.21548 23.6964 9.48891 23.912 9.73243C23.9167 9.73774 23.9214 9.74305 23.9263 9.74853C24.3554 10.2309 24.9717 10.5098 25.6124 10.5512C25.993 10.5719 26.3761 10.5014 26.7245 10.3477C26.7362 10.3426 26.7362 10.3426 26.7481 10.3374C27.1032 10.1806 27.436 9.92474 27.6718 9.61524C27.676 9.60969 27.6803 9.60414 27.6846 9.59842C27.7432 9.52134 27.7985 9.44297 27.8472 9.3592C27.8543 9.34708 27.8614 9.335 27.8686 9.32296C28.1909 8.78095 28.2759 8.11481 28.1262 7.50495C28.0549 7.22816 27.9405 6.94576 27.7695 6.71485C27.7625 6.70523 27.7555 6.69562 27.7483 6.68571C27.6148 6.5047 27.4671 6.3376 27.2909 6.19727C27.2836 6.19108 27.2762 6.18489 27.2686 6.1785C26.9557 5.91832 26.5657 5.75347 26.1679 5.67969C26.1594 5.6781 26.1509 5.6765 26.1421 5.67485C25.8774 5.62778 25.5822 5.62927 25.3183 5.67969Z" fill="black"/>
</svg>
