<svg width="40" height="40" viewBox="0 0 40 40" fill="none" xmlns="http://www.w3.org/2000/svg">
<path d="M4.79312 -0.00135283C4.81488 -0.00136498 4.83663 -0.0013814 4.85839 -0.00140168C4.91831 -0.00144512 4.97822 -0.00142778 5.03814 -0.00140069C5.09676 -0.00138386 5.15538 -0.00141323 5.214 -0.0014411C5.33583 -0.00149736 5.45766 -0.00150726 5.57949 -0.00149218C5.70361 -0.001477 5.82774 -0.00148321 5.95186 -0.00151504C5.95973 -0.00151705 5.96761 -0.00151905 5.97572 -0.00152112C6.01591 -0.00153145 6.0561 -0.0015421 6.09629 -0.00155287C6.38987 -0.00163074 6.68344 -0.00166 6.97702 -0.00166465C7.27463 -0.00166948 7.57224 -0.00169531 7.86985 -0.00174675C7.88882 -0.00175001 7.90779 -0.00175327 7.92676 -0.00175652C8.00326 -0.00176969 8.07975 -0.001783 8.15624 -0.00179648C8.99769 -0.0019446 9.83914 -0.00201077 10.6806 -0.00205451C10.6912 -0.00205506 10.7019 -0.00205562 10.7128 -0.00205619C10.7667 -0.00205899 10.8205 -0.00206177 10.8744 -0.00206453C11.3255 -0.00208773 11.7765 -0.00212395 12.2276 -0.00216255C12.4437 -0.00218103 12.6597 -0.00219889 12.8758 -0.00221659C12.8865 -0.00221747 12.8972 -0.00221835 12.9083 -0.00221926C13.4254 -0.00226161 13.9426 -0.00229997 14.4597 -0.00233378C14.4707 -0.00233451 14.4818 -0.00233523 14.4931 -0.00233597C15.1961 -0.00238182 15.8992 -0.00240939 16.6022 -0.00242545C16.6598 -0.00242678 16.7175 -0.00242813 16.7751 -0.00242949C16.8675 -0.00243166 16.9599 -0.00243382 17.0523 -0.00243597C17.0638 -0.00243624 17.0752 -0.00243651 17.087 -0.00243678C17.1102 -0.00243732 17.1333 -0.00243786 17.1565 -0.00243839C17.3188 -0.00244217 17.4812 -0.00244596 17.6435 -0.00244981C17.7016 -0.00245119 17.7597 -0.00245256 17.8178 -0.0024539C18.9148 -0.00247933 20.0119 -0.00253137 21.1089 -0.00268713C21.1262 -0.00268959 21.1262 -0.00268959 21.1439 -0.00269209C21.5047 -0.00274337 21.8655 -0.00279781 22.2263 -0.00285283C22.5965 -0.00290928 22.9667 -0.00296525 23.3369 -0.00301842C23.3483 -0.00302006 23.3597 -0.0030217 23.3714 -0.00302338C24.0854 -0.00312587 24.7994 -0.00319287 25.5134 -0.00322219C25.5244 -0.00322265 25.5354 -0.00322311 25.5468 -0.00322358C26.0312 -0.0032436 26.5156 -0.00325575 27 -0.00325918C27.1949 -0.00326058 27.3897 -0.00326291 27.5846 -0.00326567C27.6169 -0.00326611 27.6492 -0.00326652 27.6815 -0.00326692C28.1756 -0.00327323 28.6698 -0.00330208 29.1639 -0.00339837C29.1745 -0.00340044 29.1852 -0.00340252 29.1961 -0.00340465C29.3675 -0.00343814 29.5388 -0.00347342 29.7102 -0.00350892C30.1967 -0.00360966 30.6833 -0.00369538 31.1698 -0.00367645C31.1797 -0.00367607 31.1896 -0.00367569 31.1998 -0.0036753C31.4153 -0.00366674 31.6308 -0.00365002 31.8464 -0.00362531C31.9324 -0.00361557 32.0183 -0.00360691 32.1043 -0.00359859C32.1137 -0.00359766 32.123 -0.00359672 32.1327 -0.00359576C32.4298 -0.0035666 32.727 -0.00362733 33.0241 -0.00374038C33.3168 -0.00385138 33.6096 -0.003873 33.9023 -0.00376572C33.9425 -0.00375101 33.9826 -0.00373733 34.0228 -0.00372425C34.0346 -0.00372036 34.0346 -0.00372036 34.0466 -0.00371638C34.1702 -0.00367821 34.2938 -0.0037373 34.4173 -0.0038389C34.5385 -0.00393649 34.6596 -0.00392871 34.7808 -0.00381106C34.8452 -0.00375133 34.9095 -0.00373879 34.9739 -0.00385681C35.292 -0.00440199 35.6056 0.000189022 35.9197 0.0560461C35.9304 0.0578959 35.9304 0.0578959 35.9414 0.059783C36.7669 0.202491 37.5872 0.555226 38.2236 1.10837C38.2497 1.1308 38.2762 1.15225 38.3031 1.1736C38.4167 1.26633 38.5204 1.37114 38.6242 1.4745C38.6318 1.48209 38.6394 1.48967 38.6473 1.49748C38.6933 1.54359 38.7368 1.59113 38.7792 1.64052C38.7892 1.65181 38.7992 1.66309 38.8092 1.67436C38.8883 1.76401 38.9619 1.85696 39.0331 1.95302C39.0384 1.96021 39.0438 1.9674 39.0493 1.97482C39.1262 2.07885 39.199 2.18505 39.2675 2.29482C39.2731 2.30373 39.2731 2.30373 39.2787 2.31282C39.6818 2.96087 39.9213 3.69427 39.9901 4.45302C39.991 4.46159 39.9919 4.47017 39.9927 4.479C40.0022 4.58363 40.0013 4.68815 40.0011 4.79313C40.0012 4.81488 40.0012 4.83664 40.0012 4.8584C40.0012 4.91832 40.0012 4.97824 40.0012 5.03816C40.0012 5.09678 40.0012 5.15541 40.0012 5.21403C40.0013 5.33586 40.0013 5.4577 40.0013 5.57953C40.0013 5.70367 40.0013 5.8278 40.0013 5.95193C40.0013 5.96374 40.0013 5.96374 40.0013 5.97578C40.0013 6.01598 40.0013 6.05617 40.0013 6.09637C40.0014 6.38996 40.0015 6.68355 40.0015 6.97715C40.0015 7.27477 40.0015 7.57239 40.0015 7.87002C40.0015 7.88899 40.0016 7.90796 40.0016 7.92694C40.0016 8.00343 40.0016 8.07993 40.0016 8.15643C40.0017 8.99792 40.0018 9.83941 40.0018 10.6809C40.0018 10.6915 40.0018 10.7022 40.0018 10.7132C40.0019 10.767 40.0019 10.8208 40.0019 10.8747C40.0019 11.3258 40.0019 11.7769 40.002 12.228C40.002 12.4441 40.002 12.6601 40.002 12.8761C40.002 12.8869 40.002 12.8976 40.002 12.9087C40.0021 13.4258 40.0021 13.943 40.0021 14.4601C40.0021 14.4712 40.0021 14.4822 40.0021 14.4936C40.0022 15.1966 40.0022 15.8996 40.0022 16.6027C40.0022 16.6603 40.0022 16.718 40.0022 16.7756C40.0022 16.868 40.0022 16.9604 40.0022 17.0529C40.0022 17.0643 40.0022 17.0758 40.0022 17.0876C40.0022 17.1107 40.0022 17.1338 40.0022 17.157C40.0022 17.3193 40.0022 17.4817 40.0022 17.644C40.0022 17.7021 40.0022 17.7602 40.0022 17.8183C40.0023 18.9154 40.0023 20.0125 40.0025 21.1096C40.0025 21.1211 40.0025 21.1327 40.0025 21.1446C40.0025 21.5054 40.0026 21.8662 40.0027 22.227C40.0027 22.5972 40.0028 22.9675 40.0028 23.3377C40.0028 23.3491 40.0028 23.3605 40.0028 23.3722C40.0029 24.0862 40.003 24.8003 40.003 25.5143C40.003 25.5253 40.003 25.5363 40.003 25.5477C40.003 26.0321 40.0031 26.5165 40.0031 27.0009C40.0031 27.1958 40.0031 27.3906 40.0031 27.5855C40.0031 27.6178 40.0031 27.6501 40.0031 27.6825C40.0031 28.1766 40.0031 28.6707 40.0032 29.1648C40.0032 29.1808 40.0032 29.1808 40.0032 29.1971C40.0032 29.3685 40.0033 29.5398 40.0033 29.7112C40.0034 30.1978 40.0035 30.6844 40.0035 31.1709C40.0035 31.1858 40.0035 31.1858 40.0035 31.2009C40.0035 31.4164 40.0034 31.6319 40.0034 31.8475C40.0034 31.9335 40.0034 32.0194 40.0034 32.1054C40.0034 32.1148 40.0034 32.1241 40.0034 32.1338C40.0034 32.431 40.0034 32.7281 40.0035 33.0253C40.0036 33.318 40.0037 33.6107 40.0036 33.9035C40.0035 33.9437 40.0035 33.9838 40.0035 34.024C40.0035 34.0318 40.0035 34.0397 40.0035 34.0478C40.0035 34.1714 40.0035 34.295 40.0036 34.4185C40.0037 34.5397 40.0037 34.6608 40.0036 34.782C40.0035 34.8464 40.0035 34.9108 40.0037 34.9752C40.0041 35.2291 40.0034 35.4802 39.9706 35.7323C39.9694 35.7418 39.9681 35.7513 39.9669 35.7612C39.9599 35.8132 39.952 35.8649 39.9431 35.9166C39.9413 35.9278 39.9413 35.9278 39.9394 35.9392C39.8194 36.6557 39.5343 37.3483 39.1112 37.9393C39.1059 37.9468 39.1005 37.9543 39.095 37.962C39.0303 38.052 38.9641 38.1399 38.8914 38.2236C38.869 38.2496 38.8476 38.2762 38.8262 38.3031C38.7335 38.4167 38.6287 38.5204 38.5253 38.6242C38.5177 38.6318 38.5101 38.6394 38.5023 38.6473C38.4562 38.6933 38.4087 38.7368 38.3593 38.7792C38.348 38.7892 38.3367 38.7992 38.3254 38.8092C38.2358 38.8883 38.1428 38.9619 38.0468 39.0331C38.0396 39.0384 38.0324 39.0438 38.025 39.0493C37.3702 39.5336 36.5973 39.8531 35.7897 39.9627C35.773 39.9649 35.773 39.9649 35.7559 39.9672C35.5688 39.9913 35.3831 40.0028 35.1945 40.0023C35.1727 40.0024 35.1508 40.0024 35.1289 40.0024C35.0691 40.0025 35.0093 40.0025 34.9494 40.0024C34.8908 40.0024 34.8321 40.0024 34.7735 40.0025C34.6517 40.0025 34.5299 40.0025 34.4081 40.0025C34.2841 40.0024 34.1601 40.0024 34.0361 40.0025C34.0282 40.0025 34.0203 40.0025 34.0122 40.0025C33.9719 40.0025 33.9317 40.0025 33.8915 40.0025C33.598 40.0026 33.3045 40.0026 33.011 40.0026C32.7136 40.0026 32.4162 40.0026 32.1187 40.0026C32.1093 40.0026 32.1 40.0026 32.0903 40.0026C32.0043 40.0027 31.9183 40.0027 31.8323 40.0027C31.6166 40.0027 31.401 40.0028 31.1853 40.0028C31.1705 40.0028 31.1705 40.0028 31.1553 40.0028C30.6683 40.0029 30.1813 40.0029 29.6942 40.0029C29.6784 40.0029 29.6784 40.0029 29.6622 40.0029C29.6195 40.0028 29.5768 40.0028 29.534 40.0028C29.416 40.0028 29.2979 40.0028 29.1799 40.0028C29.1692 40.0028 29.1586 40.0028 29.1476 40.0028C28.6644 40.0028 28.1812 40.0028 27.698 40.0029C27.6333 40.0029 27.5687 40.0029 27.5041 40.0029C27.4934 40.0029 27.4827 40.0029 27.4717 40.0029C27.4501 40.0029 27.4285 40.0029 27.4069 40.0029C27.3528 40.0029 27.2987 40.0029 27.2446 40.0029C27.2338 40.0029 27.2231 40.0029 27.2121 40.0029C27.1578 40.0029 27.1036 40.0029 27.0493 40.0029C26.5431 40.003 26.037 40.003 25.5308 40.003C25.5197 40.003 25.5087 40.003 25.4973 40.003C24.7946 40.003 24.0918 40.003 23.3891 40.003C23.3545 40.003 23.32 40.003 23.2854 40.003C23.0311 40.003 22.7767 40.003 22.5224 40.003C22.4992 40.003 22.476 40.003 22.4528 40.003C22.4296 40.003 22.4064 40.003 22.3832 40.003C22.3717 40.003 22.3602 40.003 22.3483 40.003C22.2903 40.003 22.2322 40.003 22.1742 40.003C21.0776 40.0029 19.9811 40.0029 18.8845 40.003C18.873 40.003 18.8614 40.003 18.8495 40.003C18.5004 40.0031 18.1513 40.0031 17.8022 40.0032C17.4205 40.0032 17.0388 40.0033 16.6571 40.0033C16.6457 40.0033 16.6343 40.0033 16.6225 40.0033C15.9087 40.0034 15.1949 40.0034 14.4811 40.0035C14.47 40.0035 14.459 40.0035 14.4477 40.0035C13.9634 40.0035 13.4792 40.0035 12.9949 40.0034C12.8109 40.0034 12.6268 40.0034 12.4428 40.0034C12.3997 40.0034 12.3566 40.0034 12.3136 40.0034C11.8196 40.0034 11.3257 40.0034 10.8317 40.0035C10.8211 40.0035 10.8104 40.0035 10.7995 40.0035C10.6282 40.0035 10.4569 40.0036 10.2856 40.0036C9.79928 40.0037 9.31293 40.0037 8.82659 40.0037C8.81671 40.0037 8.80684 40.0037 8.79667 40.0037C8.58124 40.0037 8.36582 40.0036 8.15039 40.0036C8.06447 40.0036 7.97855 40.0036 7.89262 40.0036C7.87856 40.0036 7.87856 40.0036 7.86422 40.0036C7.56723 40.0035 7.27023 40.0036 6.97324 40.0037C6.68065 40.0038 6.38807 40.0038 6.09548 40.0036C6.05534 40.0036 6.0152 40.0036 5.97506 40.0036C5.9672 40.0036 5.95934 40.0036 5.95124 40.0036C5.82773 40.0035 5.70422 40.0036 5.58071 40.0037C5.45963 40.0038 5.33855 40.0038 5.21748 40.0036C5.15311 40.0036 5.08876 40.0036 5.02439 40.0037C4.77058 40.0041 4.51953 40.0034 4.26748 39.9706C4.25796 39.9694 4.24844 39.9681 4.23864 39.9668C4.18662 39.9599 4.13487 39.952 4.08315 39.9431C4.07196 39.9413 4.07196 39.9413 4.06054 39.9393C3.34408 39.8192 2.65152 39.5343 2.06045 39.1112C2.04923 39.1032 2.04923 39.1032 2.03778 39.095C1.94778 39.0303 1.85988 38.9641 1.77618 38.8914C1.75015 38.869 1.72359 38.8475 1.69668 38.8262C1.5831 38.7335 1.47943 38.6287 1.37563 38.5253C1.36801 38.5177 1.36038 38.5101 1.35252 38.5023C1.30654 38.4562 1.26302 38.4087 1.2206 38.3593C1.21063 38.348 1.20063 38.3367 1.19062 38.3254C1.1115 38.2358 1.03788 38.1428 0.966699 38.0468C0.961358 38.0396 0.956017 38.0324 0.950515 38.025C0.415189 37.3012 0.0908939 36.4423 0.00966729 35.5468C0.00837523 35.5339 0.00837537 35.5339 0.0070572 35.5208C-0.00244193 35.4162 -0.00145982 35.3116 -0.00134497 35.2067C-0.00135711 35.1849 -0.00137326 35.1631 -0.00139354 35.1414C-0.00143698 35.0815 -0.00141974 35.0216 -0.00139265 34.9616C-0.00137581 34.903 -0.00140531 34.8444 -0.00143318 34.7858C-0.00148944 34.6639 -0.00149923 34.5421 -0.00148414 34.4203C-0.00146896 34.2961 -0.00147525 34.172 -0.00150709 34.0479C-0.00150909 34.04 -0.00151098 34.0321 -0.00151305 34.024C-0.00152338 33.9838 -0.00153417 33.9436 -0.00154494 33.9034C-0.00162281 33.6098 -0.00165205 33.3162 -0.0016567 33.0226C-0.00166153 32.725 -0.00168721 32.4274 -0.00173865 32.1298C-0.00174191 32.1108 -0.00174523 32.0918 -0.00174849 32.0729C-0.00176165 31.9964 -0.00177494 31.9199 -0.00178842 31.8434C-0.00193654 31.0019 -0.00200277 30.1604 -0.00204651 29.3189C-0.00204707 29.3082 -0.00204773 29.2976 -0.0020483 29.2866C-0.0020511 29.2328 -0.00205389 29.179 -0.00205664 29.1251C-0.00207984 28.674 -0.0021161 28.2229 -0.00215469 27.7718C-0.00217318 27.5557 -0.00219093 27.3397 -0.00220864 27.1236C-0.00220952 27.1129 -0.00221041 27.1022 -0.00221132 27.0911C-0.00225366 26.5739 -0.00229195 26.0568 -0.00232576 25.5397C-0.00232648 25.5286 -0.0023271 25.5176 -0.00232785 25.5062C-0.0023737 24.8032 -0.00240149 24.1001 -0.00241755 23.3971C-0.00241887 23.3395 -0.00242007 23.2818 -0.00242143 23.2242C-0.0024236 23.1318 -0.00242583 23.0393 -0.00242798 22.9469C-0.00242825 22.9355 -0.0024286 22.924 -0.00242888 22.9122C-0.00242941 22.8891 -0.00242983 22.8659 -0.00243037 22.8428C-0.00243414 22.6805 -0.00243784 22.5181 -0.00244169 22.3558C-0.00244307 22.2977 -0.00244452 22.2396 -0.00244586 22.1815C-0.00247129 21.0844 -0.00252346 19.9873 -0.00267922 18.8902C-0.00268085 18.8787 -0.0026823 18.8671 -0.00268398 18.8552C-0.00273526 18.4944 -0.00278989 18.1336 -0.00284492 17.7728C-0.00290137 17.4026 -0.00295715 17.0323 -0.00301032 16.6621C-0.00301196 16.6507 -0.0030137 16.6393 -0.00301539 16.6276C-0.00311787 15.9135 -0.00318484 15.1995 -0.00321417 14.4855C-0.00321462 14.4745 -0.00321519 14.4635 -0.00321566 14.4521C-0.00323568 13.9677 -0.00324769 13.4833 -0.00325112 12.9989C-0.00325252 12.804 -0.00325492 12.6091 -0.00325768 12.4143C-0.00325812 12.382 -0.00325847 12.3496 -0.00325887 12.3173C-0.00326518 11.8232 -0.00329401 11.3291 -0.0033903 10.8349C-0.00339237 10.8243 -0.00339442 10.8136 -0.00339656 10.8027C-0.00343004 10.6313 -0.00346537 10.4599 -0.00350087 10.2886C-0.00360161 9.802 -0.00368729 9.31542 -0.00366835 8.82884C-0.00366779 8.81403 -0.00366774 8.81403 -0.00366716 8.79891C-0.0036586 8.58338 -0.00364211 8.36784 -0.00361739 8.15231C-0.00360766 8.06634 -0.00359889 7.98037 -0.00359057 7.8944C-0.00358917 7.88033 -0.00358932 7.88033 -0.00358789 7.86598C-0.00355873 7.56883 -0.00361939 7.27168 -0.00373243 6.97453C-0.00384342 6.68179 -0.00386505 6.38904 -0.00375776 6.0963C-0.00374305 6.05614 -0.00372941 6.01597 -0.00371634 5.97581C-0.00371244 5.96401 -0.00371227 5.96401 -0.00370829 5.95198C-0.00367011 5.8284 -0.0037292 5.70482 -0.00383078 5.58124C-0.00392834 5.46009 -0.00392075 5.33895 -0.00380306 5.21781C-0.00374331 5.15341 -0.003731 5.08901 -0.00384896 5.02462C-0.00428437 4.77061 -0.00303841 4.51975 0.0291985 4.26747C0.0302683 4.2588 0.0313382 4.25012 0.0324404 4.24119C0.0378543 4.1975 0.0440507 4.15405 0.0511712 4.11061C0.0542337 4.09159 0.0542337 4.09159 0.0573582 4.07219C0.215102 3.11483 0.670419 2.21601 1.4623 1.38783C1.47097 1.37912 1.47964 1.37041 1.48857 1.36143C1.53766 1.31246 1.58784 1.26566 1.64053 1.2206C1.65182 1.21062 1.6631 1.20063 1.67436 1.19061C1.76402 1.11149 1.85697 1.03787 1.95303 0.966691C1.96022 0.96135 1.96741 0.956009 1.97482 0.950507C2.70019 0.414 3.55658 0.0941508 4.45303 0.00965938C4.46152 0.00879801 4.47001 0.00793663 4.47877 0.00704916C4.58348 -0.00242745 4.68807 -0.00146778 4.79312 -0.00135283ZM17.9198 6.71864C17.9039 6.75047 17.9051 6.78597 17.9023 6.82103C17.9008 6.83862 17.8993 6.8562 17.8978 6.87378C17.8966 6.88777 17.8966 6.88777 17.8954 6.90203C17.8326 7.64251 17.6826 8.36619 17.4511 9.07216C17.4471 9.08433 17.4431 9.09651 17.439 9.10905C17.2579 9.66006 17.0124 10.1971 16.7154 10.6951C16.6999 10.7212 16.6846 10.7473 16.6693 10.7734C16.5341 11.0028 16.3827 11.2242 16.2206 11.4354C16.2132 11.4453 16.2057 11.4551 16.198 11.4652C16.0761 11.6256 15.9473 11.7807 15.8119 11.9299C15.7973 11.9459 15.7828 11.9621 15.7684 11.9783C15.7303 12.021 15.6918 12.0624 15.651 12.1024C15.6338 12.12 15.6177 12.1382 15.6017 12.1569C15.5458 12.2215 15.485 12.2801 15.4201 12.3357C15.398 12.3555 15.3772 12.3762 15.3563 12.3974C15.3172 12.4369 15.2765 12.4735 15.2343 12.5097C15.2237 12.5189 15.2132 12.5281 15.2027 12.5373C15.0676 12.6554 14.9301 12.7694 14.7856 12.8756C14.7654 12.8906 14.7454 12.9058 14.7255 12.921C14.5184 13.0778 14.2975 13.2203 14.0722 13.3495C14.0631 13.3547 14.054 13.36 14.0446 13.3654C13.4834 13.6867 12.8914 13.9357 12.2694 14.1125C12.2572 14.116 12.2572 14.116 12.2447 14.1196C12.2296 14.1238 12.2144 14.1281 12.1992 14.1323C12.1516 14.1458 12.1072 14.162 12.0604 14.1796C12.0604 15.5814 12.0604 16.9833 12.0604 18.4276C13.2593 18.4276 14.4581 18.4276 15.6933 18.4276C15.6929 19.3189 15.6929 19.3189 15.6926 20.2282C15.6925 20.5819 15.6924 20.9356 15.6923 21.2893C15.6923 21.4968 15.6922 21.7043 15.6922 21.9118C15.6922 21.9369 15.6922 21.962 15.6922 21.9871C15.6921 22.3866 15.692 22.7861 15.6918 23.1856C15.6916 23.5964 15.6915 24.0073 15.6914 24.4182C15.6914 24.4763 15.6914 24.5344 15.6914 24.5926C15.6914 24.604 15.6914 24.6155 15.6914 24.6273C15.6914 24.8108 15.6913 24.9944 15.6912 25.178C15.6911 25.3629 15.691 25.5478 15.691 25.7328C15.6911 25.8424 15.691 25.952 15.6909 26.0616C15.6908 26.1352 15.6908 26.2087 15.6909 26.2823C15.6909 26.324 15.6909 26.3657 15.6908 26.4074C15.6902 26.7058 15.7018 27.0037 15.7299 27.3009C15.7307 27.3096 15.7315 27.3183 15.7323 27.3273C15.8074 28.1281 15.9778 28.9225 17.0312 30.9374C17.04 30.949 17.0489 30.9605 17.0577 30.9721C17.1517 31.094 17.2533 31.2093 17.3582 31.3218C17.3745 31.3395 17.3908 31.3572 17.4071 31.375C17.4845 31.459 17.5647 31.5387 17.6493 31.6156C17.6647 31.6296 17.68 31.6437 17.6952 31.6579C17.7552 31.7132 17.817 31.7655 17.8808 31.8163C17.8859 31.8204 17.891 31.8245 17.8963 31.8287C17.9305 31.856 17.965 31.883 17.9996 31.9098C18.0112 31.9189 18.0229 31.928 18.0346 31.9371C18.2017 32.0675 18.3809 32.1881 18.5649 32.2937C18.5872 32.3065 18.6095 32.3194 18.6317 32.3324C18.6839 32.3626 18.7363 32.3923 18.789 32.4218C18.7963 32.4259 18.8035 32.4299 18.8111 32.4342C19.467 32.7988 20.2162 33.0157 22.384 33.2767C22.3932 33.2769 22.4024 33.2771 22.4119 33.2773C22.6226 33.282 22.8333 33.2825 23.0441 33.2823C23.0993 33.2822 23.1545 33.2822 23.2098 33.2823C23.3162 33.2823 23.4227 33.2822 23.5292 33.2822C23.6527 33.2821 23.7763 33.2821 23.8999 33.2821C24.225 33.282 24.5502 33.2819 24.8754 33.2818C25.6029 33.2816 26.3304 33.2814 27.08 33.2811C27.08 31.557 27.08 29.8329 27.08 28.0565C26.2194 28.0545 26.2194 28.0545 25.3589 28.0527C25.1917 28.0523 25.1917 28.0523 25.1131 28.052C25.0588 28.0518 25.0045 28.0517 24.9502 28.0517C24.8872 28.0516 24.8243 28.0515 24.7614 28.0512C24.7293 28.0511 24.6973 28.051 24.6652 28.051C23.9596 28.0514 23.2314 27.8924 22.7135 27.3845C22.6113 27.2817 22.5281 27.1633 22.4511 27.0409C22.4445 27.0304 22.4379 27.02 22.431 27.0092C22.1972 26.6193 22.1006 26.1423 22.0702 25.6933C22.0694 25.6823 22.0686 25.6713 22.0678 25.66C22.0585 25.5228 22.0589 25.3857 22.0589 25.2483C22.0589 25.2118 22.0588 25.1754 22.0588 25.139C22.0587 25.0753 22.0586 25.0116 22.0585 24.9479C22.0585 24.8532 22.0583 24.7586 22.0582 24.6639C22.058 24.5045 22.0578 24.3452 22.0576 24.1859C22.0574 24.0282 22.0573 23.8705 22.0571 23.7129C22.057 23.703 22.057 23.6932 22.057 23.6831C22.057 23.6333 22.0569 23.5834 22.0568 23.5335C22.0564 23.1807 22.0559 22.8279 22.0555 22.4751C22.0552 22.1324 22.0547 21.7898 22.0543 21.4471C22.0543 21.4255 22.0543 21.404 22.0542 21.3824C22.054 21.2072 22.0538 21.032 22.0536 20.8568C22.0525 20.047 22.0516 19.2373 22.0507 18.4276C23.6459 18.4276 25.2411 18.4276 26.8847 18.4276C26.8847 16.797 26.8847 15.1663 26.8847 13.4862C25.2895 13.4862 23.6942 13.4862 22.0507 13.4862C22.0507 11.2529 22.0507 9.01962 22.0507 6.71864C20.6875 6.71864 19.3243 6.71864 17.9198 6.71864Z" fill="black"/>
</svg>
