<svg width="40" height="41" viewBox="0 0 40 41" fill="none" xmlns="http://www.w3.org/2000/svg">
<g clip-path="url(#clip0_164_8)">
<path d="M7.3696 0.0159912C3.2992 0.0159912 0 3.33119 0 7.42079V32.6112C0 36.7008 3.3 40.016 7.3704 40.016H32.6296C36.7 40.016 40 36.7008 40 32.6112V7.42079C40 3.33119 36.7 0.0159912 32.6296 0.0159912H7.3696Z" fill="black"/>
<path d="M28.7726 24.3136C26.2838 24.3136 24.6374 22.3928 24.1766 21.6456C24.7654 16.9248 26.491 15.4368 28.7726 15.4368C31.027 15.4368 32.783 17.2392 32.783 19.8752C32.783 22.5112 31.027 24.3136 28.7726 24.3136ZM28.7726 12.5392C24.7158 12.5392 22.4422 15.1848 21.7926 17.9088C21.0534 16.5216 20.5094 14.6656 20.0806 12.9408H14.4734V19.92C14.4734 22.456 13.323 24.3256 11.0662 24.3256C8.80939 24.3256 7.51659 22.456 7.51659 19.9208L7.54059 12.9408H4.30859V19.92C4.30859 21.9576 4.96939 23.8048 6.16939 25.1232C7.40779 26.4816 9.10059 27.1992 11.0646 27.1992C14.967 27.1992 17.6894 24.2064 17.6894 19.9224V15.2328C18.1006 16.776 19.0654 19.744 20.9222 22.3464L19.1878 32.2216H22.4742L23.619 25.22C23.995 25.5312 24.3934 25.8128 24.811 26.064C25.9065 26.7602 27.1688 27.1495 28.4662 27.1912H28.4726C28.5694 27.1912 28.6678 27.1968 28.7678 27.1968C32.791 27.1968 35.995 24.0816 35.995 19.8824C35.9958 15.6808 32.795 12.5392 28.7726 12.5392Z" fill="white"/>
</g>
<defs>
<clipPath id="clip0_164_8">
<rect width="40" height="40.032" fill="white"/>
</clipPath>
</defs>
</svg>