<svg width="180" height="120" viewBox="0 0 180 120" fill="none" xmlns="http://www.w3.org/2000/svg">
<path d="M17.7197 38.101C16.1464 38.3472 14.5468 38.7659 13.2812 39.3076C10.9697 40.2925 10.9345 40.4156 13.0439 40.2925C14.7578 40.194 18.6337 40.391 18.5722 40.5634C18.5546 40.6126 17.8691 40.9327 17.0517 41.2775C12.5166 43.1489 10.7324 44.4047 8.74606 47.2118C7.55074 48.8616 6.44332 51.4717 6.08297 53.417C5.91598 54.3527 5.95992 54.3773 6.60153 53.811C7.3486 53.1708 8.88668 52.9245 10.2754 53.22C12.7363 53.7371 14.3359 55.3869 14.9951 58.1448C15.3818 59.7207 15.3203 59.7207 16.1728 58.1202C16.9814 56.6181 18.3437 54.599 19.4775 53.22C19.8379 52.7768 20.3652 52.112 20.6377 51.7426C21.5341 50.5114 21.2617 51.3732 20.1982 53.1215C19.6357 54.0572 18.7744 55.5347 18.291 56.4457C17.3769 58.1202 15.5488 61.8384 15.6279 61.8384C15.6543 61.8384 15.9355 61.5675 16.2431 61.2474C17.0517 60.3856 18.3613 59.4498 19.3632 58.982C20.4179 58.5141 25.1025 58.1694 25.1025 58.588C25.1025 58.7358 24.8037 58.9081 24.4257 58.982C22.4658 59.4252 20.9629 59.9669 19.6972 60.7549C18.9238 61.2474 18.2822 61.666 18.2646 61.6906C18.2558 61.7399 18.7656 61.8384 19.4072 61.9122C22.4921 62.3308 24.6718 63.7344 25.4892 65.852C25.8056 66.6646 25.9375 66.6646 26.6933 65.9013C27.5371 65.0641 28.7675 64.3992 30.3759 63.9068C31.7119 63.5128 32.8808 63.5374 35.0605 63.9806L35.8252 64.1284V60.1886L34.9287 60.0408C32.5029 59.6468 28.5302 56.0271 27.4492 53.2446C26.9921 52.0627 26.7461 50.7823 26.8164 49.9697C26.8867 49.2802 27.4668 47.9998 28.038 47.2857C29.1367 45.9314 32.3183 46.6455 32.8281 48.3691C32.9687 48.8616 32.872 49.3048 32.4414 50.0682C32.1425 50.6099 32.1162 50.6345 33.54 49.5265C34.999 48.3938 35.4736 47.4827 35.4736 45.8329C35.4736 45.0695 35.4121 44.7002 35.1923 44.1092C34.1464 41.2529 30.9824 39.4061 25.5859 38.4457C24.1181 38.1749 18.7041 37.9533 17.7197 38.101Z" fill="black"/>
<path d="M156.851 38.1009C149.6 38.9135 145.864 40.7849 144.616 44.2076C144.089 45.6358 144.212 46.867 145.003 48.2459C145.258 48.6892 146.603 49.8711 147.402 50.3882C147.648 50.536 147.64 50.4867 147.297 49.8465C146.884 49.1078 146.84 48.8123 147.077 48.2459C147.552 47.064 148.932 46.4238 150.487 46.6454C151.261 46.7439 151.454 46.867 151.938 47.5319C153.212 49.3048 153.335 50.4375 152.526 52.8014C151.656 55.3622 148.923 58.2925 146.172 59.6221C145.293 60.0407 144.774 60.1146 143.061 60.09L141.013 60.0654L140.213 61.986L139.422 63.8821L140.292 64.5962C141.355 65.458 141.452 65.458 142.612 64.8178C143.72 64.2022 144.906 63.8821 146.743 63.6604C148.861 63.4142 151.656 64.3992 153.15 65.9012C153.871 66.6399 154.064 66.6646 154.275 66.0736C154.987 64.0544 156.534 62.8232 159.355 62.0845C159.892 61.9614 160.595 61.8383 160.929 61.8383C161.263 61.8383 161.518 61.789 161.5 61.7398C161.482 61.6905 160.832 61.2473 160.059 60.7548C158.793 59.9669 157.29 59.4252 155.339 58.9819C154.952 58.9081 154.653 58.7357 154.653 58.5879C154.653 58.1693 159.338 58.5141 160.393 58.9819C161.395 59.4498 162.704 60.3855 163.513 61.2473C163.82 61.5674 164.102 61.8383 164.128 61.8383C164.207 61.8383 162.379 58.1201 161.465 56.4457C160.981 55.5346 160.12 54.0572 159.558 53.1215C158.521 51.4224 158.213 50.5113 159.065 51.6687C159.312 51.9888 159.918 52.7767 160.401 53.3677C161.649 54.919 162.81 56.6673 163.671 58.2925C164.479 59.8191 164.436 59.8191 164.849 58.0708C165.147 56.7904 165.982 55.313 166.817 54.5743C168.013 53.4908 168.962 53.1461 170.737 53.1707C172.108 53.1707 172.469 53.2446 173.058 53.6878C173.444 53.9833 173.77 54.2049 173.787 54.2049C173.884 54.2049 173.471 52.4812 173.119 51.4224C171.739 47.2856 168.971 44.0845 165.244 42.3609C164.664 42.09 163.521 41.5975 162.704 41.2774C161.887 40.9327 161.201 40.6126 161.184 40.5633C161.113 40.3663 165.024 40.194 166.747 40.3417C167.811 40.4156 168.654 40.4156 168.628 40.3417C168.549 40.1201 165.745 38.9135 164.418 38.5442C163.188 38.1994 158.406 37.9286 156.851 38.1009Z" fill="black"/>
<path d="M98.7725 39.4553C98.2188 39.5784 97.4453 39.8739 97.0586 40.1448C96.6631 40.4156 95.9248 40.6865 95.4238 40.785C93.2529 41.1544 91.3721 42.9273 91.3721 44.6263C91.3721 45.0942 91.3896 45.0942 91.75 44.5032C92.2334 43.7152 92.9365 43.2228 94.2725 42.7549C96.1709 42.1147 97.6387 42.3855 99.1855 43.666C99.8096 44.1831 99.8887 44.1831 100.987 43.8876C102.271 43.5675 104.881 42.9519 105.83 42.8042C106.428 42.681 106.419 42.7057 105.522 43.1735C104.433 43.7399 104.248 43.9122 104.556 44.0353C104.679 44.0846 105.426 44.4786 106.226 44.8972C107.676 45.6359 107.676 45.6359 108.977 45.3404C110.515 44.971 111.64 45.1434 113.02 45.956C116.351 47.9013 120.886 51.0285 128.005 56.2734C128.813 56.8643 129.561 57.4061 129.675 57.4799C129.868 57.6031 129.868 57.5784 129.815 56.3472C129.78 55.6332 129.754 55.0422 129.745 55.0176C129.736 54.9929 128.4 54.0819 126.792 52.9984C125.175 51.915 122.187 49.8712 120.156 48.4676C113.6 43.8876 109.231 41.179 106.92 40.2925C104.222 39.2583 101.242 38.9628 98.7725 39.4553Z" fill="black"/>
<path d="M140.986 47.9259C139.396 48.5169 137.058 49.2802 135.801 49.6496C132.303 50.6591 131.257 51.2747 130.773 52.629L130.571 53.1954V66.8124C130.571 81.4389 130.589 82.1037 131.02 83.8766C131.134 84.3445 131.354 84.837 131.494 84.9601C131.96 85.3787 133.393 85.9697 134.878 86.3637C137.339 87.0285 143.438 86.5114 144.528 85.5264C144.722 85.3541 144.467 84.6154 141.812 77.2775C140.204 72.8452 138.877 69.2255 138.859 69.2255C138.851 69.2255 138.824 71.811 138.824 74.9382C138.815 78.0901 138.789 80.9957 138.754 81.4143C138.701 82.1037 138.675 82.153 138.253 82.2269C138.007 82.2761 137.189 82.1284 136.434 81.9314C134.975 81.5374 134.359 81.0449 134.184 80.1092C134.131 79.8137 134.087 78.4102 134.087 76.9327C134.087 72.9437 134.342 68.8561 134.72 66.837C134.878 65.9751 135.669 65.2611 136.645 65.1133L137.488 64.9656L137.734 66.8616C137.919 68.2652 138.016 68.733 138.121 68.6838C138.244 68.6099 138.262 68.1667 138.262 65.8028V63.0203L136.372 63.0449C135.335 63.0695 134.368 62.9957 134.219 62.8725L133.955 62.6509L133.981 58.3664C134.008 54.5497 134.034 54.0326 134.175 53.6879C134.395 53.1708 135.159 52.8014 136.68 52.4813C137.356 52.3336 138.095 52.1612 138.323 52.0873C138.921 51.8903 138.947 52.1119 138.93 57.7015C138.912 61.075 138.938 62.3308 139.009 62.3308C139.396 62.3308 144.194 48.1229 144.194 46.9902C144.194 46.7686 144.291 46.744 140.986 47.9259Z" fill="black"/>
<path d="M60.1972 53.4416C59.9511 53.5401 59.7138 53.6632 59.6874 53.7617C59.6611 53.8356 60.0126 54.328 60.4872 54.8451C61.1816 55.5838 61.3661 55.707 61.498 55.4853C61.5859 55.313 61.8583 55.1899 62.1044 55.1899H62.5439V61.5182C62.5439 69.8656 62.623 74.8397 62.7636 74.9874C62.8251 75.0366 63.6425 74.7658 64.5741 74.3472C65.5146 73.9532 66.3759 73.5838 66.4989 73.5838L66.7187 73.5346L66.745 68.4621L66.7626 63.3896L67.1406 63.1434C67.3427 62.9956 68.995 61.8137 70.8056 60.5086C72.6161 59.2035 75.0331 57.4799 76.1669 56.6673C77.3007 55.8547 78.3114 55.0914 78.4081 54.9682C78.5224 54.7959 78.1708 54.722 77.3271 54.722C76.0966 54.6974 76.0087 54.722 73.9521 56.0763C71.9921 57.3568 68.7577 59.6714 67.3603 60.8287L66.7626 61.3212L66.7538 60.4101C66.745 59.9176 66.7363 58.2432 66.7187 56.7165C66.7099 55.1899 66.6835 53.9094 66.6659 53.8602C66.6132 53.7124 62.3945 53.22 61.4804 53.2446C61.0234 53.2692 60.4521 53.3677 60.1972 53.4416Z" fill="black"/>
<path d="M86.9334 54.9436C84.8065 55.0175 83.0926 55.0914 83.1366 55.1406C83.1717 55.1653 83.8133 55.5839 84.5604 56.0517C85.5799 56.7166 85.9666 56.8643 86.0985 56.6673C86.1952 56.5196 86.9598 56.4211 87.9354 56.4211H89.6141L89.6317 60.9026C89.6493 63.3896 89.6581 67.0586 89.6581 69.1023C89.6581 71.1215 89.6932 72.9437 89.7284 73.0914C89.8426 73.5839 94.4393 73.5346 94.5008 73.0668C94.5272 72.8698 94.5008 72.0818 94.4481 71.2692C94.3954 70.4813 94.3338 68.3144 94.2987 66.4676L94.2459 63.0941L94.492 62.9218C94.8436 62.6755 98.1219 62.9956 98.5086 63.3157C98.7372 63.4881 98.8514 63.759 98.8778 64.1283C98.9041 64.4238 98.9481 66.6153 98.9745 68.9792C99.0096 71.3431 99.0623 73.3623 99.0975 73.4608C99.1239 73.5592 100.653 73.8055 102.49 74.0271C104.327 74.2241 106.076 74.4457 106.375 74.4949C106.682 74.5688 106.946 74.5196 106.973 74.4211C106.99 74.298 106.586 73.707 106.067 73.116C104.819 71.6386 104.775 71.5893 104.617 72.0572C104.538 72.2542 104.327 72.4266 104.116 72.4266C103.65 72.4266 103.633 72.2296 103.562 67.7727C103.527 65.8027 103.466 64.1037 103.413 63.956C103.369 63.8328 103 63.5374 102.604 63.3157L101.875 62.8971L102.358 62.7248C102.622 62.6263 102.991 62.4293 103.176 62.3062L103.501 62.0599V55.7316L103.264 55.4607C103.123 55.313 102.745 55.0914 102.402 54.9436C101.769 54.6974 94.1844 54.6974 86.9334 54.9436ZM98.6932 56.5196C98.8163 56.6919 98.8426 57.0613 98.8426 59.0066C98.8426 60.9519 98.8163 61.3212 98.6932 61.4936C98.4998 61.7152 94.7909 61.9368 94.492 61.7398C94.2723 61.5921 94.2723 61.5428 94.2723 59.0312C94.2723 57.209 94.3075 56.4211 94.3866 56.3226C94.5536 56.1256 98.5174 56.298 98.6932 56.5196Z" fill="black"/>
<path d="M51.5928 58.2432C51.4434 58.4402 51.2939 58.7603 51.2588 59.0066C51.2324 59.2282 51.2061 60.5086 51.2061 61.8629C51.2061 63.8575 51.2324 64.35 51.3467 64.4731C51.4609 64.5962 54.5547 62.4047 55.0293 61.8629C55.1963 61.666 55.1875 61.6413 54.959 61.3212C54.8271 61.1489 54.7305 60.9026 54.748 60.7549C54.8008 60.3116 55.5654 60.0162 56.0225 60.2624L56.4355 60.484L56.4619 62.1584C56.4795 63.0941 56.4443 63.9806 56.4004 64.153C56.3301 64.3746 55.7324 64.5223 54.291 64.6454C52.2607 64.8178 51.8828 64.9409 51.5049 65.655L51.2939 66.0244V71.3185C51.2939 77.2774 51.3027 77.4006 51.9531 77.7453C52.4277 77.9915 53.0078 77.8192 60.8652 75.209C61.1816 75.0859 61.4453 74.8889 61.4541 74.7658C61.4717 74.6181 61.1377 73.8055 60.7158 72.919L59.9512 71.3185V66.8862L60.6104 66.7138C60.9707 66.5907 61.3047 66.4676 61.3574 66.4184C61.4014 66.3691 61.1025 65.8766 60.6807 65.3103L59.9072 64.3007V61.9122C59.9072 59.3021 59.8809 59.1297 59.5557 58.6372C59.0811 57.9231 52.1289 57.603 51.5928 58.2432ZM56.4619 69.5702C56.4795 71.1707 56.4531 71.8356 56.374 71.9833C56.1719 72.3281 54.9326 72.2296 54.8184 71.8356C54.7568 71.614 54.7217 70.8014 54.7393 69.6933C54.7656 68.0435 54.7832 67.8465 54.9854 67.5757C55.1172 67.3787 55.4512 67.2802 55.8203 67.3048L56.4355 67.3787L56.4619 69.5702Z" fill="black"/>
<path d="M121.782 58.6372C120.402 58.7357 118.214 58.8342 116.904 58.8588C115.604 58.8835 114.479 58.9819 114.408 59.1051C114.329 59.2528 114.487 59.5237 114.936 59.9915C115.296 60.3609 115.639 60.8041 115.7 60.9272C115.797 61.1488 115.814 62.5278 115.797 67.8465L115.771 74.5196L119.233 74.6181L119.242 72.2296C119.242 70.9245 119.251 68.0189 119.251 65.7781C119.251 63.562 119.286 61.5428 119.33 61.2966C119.4 60.9272 119.532 60.8534 120.165 60.8534C120.754 60.8534 120.921 60.9272 120.965 61.2227C121.018 61.6906 120.842 70.4813 120.719 73.1406C120.622 75.2583 120.622 75.2583 121.316 75.4799C121.826 75.6523 123.997 76.785 124.182 77.0066C124.261 77.0804 124.287 75.3322 124.287 69.127C124.287 64.7439 124.313 61.0503 124.349 60.9519C124.428 60.7549 125.869 60.6564 125.939 60.8534C125.983 60.9765 125.931 64.0791 125.737 72.5497C125.685 74.8397 125.632 77.0558 125.623 77.4252C125.605 78.1146 125.632 78.1639 126.678 79.1981C127.275 79.7891 127.979 80.5524 128.251 80.8971C128.523 81.2419 128.778 81.5374 128.822 81.5374C128.866 81.5374 128.901 79.075 128.91 76.0462C128.91 72.8452 128.98 68.4867 129.077 65.5319C129.262 59.7699 129.244 59.6222 128.594 58.9327C128.163 58.4895 125.535 58.3664 121.782 58.6372Z" fill="black"/>
<path d="M78.8915 59.2036L78.496 59.4991L78.4696 61.4444C78.452 62.5279 78.4784 63.4882 78.5224 63.6113C78.619 63.8822 82.2313 62.0846 82.2313 61.7891C82.2313 61.7153 82.1522 61.5429 82.0556 61.469C81.5722 61.0504 82.4686 60.4348 83.1542 60.7057L83.5497 60.8781V62.3309C83.5497 63.3897 83.5145 63.7837 83.4091 63.9068C83.33 63.9807 82.3368 64.0545 81.1942 64.0545C79.3837 64.0545 79.0673 64.1038 78.8036 64.4978L78.496 64.9164L78.4696 67.8712C78.4608 69.8904 78.4872 71.0231 78.5663 71.4417C78.7684 72.5744 79.0585 72.6729 82.0995 72.5251C87.452 72.2789 88.4891 72.2296 88.5331 72.1065C88.5595 72.0326 88.2343 71.3432 87.8212 70.6045L87.0653 69.2255V67.625C87.0653 65.8028 87.0565 65.8274 87.9882 65.729L88.5155 65.6551L87.0917 64.0299L86.9335 59.7454L86.6083 59.4499C86.1249 59.0067 79.4188 58.785 78.8915 59.2036ZM83.4091 66.0244C83.62 66.2461 83.6376 66.3938 83.6376 67.6004C83.6376 68.7331 83.6112 69.0039 83.4442 69.2502C83.2157 69.5949 82.1962 69.3979 82.0116 68.9793C81.8534 68.6099 81.8358 66.6893 81.994 66.3199C82.1962 65.8521 83.0751 65.6551 83.4091 66.0244Z" fill="black"/>
<path d="M106.981 59.4006C106.639 59.4991 106.199 59.77 105.988 59.9916L105.602 60.4102L105.628 65.1626C105.654 69.7672 105.663 69.9396 105.856 70.5306C106.138 71.3431 106.797 72.1311 107.57 72.5497C108.563 73.0668 111.376 73.707 112.246 73.6085C113.274 73.4854 113.872 72.7467 114.004 71.4416C114.057 70.9492 114.083 68.3883 114.065 65.4827L114.039 60.3609L113.793 59.9916C113.652 59.7946 113.292 59.5237 112.984 59.4006C112.334 59.1051 107.887 59.1051 106.981 59.4006ZM110.611 61.1981C110.682 61.4197 110.708 62.8233 110.69 65.6797L110.664 69.8411H109.899C109.486 69.8411 109.117 69.7918 109.1 69.718C109.073 69.6441 109.021 67.7973 108.985 65.6058C108.941 62.5278 108.95 61.5182 109.038 61.2228C109.188 60.7303 110.462 60.7057 110.611 61.1981Z" fill="black"/>
<path d="M69.0741 63.8575C68.4764 64.2515 67.993 64.6701 68.0018 64.7686C68.0018 64.8425 69.4784 66.9601 71.2714 69.4718L74.5409 74.0272L76.5887 74.101C77.7313 74.1503 78.6278 74.0764 78.6278 73.9533C78.6278 73.707 74.6288 68.1913 72.3436 65.2857C71.4735 64.1776 70.621 63.2419 70.454 63.1927C70.287 63.1434 69.663 63.4389 69.0741 63.8575Z" fill="black"/>
<path d="M35.8738 77.1625L31.4331 76.6813C33.59 80.2444 39.996 90.4027 40.1143 90.4027C40.2198 90.4027 40.2286 88.8514 40.1758 78.5833C40.1143 67.4287 40.1143 66.7146 40.2637 66.2714C40.5626 65.3357 40.7823 65.6312 42.004 68.7091C43.2257 71.8117 45.5635 78.3617 46.6007 81.6366L47.2247 83.6065L48.5958 82.0552C49.3604 81.1934 50.002 80.3808 50.0372 80.2331C50.0987 79.9622 48.5958 75.8008 46.794 71.3192C45.2383 67.4287 44.4034 65.5327 43.4454 63.7844L42.6719 62.3562L43.0147 62.0853C43.2081 61.9622 44.21 61.322 45.2383 60.731C47.2335 59.5245 49.5186 57.9732 53.3155 55.1907C59.4151 50.7091 61.3487 49.3548 64.2139 47.5573C68.1602 45.0703 68.7667 44.8487 70.8321 45.3411L72.168 45.6366L73.6094 44.8733C74.4005 44.4547 75.1475 44.11 75.2706 44.11C75.7012 44.11 75.3673 43.7898 74.3917 43.2235C73.4425 42.7064 73.4249 42.6818 74.0137 42.8049C74.9893 42.9773 77.5997 43.5682 78.8565 43.8883C79.9552 44.1838 80.0343 44.1838 80.6583 43.6667C82.2052 42.3863 83.585 42.1154 85.5186 42.7556C86.8721 43.1989 87.5928 43.6913 88.1026 44.5039C88.4542 45.0949 88.4718 45.0949 88.4718 44.627C88.4718 42.9526 86.5997 41.2043 84.2003 40.6872C83.629 40.5641 82.8995 40.2686 82.5831 40.0716C81.2735 39.1852 77.7052 38.9636 75.2442 39.5792C71.7462 40.4656 68.4591 42.337 59.8634 48.3452C49.6417 55.4615 44.4473 58.5149 40.7735 59.5244L40.1319 59.6968V50.5121H40.5626C41.046 50.5121 41.0284 50.4136 41.1514 53.6394C41.1954 54.9198 41.2393 55.1907 41.3712 55.1907C41.4591 55.1907 42.9268 53.6886 44.6319 51.8664C46.337 50.0197 48.2178 48.0005 48.8067 47.3603C49.3956 46.7447 49.8614 46.1784 49.8438 46.1291C49.8262 46.0799 49.2637 46.1537 48.5958 46.3015C47.9278 46.4492 45.5635 46.597 43.3399 46.6216C36.3614 46.7201 35.5616 46.7939 35.5616 47.2618C35.5704 47.5327 35.755 47.9266 36.0889 48.3452L36.6075 48.9855L36.6163 63.1688C36.6163 70.9499 36.5899 77.3767 36.5548 77.4259C36.5103 77.4961 36.2335 77.374 35.8738 77.1625Z" fill="black"/>
</svg>