<?xml version="1.0" encoding="UTF-8" standalone="no"?>
<!DOCTYPE svg PUBLIC "-//W3C//DTD SVG 1.1//EN" "http://www.w3.org/Graphics/SVG/1.1/DTD/svg11.dtd">
<svg width="100%" height="100%" viewBox="0 0 180 120" version="1.1" xmlns="http://www.w3.org/2000/svg" xmlns:xlink="http://www.w3.org/1999/xlink" xml:space="preserve" xmlns:serif="http://www.serif.com/" style="fill-rule:evenodd;clip-rule:evenodd;stroke-linejoin:round;stroke-miterlimit:2;">
    <g transform="matrix(0.00918649,1.1971e-37,1.1971e-37,-0.00918649,507.9,492.007)">
        <g transform="matrix(1,0,0,1,-57271.5,39947.4)">
            <path d="M7990,12549C7990,12543 7998,12526 8009,12512C8103,12377 8122,12208 8066,11989C8021,11811 7932,11642 7762,11413C7656,11270 7438,11045 7374,11012C7241,10944 7083,10923 7040,10966C6993,11013 6996,11126 7049,11242C7090,11334 7187,11487 7240,11545C7340,11654 7504,11874 7498,11892C7496,11898 7469,11871 7438,11834C7260,11617 7065,11474 6763,11337C6597,11262 6544,11249 6385,11243C6305,11240 6226,11242 6201,11248C6177,11254 6152,11256 6145,11254C6138,11251 6115,11224 6095,11194C6007,11067 5845,10958 5705,10932C5598,10912 5417,10898 5350,10904C5215,10917 4976,10986 4799,11064C4785,11070 4782,11060 4778,10980C4774,10894 4772,10888 4742,10857C4710,10826 4708,10825 4617,10825C4534,10825 4518,10828 4456,10858C4418,10876 4359,10910 4325,10935C4291,10959 4260,10976 4256,10973C4234,10951 4263,10849 4295,10836C4303,10833 4315,10819 4320,10804C4347,10735 4252,10650 3915,10445C3872,10418 3822,10383 3805,10368L3775,10341L3805,10341C3822,10341 3889,10361 3955,10386C4233,10491 4340,10512 4394,10469C4427,10443 4428,10428 4396,10436C4363,10444 4332,10433 4325,10411C4322,10401 4329,10373 4340,10348C4356,10310 4358,10295 4350,10246C4345,10215 4339,10186 4336,10182C4333,10177 4337,10149 4345,10119C4353,10089 4360,10045 4360,10021C4360,9907 4456,9550 4517,9439C4550,9378 4598,9320 4615,9320C4632,9320 4624,9349 4580,9445C4524,9569 4497,9794 4520,9945C4533,10030 4596,10221 4629,10273C4650,10308 4720,10377 4760,10404C4796,10428 4856,10425 4870,10399C4877,10388 4879,10372 4876,10364C4869,10346 4879,10320 4894,10320C4924,10320 4978,10389 5000,10454C5027,10536 5045,10556 5099,10565C5135,10571 5147,10568 5181,10546C5224,10517 5269,10461 5306,10388C5335,10330 5336,10326 5308,10341C5290,10351 5284,10349 5268,10330C5258,10318 5250,10293 5250,10275C5250,10231 5212,10191 5130,10150C5076,10123 5054,10117 5003,10118C4897,10119 4837,10168 4818,10268C4806,10332 4800,10340 4781,10316C4756,10286 4757,10234 4785,10154C4824,10040 4831,10030 4923,9946C5014,9863 5060,9793 5060,9739C5059,9628 4953,9384 4852,9265C4736,9125 4711,9070 4768,9070C4806,9070 4872,9092 4962,9134C5045,9173 5090,9179 5114,9155C5133,9136 5127,9133 5322,9260L5467,9354L5486,9410C5522,9518 5661,9740 5739,9814C5756,9831 5770,9848 5770,9852C5770,9857 5752,9877 5731,9898L5692,9935L5686,10065C5681,10192 5652,10347 5616,10448C5608,10472 5605,10488 5611,10485C5629,10473 5697,10325 5730,10225C5767,10112 5781,10090 5808,10106C5823,10116 5825,10135 5825,10241C5826,10309 5829,10375 5833,10387C5847,10427 5994,10507 6094,10530C6133,10539 6131,10544 6116,10468C6113,10454 6113,10434 6117,10425C6121,10413 6139,10439 6176,10516C6237,10641 6298,10722 6448,10873C6506,10932 6550,10980 6545,10980C6535,10979 6440,10929 6348,10876C6270,10831 6293,10863 6400,10949C6506,11035 6560,11066 6650,11095C6680,11105 6710,11116 6715,11120C6721,11125 6742,11131 6762,11135L6798,11142L6805,11093C6820,10987 6866,10925 6958,10882C7006,10861 7022,10858 7094,10862C7138,10865 7184,10871 7195,10875C7208,10880 7205,10874 7185,10859C7169,10846 7135,10816 7109,10792C7038,10727 6925,10704 6833,10735C6813,10741 6808,10735 6780,10676C6730,10571 6680,10535 6346,10359C6096,10228 5881,10065 5868,9997C5865,9982 5866,9968 5870,9965C5873,9963 5912,9990 5956,10026C6051,10103 6117,10130 6226,10137C6319,10143 6366,10132 6401,10093C6422,10070 6423,10068 6405,10074C6363,10090 6321,10092 6285,10080C6241,10066 6227,10036 6241,9988C6246,9970 6248,9920 6244,9877L6237,9798L6215,9826C6193,9854 6193,9854 6165,9836C6129,9812 6066,9819 5981,9854C5948,9868 5909,9880 5895,9880L5869,9880L5893,9848C5975,9738 5966,9646 5864,9543C5815,9494 5771,9482 5704,9499C5642,9515 5626,9502 5633,9443C5638,9400 5631,9385 5585,9331C5529,9266 5143,9007 4972,8921C4914,8892 4890,8891 4926,8921C4947,8938 4968,8982 4963,8998C4956,9018 4922,9012 4852,8978C4757,8933 4664,8928 4586,8963C4501,9002 4428,9077 4389,9165C4360,9231 4352,9241 4321,9251C4301,9257 4262,9275 4234,9291C4156,9335 4075,9350 3906,9350C3739,9350 3670,9337 3578,9288C3519,9257 3472,9215 3483,9203C3491,9196 3515,9204 3625,9245C3712,9278 3797,9276 3836,9239C3888,9190 3859,9085 3755,8950C3652,8816 3525,8761 3370,8784C3325,8790 3236,8837 3203,8871C3068,9014 3053,9392 3174,9645C3218,9738 3272,9804 3372,9887C3526,10015 3556,10031 3678,10046C3737,10053 3791,10059 3798,10060C3804,10060 3810,10064 3810,10070C3810,10108 3538,10108 3415,10070C3245,10016 3126,9938 2954,9766C2827,9638 2822,9632 2756,9503C2637,9267 2571,9025 2545,8731C2529,8546 2529,8537 2571,8130C2598,7862 2625,7682 2655,7575C2669,7526 2694,7413 2710,7325C2727,7237 2747,7145 2755,7121C2782,7039 2784,6963 2761,6866C2732,6746 2703,6699 2604,6610C2558,6569 2506,6516 2489,6493C2434,6421 2454,6419 2569,6485C2724,6574 2844,6560 2956,6438C2997,6394 3043,6291 3055,6218C3065,6155 3109,6157 3134,6221C3156,6276 3154,6422 3130,6540C3120,6592 3112,6635 3113,6637C3119,6642 3202,6442 3217,6386C3241,6298 3239,6195 3213,6144C3178,6078 3091,6007 2957,5937C2665,5784 2520,5698 2512,5672C2506,5652 2569,5666 2680,5710C2818,5765 2926,5797 3030,5815C3124,5831 3152,5829 3183,5802C3207,5781 3204,5770 3175,5770C3160,5770 3134,5755 3110,5734C3059,5687 3057,5657 3105,5629C3148,5603 3152,5590 3155,5455C3156,5386 3162,5330 3172,5305C3198,5237 3227,5000 3239,4765C3245,4646 3251,4597 3264,4572C3273,4554 3292,4491 3305,4432C3331,4315 3361,4231 3410,4142C3427,4111 3475,4004 3516,3905C3558,3806 3606,3700 3625,3670C3643,3640 3679,3572 3705,3520C3731,3468 3780,3390 3814,3347C3847,3304 3901,3232 3933,3187C4002,3089 4144,2919 4255,2800C4299,2752 4380,2665 4435,2606C4715,2303 5178,2014 5428,1985C5506,1976 5491,1994 5385,2039C5220,2109 5180,2130 5072,2202C4915,2306 4898,2322 4793,2449C4740,2513 4665,2601 4625,2645C4440,2853 4364,2967 4326,3094C4265,3294 4210,3563 4210,3657L4210,3703L4498,3409C4657,3247 4820,3077 4861,3031C4955,2923 5061,2833 5175,2763C5321,2672 5641,2498 5648,2505C5652,2509 5648,2516 5639,2521C5630,2526 5585,2560 5539,2597C5236,2840 4942,3133 4774,3360C4666,3506 4557,3678 4500,3790C4413,3962 4377,4228 4420,4380C4437,4441 4451,4453 4505,4452C4631,4449 4782,4309 4900,4085C5004,3889 5055,3817 5114,3780C5133,3769 5193,3750 5247,3738C5301,3727 5370,3706 5400,3691C5479,3653 5675,3461 5731,3367C5763,3313 5830,3238 6004,3061C6131,2933 6275,2794 6325,2752C6420,2672 6675,2480 6775,2413C6863,2354 7233,2140 7320,2098C7435,2042 7647,1946 7724,1916C7818,1878 8081,1813 8217,1794C8325,1778 8454,1782 8434,1799C8429,1804 8385,1815 8335,1824C8176,1854 7905,1922 7889,1937C7880,1944 7795,1980 7699,2016C7392,2131 7270,2204 7087,2383C6755,2708 6547,3086 6533,3391C6525,3544 6551,3586 6629,3545C6665,3527 6705,3476 6754,3386C6808,3290 6851,3245 6905,3230C6946,3219 6957,3220 7013,3240C7047,3252 7094,3265 7116,3267C7162,3272 7198,3252 7335,3141C7433,3061 7455,3047 7556,2997C7708,2921 7850,2873 7850,2897C7850,2909 7752,2967 7621,3033C7454,3116 7299,3274 7163,3497C6987,3789 6864,4081 6844,4261C6840,4294 6831,4327 6824,4335C6805,4353 6770,4638 6770,4768C6770,4908 6805,5177 6835,5265C6879,5395 7040,5628 7181,5765C7255,5836 7254,5820 7180,5730C7122,5660 7048,5541 7052,5523C7054,5514 7063,5502 7072,5497C7085,5488 7099,5496 7145,5536C7236,5615 7300,5659 7385,5701C7516,5766 7546,5770 7675,5746C7750,5732 7828,5726 7920,5725C8059,5725 8094,5732 8153,5772C8197,5803 8187,5814 8123,5805C7993,5786 7919,5804 7845,5872C7816,5899 7787,5935 7781,5953C7770,5986 7778,6041 7798,6076C7807,6092 7809,6086 7810,6041C7810,5994 7814,5984 7845,5953C7892,5906 7918,5911 7947,5972C7965,6009 7981,6024 8027,6049C8103,6091 8216,6125 8320,6140C8367,6147 8419,6161 8436,6171C8453,6181 8496,6201 8532,6214C8746,6295 8938,6459 8940,6563C8940,6590 8925,6583 8883,6538C8810,6458 8775,6429 8708,6395C8618,6350 8527,6336 8361,6343C8248,6347 8202,6353 8090,6383C8016,6403 7921,6432 7880,6449C7839,6466 7805,6480 7804,6480C7804,6480 7785,6511 7762,6549C7702,6650 7680,6723 7680,6826C7680,6907 7682,6914 7711,6951C7728,6972 7759,7035 7781,7090C7802,7145 7827,7203 7835,7218L7851,7245L7846,7205C7843,7183 7838,7143 7834,7115C7830,7088 7805,7018 7778,6961C7733,6867 7729,6852 7735,6810C7739,6784 7749,6752 7758,6738C7826,6636 7866,6587 7907,6559C7965,6519 8046,6487 8071,6495C8098,6504 8095,6542 8064,6571C8027,6605 8010,6643 8010,6690C8010,6741 8020,6759 8083,6832C8136,6893 8181,6917 8304,6945C8341,6954 8367,6966 8373,6977C8379,6987 8406,7018 8435,7045C8530,7135 8621,7242 8646,7291C8701,7400 8717,7592 8676,7654C8648,7698 8640,7685 8640,7595C8640,7520 8636,7502 8608,7443C8571,7365 8500,7288 8437,7260C8345,7218 8236,7250 8193,7333L8179,7361L8213,7355C8252,7347 8288,7363 8333,7404C8366,7435 8368,7469 8336,7499C8323,7511 8310,7533 8307,7546C8285,7664 8421,8267 8506,8431C8543,8501 8633,8610 8654,8610C8666,8610 8596,8456 8569,8424C8561,8415 8560,8379 8564,8308C8576,8127 8620,7987 8681,7935C8731,7893 8742,7903 8715,7967C8706,7987 8694,8045 8688,8096C8674,8208 8686,8278 8733,8346C8810,8458 8944,8461 9069,8354C9117,8312 9117,8298 9068,8328C9027,8353 8929,8366 8900,8350C8883,8341 8880,8333 8885,8311C8890,8287 8883,8274 8840,8227C8783,8164 8776,8134 8818,8124C8871,8112 8876,8110 8892,8082C8901,8067 8918,8016 8930,7970C8950,7895 8952,7869 8946,7755C8942,7684 8934,7596 8927,7560L8914,7495L8894,7540C8870,7592 8848,7613 8823,7608C8808,7605 8804,7591 8799,7529C8792,7443 8744,7290 8702,7218C8668,7158 8492,6970 8435,6930C8403,6908 8380,6879 8345,6814C8320,6767 8301,6722 8304,6714C8314,6689 8339,6699 8377,6746C8438,6820 8563,6870 8686,6870C8733,6870 8758,6863 8809,6838C8880,6801 9007,6689 9041,6632C9075,6577 9107,6539 9158,6497C9203,6460 9206,6458 9255,6466C9282,6470 9321,6472 9341,6471C9393,6469 9526,6495 9593,6520C9695,6558 9784,6692 9796,6827C9802,6889 9800,6904 9780,6945C9759,6988 9736,7010 9724,6998C9722,6995 9723,6966 9728,6934C9743,6839 9701,6737 9633,6705C9598,6688 9485,6685 9446,6700C9400,6717 9287,6841 9247,6917C9213,6982 9153,7177 9164,7188C9167,7190 9187,7156 9209,7113C9252,7027 9269,7007 9293,7016C9316,7025 9320,7067 9325,7403C9330,7751 9352,7961 9399,8130C9415,8185 9423,8230 9419,8230C9414,8230 9410,8227 9410,8222C9410,8218 9390,8193 9365,8167C9335,8136 9312,8099 9298,8060C9259,7952 9245,7999 9281,8116C9327,8266 9436,8410 9635,8584C9729,8667 9769,8695 9900,8776L9955,8809L9910,8809C9841,8810 9790,8794 9667,8739C9605,8711 9538,8682 9518,8675C9497,8667 9468,8652 9453,8641C9438,8629 9403,8617 9375,8613L9325,8607L9355,8633C9380,8654 9383,8662 9374,8677C9365,8691 9345,8696 9278,8702C9186,8709 9150,8722 9108,8767C9080,8796 9055,8849 9065,8858C9068,8861 9081,8854 9093,8841C9146,8792 9220,8794 9251,8845C9266,8871 9321,8919 9515,9078C9660,9198 9730,9272 9804,9385C9855,9463 9910,9562 9910,9575C9910,9587 9881,9579 9857,9560C9819,9530 9818,9535 9853,9589C9886,9640 9942,9680 9979,9680C10035,9680 10069,9644 10094,9561C10110,9506 10123,9500 10140,9540C10156,9578 10148,9655 10122,9712C10093,9776 10023,9866 9978,9895C9957,9909 9930,9935 9920,9953C9897,9989 9894,10029 9913,10031C9951,10034 9991,10026 10039,10004C10068,9991 10098,9980 10106,9980C10150,9980 10042,10096 9945,10153C9907,10175 9852,10218 9825,10247C9777,10296 9771,10300 9726,10300C9695,10300 9650,10312 9592,10336C9425,10405 9330,10428 9175,10437C9053,10443 8964,10426 8856,10376C8774,10338 8680,10259 8660,10209C8646,10177 8652,10162 8672,10177C8679,10182 8720,10213 8764,10245L8842,10305L8945,10308C9031,10312 9060,10309 9117,10290C9322,10224 9420,10123 9451,9946C9466,9859 9458,9794 9425,9727C9387,9653 9356,9615 9294,9570C9231,9523 9224,9494 9270,9477C9287,9471 9300,9462 9300,9457C9300,9439 9214,9457 9140,9491C9076,9520 9054,9525 8988,9525C8928,9525 8907,9521 8894,9508C8878,9492 8878,9490 8906,9479C8964,9456 9025,9425 9043,9411C9071,9388 9065,9326 9024,9240C8993,9174 8979,9157 8908,9100C8863,9064 8795,9014 8756,8987C8686,8940 8685,8940 8682,8965C8680,8978 8691,9033 8706,9087C8768,9311 8783,9417 8755,9440C8742,9450 8736,9450 8720,9435C8709,9425 8700,9412 8700,9407C8700,9394 8613,9210 8607,9210C8602,9210 8615,9269 8644,9375C8653,9407 8660,9449 8660,9467C8660,9541 8734,9707 8808,9799C8875,9882 8978,9903 9076,9853C9105,9838 9132,9829 9136,9832C9147,9843 9107,9900 9070,9925C9018,9961 8955,9981 8860,9990C8763,9999 8745,9993 8632,9913C8598,9889 8545,9858 8516,9844C8451,9815 8448,9810 8425,9741C8410,9696 8389,9668 8300,9577C8207,9481 8189,9467 8161,9467C8143,9467 8125,9472 8120,9479C8107,9501 8141,9567 8196,9629C8226,9662 8250,9691 8250,9694C8250,9706 8213,9699 8180,9680C8161,9669 8130,9653 8111,9643C8042,9609 7970,9465 7970,9363C7970,9287 7991,9243 8060,9180C8117,9127 8120,9122 8130,9057C8143,8971 8134,8751 8113,8650C8096,8568 8048,8434 8025,8404C8011,8386 8009,8386 7996,8403C7989,8412 7974,8420 7963,8420C7929,8420 7917,8396 7925,8343C7930,8303 7925,8275 7891,8173C7824,7968 7771,7878 7703,7848C7643,7822 7640,7806 7685,7764L7723,7730L7716,7652C7705,7513 7653,7373 7565,7240C7517,7168 7460,7129 7347,7091C7298,7075 7293,7070 7263,7007C7236,6950 7221,6933 7164,6893C6986,6767 6807,6606 6781,6550C6772,6531 6748,6488 6728,6455C6689,6391 6671,6340 6688,6340C6693,6340 6719,6363 6746,6392C6891,6546 6985,6605 7137,6635C7175,6643 7210,6614 7210,6576C7210,6535 7133,6398 7056,6303L6982,6211L6976,6245C6970,6277 6955,6290 6924,6290C6916,6290 6878,6260 6838,6224C6796,6185 6738,6144 6700,6126L6635,6095L6629,6030C6622,5953 6605,5903 6534,5755C6474,5629 6402,5441 6371,5327C6320,5141 6230,5048 6144,5093C6094,5119 6075,5150 5952,5410C5872,5578 5849,5635 5806,5767C5767,5889 5764,5910 5781,5959C5799,6010 5786,6036 5734,6056C5640,6092 5574,6218 5582,6349C5585,6401 5591,6426 5610,6454C5642,6501 5650,6500 5639,6449C5622,6374 5660,6250 5699,6250C5704,6250 5722,6261 5738,6275C5778,6308 5797,6307 5882,6264C6058,6175 6149,6026 6181,5771C6195,5653 6186,5572 6144,5467C6124,5419 6110,5375 6112,5369C6117,5354 6157,5387 6189,5433C6204,5456 6230,5509 6245,5550C6269,5613 6274,5645 6278,5753C6283,5904 6272,6019 6221,6326C6196,6473 6178,6555 6169,6561C6161,6566 6143,6570 6128,6570C6063,6570 6015,6660 5984,6838C5940,7091 5913,7344 5929,7354C5934,7357 5946,7338 5955,7311C5984,7224 6029,7187 6060,7225C6068,7235 6070,7264 6066,7322C6058,7431 6077,7533 6105,7538C6116,7540 6128,7545 6132,7548C6136,7552 6133,7614 6126,7685C6119,7757 6114,7826 6116,7840C6117,7854 6121,7893 6125,7928C6137,8048 6229,8315 6329,8519C6374,8610 6385,8625 6417,8640C6463,8661 6521,8723 6554,8787C6606,8890 6672,9121 6686,9247C6693,9315 6684,9420 6670,9420C6659,9420 6643,9369 6629,9285C6613,9185 6525,9004 6470,8957C6418,8913 6358,8896 6277,8902C6168,8911 5947,9039 5888,9129C5859,9172 5868,9176 5908,9138C5954,9094 6048,9033 6100,9015C6158,8995 6174,9011 6175,9091C6176,9164 6192,9200 6250,9261C6285,9298 6293,9302 6327,9297C6348,9295 6380,9287 6397,9279C6446,9259 6459,9277 6435,9331C6416,9371 6416,9373 6436,9409C6452,9438 6477,9457 6580,9513C6777,9619 6845,9650 6938,9673C7030,9696 7040,9702 7040,9736C7040,9758 7005,9780 6967,9781C6946,9781 6946,9782 6970,9791C6984,9797 7052,9803 7122,9804C7249,9807 7249,9807 7285,9839C7305,9856 7327,9870 7334,9870C7341,9870 7373,9883 7406,9899C7438,9915 7490,9939 7522,9953C7680,10024 7776,10097 7898,10245C7971,10332 8009,10397 8010,10433C8010,10465 7991,10450 7911,10356C7857,10294 7811,10251 7773,10228C7695,10182 7525,10104 7472,10090C7345,10057 7156,10061 7084,10098C7062,10109 7031,10133 7014,10152C6983,10184 6945,10248 6952,10255C6954,10257 6982,10241 7015,10219C7048,10198 7082,10180 7092,10180C7123,10180 7143,10224 7136,10275C7125,10346 7137,10382 7195,10451C7284,10556 7468,10717 7570,10780C7654,10831 7668,10844 7696,10894C7713,10925 7755,10982 7790,11021C7867,11107 7922,11199 8039,11435C8213,11785 8251,11985 8190,12225C8165,12322 8121,12409 8055,12491C7998,12561 7990,12569 7990,12549ZM3155,9803C3115,9742 3100,9710 3065,9610C2953,9286 2991,8964 3159,8808C3232,8740 3305,8709 3410,8703C3568,8693 3677,8733 3784,8843C3909,8969 3982,9155 3936,9226C3926,9240 3921,9254 3923,9257C3926,9259 3954,9249 3987,9233C4065,9195 4168,9092 4205,9015C4242,8936 4250,8835 4225,8756C4202,8683 4180,8663 4180,8714C4180,8791 4110,8875 4036,8887C3983,8895 3960,8871 3960,8807C3960,8742 3937,8696 3870,8630C3812,8572 3728,8522 3634,8490C3563,8465 3414,8463 3320,8486C3238,8505 3118,8569 3062,8623C3016,8668 2997,8715 2985,8814C2971,8924 2936,8858 2942,8733C2946,8664 2952,8640 2983,8577C3035,8472 3105,8405 3228,8343C3331,8290 3336,8289 3605,8251C3682,8241 3788,8222 3840,8210C3928,8189 3938,8184 3980,8141C4053,8067 4070,7969 4026,7882C3998,7826 3971,7800 3910,7768C3870,7748 3852,7745 3750,7746C3657,7746 3616,7751 3535,7773C3279,7843 3054,8002 2911,8213C2832,8331 2810,8382 2800,8473C2761,8841 2789,9112 2895,9385C2967,9572 3017,9661 3113,9773C3165,9834 3184,9847 3155,9803ZM5720,8821C5642,8801 5630,8794 5630,8771C5630,8745 5648,8733 5700,8725C5762,8715 5788,8700 5842,8642C5907,8572 5940,8504 5939,8438L5939,8385L5919,8434C5878,8536 5794,8622 5737,8622C5697,8623 5511,8571 5448,8542C5387,8514 5330,8466 5343,8454C5346,8451 5398,8453 5459,8460C5561,8471 5572,8470 5613,8452C5694,8416 5706,8348 5670,8127C5631,7883 5566,7659 5521,7616C5487,7583 5465,7585 5436,7623C5418,7647 5415,7664 5417,7731C5418,7777 5415,7810 5409,7810C5391,7810 5360,7745 5345,7675C5325,7586 5334,7541 5389,7457C5444,7373 5464,7312 5458,7247C5438,7032 5139,6629 4890,6482C4838,6452 4770,6410 4740,6390C4710,6370 4670,6348 4652,6341C4634,6333 4599,6301 4571,6266C4544,6232 4510,6198 4495,6190C4427,6154 4217,5783 4151,5581C4010,5155 4027,4634 4198,4130C4230,4038 4326,3807 4367,3727L4392,3677L4335,3738C4304,3772 4265,3803 4247,3809C4201,3824 4132,3826 4118,3812C4100,3794 4096,3700 4109,3608C4119,3540 4143,3424 4176,3295C4188,3246 4053,3527 4005,3649C3934,3834 3757,4371 3726,4499C3712,4556 3694,4610 3686,4619C3669,4639 3650,4843 3650,5018C3650,5390 3718,5808 3806,5982C3846,6061 3998,6275 4007,6266C4010,6264 3973,6197 3926,6118C3817,5939 3817,5925 3919,5899C3952,5891 3977,5874 4016,5834C4096,5752 4115,5761 4122,5883C4127,5952 4133,5973 4179,6065C4235,6179 4306,6265 4376,6306C4400,6320 4430,6345 4443,6360C4468,6392 4564,6436 4692,6475C4778,6501 4780,6502 4790,6540C4798,6571 4819,6594 4908,6668C4968,6718 5039,6783 5066,6813C5116,6868 5245,7097 5274,7184C5292,7236 5296,7365 5280,7375C5269,7382 5247,7335 5235,7280C5223,7224 5113,7051 5048,6984C4964,6898 4830,6834 4704,6818C4622,6808 4611,6809 4558,6829C4478,6860 4439,6889 4411,6938C4383,6990 4390,7003 4428,6968C4484,6916 4530,6923 4556,6990C4569,7023 4583,7034 4648,7068C4690,7090 4756,7118 4794,7130C4844,7146 4866,7160 4878,7179C4886,7193 4928,7230 4972,7260C5105,7353 5180,7467 5245,7670C5272,7756 5275,7839 5250,7864C5239,7875 5210,7815 5210,7781C5210,7771 5191,7725 5169,7680C5116,7574 5028,7482 4939,7440C4864,7405 4837,7403 4793,7429C4753,7454 4745,7481 4765,7524C4784,7563 4807,7581 4863,7599C4912,7616 4918,7633 4892,7684C4860,7745 4840,7849 4840,7958C4840,8064 4852,8120 4882,8163C4894,8179 4899,8195 4894,8200C4869,8223 4737,8253 4630,8259L4515,8265L4500,8297C4483,8334 4464,8338 4417,8314C4375,8293 4377,8295 4389,8272C4398,8255 4395,8247 4370,8223C4353,8206 4317,8183 4290,8170C4230,8142 4222,8125 4252,8086C4269,8062 4274,8042 4274,7990C4274,7936 4269,7914 4241,7860C4181,7742 4079,7623 3990,7568C3972,7557 3926,7551 3830,7546C3594,7535 3494,7490 3431,7363C3397,7294 3406,7256 3446,7301C3541,7406 3758,7365 3813,7232C3821,7211 3840,7166 3855,7131C3878,7077 3882,7057 3878,7001C3869,6873 3804,6800 3700,6800C3609,6800 3594,6766 3665,6724C3690,6710 3710,6694 3710,6689C3710,6665 3587,6720 3534,6767C3451,6842 3347,7016 3300,7161L3269,7255L3290,7307C3317,7372 3310,7394 3258,7421C3163,7469 3088,7564 2992,7756C2950,7840 2890,7988 2890,8007C2890,8010 2937,7968 2994,7912C3142,7768 3257,7700 3440,7649C3511,7629 3548,7625 3670,7625C3805,7625 3820,7627 3878,7652C3960,7686 3997,7712 4043,7769C4145,7895 4152,8079 4056,8169C4035,8189 4033,8195 4043,8227C4051,8254 4067,8271 4105,8295C4132,8313 4168,8330 4185,8334C4201,8338 4266,8362 4330,8387C4428,8426 4648,8490 4683,8490C4689,8490 4680,8477 4662,8461C4627,8428 4621,8396 4648,8382C4657,8377 4715,8370 4775,8367C4884,8361 4886,8361 4998,8305C5105,8251 5115,8248 5203,8243C5354,8234 5535,8271 5584,8320C5602,8338 5602,8340 5587,8346C5578,8349 5549,8348 5522,8343C5470,8334 5330,8344 5287,8362C5245,8378 5210,8426 5210,8466C5210,8511 5227,8544 5287,8613C5397,8741 5589,8839 5730,8838L5785,8838L5720,8821ZM5211,5621C5230,5606 5236,5589 5240,5538L5245,5475L5295,5459C5390,5429 5449,5338 5497,5144C5519,5054 5524,5011 5524,4900C5525,4779 5523,4760 5501,4713C5448,4595 5355,4550 5247,4590C5183,4614 5086,4675 5048,4716C5016,4751 4984,4820 4975,4875C4959,4977 4950,4985 4930,4915C4914,4857 4937,4691 4978,4570C4995,4523 5011,4466 5015,4442C5021,4405 5029,4393 5070,4364C5103,4340 5148,4288 5208,4202C5257,4132 5300,4065 5304,4054C5308,4042 5332,3997 5358,3954C5397,3890 5470,3747 5470,3735C5470,3734 5444,3743 5413,3755C5381,3768 5317,3784 5270,3790C5224,3796 5177,3806 5165,3812C5099,3846 5046,3928 4959,4130C4855,4375 4779,4483 4664,4548C4587,4591 4513,4685 4469,4794C4438,4871 4436,4882 4432,5030C4428,5178 4429,5188 4454,5255C4490,5350 4547,5442 4631,5545C4670,5592 4703,5630 4705,5630C4709,5630 4702,5605 4677,5530C4619,5358 4618,5348 4630,5212C4641,5081 4668,4956 4697,4895C4725,4836 4734,4853 4724,4948C4712,5068 4714,5185 4729,5250C4769,5418 4891,5556 5055,5617C5130,5645 5180,5646 5211,5621ZM6433,4803C6448,4753 6471,4681 6484,4643C6498,4606 6518,4537 6529,4490C6551,4396 6647,4114 6704,3979C6743,3884 6865,3651 6913,3580C6954,3519 7014,3445 7069,3388C7101,3354 7110,3339 7099,3335C7004,3300 6944,3283 6929,3287C6904,3294 6864,3345 6802,3451C6743,3551 6701,3591 6632,3614C6520,3651 6435,3603 6409,3486C6392,3409 6403,3206 6429,3106C6441,3062 6448,3025 6446,3023C6439,3016 6240,3273 6165,3386C6116,3461 6069,3551 6022,3661C5913,3913 5884,4049 5893,4257C5899,4405 5915,4474 5956,4527L5985,4565L5991,4522C5997,4473 6011,4460 6058,4460C6101,4460 6137,4441 6181,4393C6263,4305 6317,4214 6356,4100C6380,4029 6379,3842 6354,3768C6336,3713 6339,3703 6369,3719C6396,3734 6434,3801 6467,3891C6490,3955 6493,3981 6494,4090C6495,4252 6484,4290 6326,4672C6306,4720 6290,4775 6290,4794C6290,4842 6324,4929 6363,4981L6395,5025L6401,4960C6404,4924 6418,4854 6433,4803ZM4368,4640L4395,4605L4348,4557L4300,4509L4300,4582C4300,4622 4303,4672 4306,4693L4313,4730L4327,4703C4335,4687 4353,4659 4368,4640Z" style="fill-rule:nonzero;"/>
        </g>
        <g transform="matrix(1,0,0,1,-57271.5,39947.4)">
            <path d="M15546,12493C15479,12409 15435,12323 15410,12225C15349,11985 15387,11785 15561,11435C15678,11199 15733,11107 15810,11021C15845,10982 15887,10925 15904,10894C15931,10844 15946,10831 16025,10783C16130,10719 16176,10681 16323,10535C16454,10407 16475,10368 16465,10279C16459,10229 16461,10216 16476,10199C16501,10172 16518,10175 16585,10219C16618,10241 16646,10257 16648,10255C16650,10253 16642,10234 16631,10213C16609,10170 16558,10120 16509,10094C16444,10061 16249,10059 16128,10090C16075,10104 15905,10182 15827,10228C15789,10251 15743,10294 15689,10356C15609,10450 15590,10465 15590,10433C15591,10355 15785,10124 15925,10035C15982,9998 16206,9888 16251,9875C16264,9871 16292,9854 16314,9838C16352,9808 16355,9807 16479,9804C16548,9803 16616,9797 16630,9791C16654,9782 16654,9781 16633,9781C16621,9780 16599,9775 16585,9768C16541,9748 16558,9687 16611,9676C16681,9662 16863,9561 16960,9481C16999,9449 17001,9449 16996,9471C16993,9484 16974,9585 16955,9695C16919,9899 16776,10626 16760,10690L16751,10725L16697,10722C16619,10717 16546,10742 16491,10792C16465,10816 16431,10846 16415,10859C16395,10874 16392,10880 16405,10875C16416,10871 16462,10865 16506,10862C16578,10858 16594,10861 16642,10882C16734,10925 16780,10987 16795,11093L16802,11142L16838,11135C16858,11131 16880,11125 16885,11120C16891,11116 16920,11105 16950,11095C17040,11066 17094,11035 17200,10949C17307,10863 17330,10831 17253,10876C17160,10929 17065,10979 17055,10980C17050,10980 17094,10932 17152,10873C17252,10772 17349,10659 17371,10617C17387,10589 17339,10576 17215,10575C17112,10575 17101,10577 17032,10608C16992,10626 16954,10640 16948,10638C16927,10631 17013,10549 17094,10500C17138,10472 17169,10450 17163,10450C17153,10450 17083,10479 16951,10536C16918,10551 16918,10551 16923,10528C16938,10469 17064,9787 17105,9550C17130,9404 17164,9239 17181,9183C17213,9076 17213,9039 17184,8993C17167,8966 17125,8962 17094,8984C17083,8992 17048,9037 17015,9085C16980,9136 16954,9166 16952,9157C16947,9134 17022,8915 17072,8807C17095,8757 17133,8689 17156,8658C17184,8620 17209,8567 17231,8503C17249,8449 17294,8345 17333,8270C17483,7978 17529,7775 17535,7385C17536,7297 17538,7222 17539,7218C17539,7213 17551,7210 17564,7210C17595,7210 17624,7246 17646,7312C17667,7375 17682,7359 17674,7280C17644,6969 17600,6713 17565,6654C17528,6590 17505,6570 17471,6570C17455,6570 17435,6564 17427,6556C17414,6543 17355,6201 17330,6000C17312,5852 17317,5672 17341,5594C17378,5472 17440,5370 17478,5370C17494,5370 17489,5389 17447,5485C17418,5551 17416,5562 17417,5675C17418,5964 17515,6158 17709,6259C17753,6282 17796,6300 17806,6300C17816,6300 17841,6288 17861,6274C17892,6253 17902,6250 17919,6259C17952,6277 17975,6398 17957,6463C17947,6501 17960,6497 17990,6454C18009,6426 18015,6401 18018,6349C18026,6218 17960,6092 17866,6056C17812,6035 17804,6016 17821,5949C17833,5904 17832,5892 17811,5822C17774,5696 17722,5564 17647,5410C17509,5124 17507,5119 17456,5093C17367,5047 17283,5136 17225,5338C17178,5501 17074,5758 17031,5819C17019,5835 17010,5857 17010,5868C17010,5879 17002,5905 16993,5926C16984,5948 16973,5994 16970,6030L16965,6095L16900,6126C16862,6144 16804,6185 16762,6224C16714,6268 16682,6290 16665,6290C16639,6290 16620,6265 16620,6230C16620,6214 16609,6223 16573,6267C16501,6357 16140,6738 16064,6805C15998,6864 15977,6878 15895,6919C15854,6940 15770,6947 15770,6930C15770,6925 15787,6912 15808,6901C15854,6878 15875,6855 15895,6807C15917,6755 15897,6710 15835,6671C15722,6599 15574,6632 15490,6747C15468,6778 15400,6959 15400,6988C15400,6992 15425,6945 15455,6884C15514,6764 15550,6717 15578,6722C15592,6725 15595,6738 15595,6810C15596,6884 15600,6904 15626,6961C15643,6997 15670,7036 15685,7048L15713,7070L15671,7107C15639,7136 15619,7170 15584,7250C15560,7307 15533,7361 15526,7370C15509,7388 15428,7637 15400,7752C15371,7874 15337,8137 15344,8193C15349,8236 15386,8317 15396,8307C15399,8305 15394,8274 15385,8239C15367,8159 15367,8155 15386,8136C15409,8112 15434,8131 15463,8192C15514,8303 15607,8390 15694,8410C15746,8421 15755,8406 15709,8386C15661,8365 15588,8277 15592,8246C15595,8228 15601,8225 15642,8227C15694,8230 15702,8223 15715,8160C15719,8141 15729,8114 15738,8100C15787,8024 15874,7703 15873,7602C15872,7526 15854,7480 15824,7480C15779,7480 15649,7604 15608,7688C15589,7726 15585,7751 15585,7820C15585,7867 15589,7921 15593,7940C15600,7973 15600,7974 15585,7956C15553,7914 15527,7826 15527,7755C15527,7664 15557,7582 15665,7380C15711,7295 15756,7202 15766,7174L15784,7122L15844,7118C15916,7113 16000,7078 16066,7023C16109,6988 16204,6874 16213,6847C16215,6840 16227,6844 16246,6859C16272,6880 16281,6881 16340,6875C16496,6858 16597,6818 16732,6718C16816,6656 16867,6599 16910,6518C16951,6441 16955,6366 16921,6280C16896,6215 16896,6210 16914,6210C16934,6210 16999,6286 17020,6334C17049,6398 17053,6457 17036,6538C16991,6753 16789,7015 16584,7123C16535,7149 16461,7196 16421,7226C16381,7257 16333,7288 16315,7295C16275,7312 16236,7356 16178,7451C16121,7544 16104,7596 16155,7522C16226,7418 16408,7260 16456,7260C16485,7260 16496,7280 16505,7353L16513,7412L16462,7463C16386,7540 16296,7743 16259,7920C16253,7950 16239,7990 16229,8010C16200,8067 16177,8205 16182,8295C16185,8359 16192,8386 16215,8428C16231,8458 16252,8486 16262,8491C16287,8505 16284,8517 16252,8534C16203,8560 16124,8565 16094,8545C16059,8522 16051,8534 16081,8566C16139,8630 16244,8647 16345,8609C16474,8561 16575,8401 16670,8095C16677,8073 16695,8026 16710,7990C16726,7954 16742,7912 16746,7896C16752,7870 16751,7868 16731,7875C16705,7883 16680,7865 16680,7838C16680,7828 16673,7806 16665,7790C16620,7703 16468,7809 16416,7963C16390,8039 16394,8091 16436,8238C16446,8271 16417,8266 16386,8229C16347,8183 16333,8142 16321,8043C16300,7867 16342,7740 16483,7557C16558,7460 16618,7416 16835,7302C16927,7253 17024,7194 17051,7171C17104,7125 17189,6992 17213,6915C17263,6757 17262,6591 17211,6440C17193,6388 17159,6316 17136,6280C17112,6244 17085,6200 17076,6182C17049,6129 17080,6142 17150,6211C17230,6292 17268,6368 17385,6694C17410,6765 17444,6877 17460,6944L17489,7065L17463,7089C17404,7145 17355,7290 17331,7490C17315,7612 17318,7669 17340,7719C17364,7771 17365,7813 17345,7870C17337,7893 17330,7928 17330,7948C17330,7994 17295,8111 17259,8183C17232,8238 17162,8350 17155,8350C17153,8350 17161,8326 17174,8298C17205,8228 17230,8124 17230,8069C17230,8005 17205,7897 17175,7833C17161,7802 17148,7779 17146,7781C17143,7783 17148,7812 17156,7845C17181,7955 17147,8055 17016,8254C16979,8309 16950,8359 16950,8367C16950,8374 16927,8434 16900,8500C16872,8566 16846,8643 16843,8671C16838,8715 16831,8726 16791,8761C16754,8794 16750,8800 16770,8795C16847,8772 16942,8651 16996,8506C17040,8389 17016,8588 16969,8736C16929,8862 16900,8920 16801,9067C16705,9212 16621,9303 16488,9410L16386,9492L16446,9485C16478,9481 16520,9471 16539,9464C16582,9446 16620,9439 16620,9449C16620,9458 16536,9520 16524,9520C16520,9520 16509,9526 16501,9534C16492,9541 16404,9589 16305,9640C16101,9745 16018,9799 15910,9894C15869,9930 15801,9986 15760,10019C15673,10087 15654,10106 15632,10152C15621,10173 15600,10192 15575,10204C15498,10239 15315,10355 15270,10395C15222,10439 15149,10484 14975,10576C14832,10651 14602,10765 14527,10796C14495,10810 14437,10836 14397,10854C14104,10990 14005,11016 13760,11027C13600,11034 13496,11017 13351,10963C13269,10933 13130,10864 13130,10855C13130,10853 13145,10856 13162,10861C13180,10866 13220,10870 13251,10870L13308,10870L13312,10810C13319,10711 13385,10648 13503,10627C13540,10621 13570,10613 13570,10610C13569,10607 13544,10587 13514,10565C13484,10544 13426,10492 13387,10450C13327,10387 13302,10349 13237,10221C13194,10137 13160,10066 13163,10064C13165,10062 13198,10097 13237,10143C13276,10188 13327,10239 13350,10255C13372,10272 13410,10299 13433,10316C13542,10396 13593,10428 13699,10482C13792,10530 13821,10540 13862,10540C13923,10540 13959,10558 14028,10624L14082,10675L14186,10674C14243,10673 14287,10676 14284,10681C14281,10686 14275,10690 14270,10690C14265,10690 14223,10707 14178,10728C14073,10777 14071,10778 13915,10785C13777,10791 13707,10797 13676,10807C13651,10814 13794,10876 13859,10886C13965,10902 14225,10831 14400,10738C14534,10666 14762,10510 14930,10374C15021,10300 15176,10126 15213,10055C15242,10000 15249,9994 15293,9981C15332,9969 15357,9949 15428,9876C15530,9770 15626,9644 15694,9528C15721,9482 15759,9420 15779,9390C15851,9279 15881,9100 15850,8970C15835,8906 15814,8860 15799,8860C15793,8860 15793,8866 15800,8879C15805,8890 15810,8949 15810,9010C15810,9127 15804,9150 15753,9218C15727,9253 15706,9258 15680,9235C15660,9217 15673,9208 15490,9364C15433,9413 15377,9466 15365,9482C15354,9497 15310,9552 15267,9604C15218,9664 15183,9716 15173,9747C15152,9810 15148,9815 15084,9844C15055,9858 15002,9889 14968,9913C14856,9992 14837,9999 14740,9990C14609,9978 14519,9938 14479,9874C14467,9855 14461,9836 14464,9833C14468,9829 14495,9838 14524,9853C14587,9885 14609,9886 14684,9860C14784,9826 14853,9761 14978,9583C15077,9442 15189,9242 15240,9115C15258,9071 15283,9010 15296,8980C15340,8876 15363,8736 15342,8702C15336,8694 15325,8709 15307,8750C15285,8801 15278,8810 15256,8810C15239,8810 15225,8801 15213,8783C15189,8743 15170,8730 15136,8730C15080,8730 15045,8762 15001,8852C14947,8961 14936,9039 14954,9176C14962,9232 14973,9286 14979,9298C15000,9337 14972,9331 14936,9288C14875,9217 14849,9163 14827,9062C14780,8841 14810,8538 14906,8253L14921,8211L14882,8172C14861,8151 14832,8110 14817,8080C14787,8020 14792,7995 14838,7984C14873,7975 14941,7901 14979,7830C14995,7800 15023,7725 15041,7665C15068,7570 15072,7539 15072,7440C15072,7286 15034,7113 14967,6967C14941,6910 14939,6897 14951,6889C14979,6871 15000,6881 15065,6941C15101,6975 15133,7000 15137,6997C15148,6985 15080,6863 15040,6821C15018,6798 14974,6767 14942,6752C14896,6730 14885,6720 14885,6700C14885,6680 14892,6674 14926,6664C15013,6639 15083,6580 15096,6522C15099,6507 15103,6490 15105,6483C15107,6477 15104,6455 15099,6435C15087,6393 15041,6360 14994,6360C14936,6360 14824,6426 14747,6506C14708,6547 14672,6580 14668,6580C14653,6580 14660,6539 14681,6497C14731,6400 14897,6279 15068,6214C15104,6201 15147,6181 15164,6171C15181,6161 15231,6147 15275,6141C15379,6126 15500,6089 15573,6050C15619,6024 15635,6009 15653,5972C15682,5911 15708,5906 15755,5953C15786,5984 15790,5994 15790,6041L15791,6095L15806,6066C15833,6017 15828,5955 15793,5913C15716,5817 15619,5782 15495,5803C15460,5809 15428,5811 15424,5807C15413,5796 15438,5773 15488,5749C15530,5728 15549,5725 15675,5726C15773,5726 15848,5732 15925,5746C16019,5764 16042,5765 16082,5755C16192,5726 16321,5652 16430,5555C16506,5489 16524,5482 16543,5512C16557,5534 16536,5574 16446,5693C16344,5830 16339,5842 16419,5765C16560,5628 16722,5394 16765,5265C16803,5149 16834,4880 16827,4715C16820,4550 16796,4368 16776,4337C16768,4325 16759,4290 16755,4260C16733,4076 16613,3790 16437,3500C16348,3352 16291,3282 16176,3173C16101,3102 16063,3075 15979,3033C15848,2967 15750,2909 15750,2897C15750,2873 15892,2921 16044,2997C16145,3047 16167,3061 16265,3141C16402,3251 16438,3272 16484,3267C16506,3265 16552,3253 16585,3240C16638,3220 16650,3219 16690,3229C16749,3245 16781,3277 16842,3380C16908,3492 16935,3527 16970,3545C17049,3586 17075,3545 17067,3391C17049,3010 16699,2477 16276,2188C16200,2136 16111,2095 15899,2015C15805,1980 15720,1944 15711,1937C15695,1922 15425,1855 15265,1824C15216,1815 15171,1804 15166,1799C15162,1795 15183,1789 15214,1785C15335,1770 15712,1849 15916,1933C16186,2044 16623,2276 16837,2421C16934,2487 17191,2682 17277,2754C17421,2875 17820,3286 17860,3355C17881,3391 17945,3465 18020,3540C18163,3683 18202,3706 18353,3738C18407,3750 18467,3769 18486,3780C18545,3817 18596,3889 18700,4085C18818,4309 18969,4449 19095,4452C19149,4453 19163,4441 19180,4380C19223,4228 19187,3962 19100,3790C19043,3678 18934,3506 18826,3360C18658,3133 18364,2840 18061,2597C18015,2560 17970,2526 17961,2521C17952,2516 17948,2509 17952,2505C17959,2498 18279,2672 18425,2763C18539,2833 18645,2923 18739,3031C18780,3077 18943,3247 19102,3409L19390,3703L19390,3657C19390,3563 19335,3294 19274,3094C19245,2997 19169,2871 19070,2756C19032,2711 18932,2594 18848,2495C18705,2327 18687,2311 18575,2234C18453,2150 18314,2076 18182,2025C18142,2009 18113,1993 18118,1988C18132,1974 18266,1998 18339,2027C18410,2055 18633,2172 18716,2225C18824,2294 19069,2502 19165,2606C19220,2665 19295,2746 19331,2785C19446,2907 19601,3092 19662,3180C19694,3227 19748,3299 19781,3340C19814,3381 19866,3464 19896,3524C19927,3584 19962,3649 19975,3669C19988,3689 20031,3782 20070,3875C20109,3969 20161,4083 20184,4130C20239,4237 20275,4337 20300,4450C20310,4499 20327,4554 20336,4572C20349,4596 20355,4645 20361,4760C20374,5015 20408,5280 20433,5324C20439,5336 20445,5393 20446,5455C20447,5516 20450,5575 20454,5587C20458,5599 20476,5618 20495,5629C20543,5657 20541,5687 20490,5734C20466,5755 20440,5770 20425,5770C20396,5770 20393,5781 20418,5802C20448,5829 20476,5831 20570,5815C20674,5797 20782,5765 20920,5710C21031,5666 21094,5652 21088,5672C21079,5698 20926,5789 20640,5938C20542,5990 20501,6018 20449,6069C20380,6138 20360,6183 20360,6264C20360,6356 20451,6591 20505,6640C20520,6654 20531,6661 20528,6655C20526,6650 20509,6614 20491,6577C20460,6515 20457,6498 20452,6395C20447,6264 20452,6222 20481,6192C20516,6154 20536,6168 20550,6239C20566,6324 20608,6405 20660,6454C20777,6563 20880,6572 21031,6485C21149,6418 21168,6421 21106,6499C21085,6524 21033,6577 20990,6615C20897,6699 20867,6748 20839,6866C20816,6963 20818,7039 20845,7121C20853,7145 20871,7228 20885,7305C20900,7382 20927,7506 20945,7580C20990,7760 21011,7919 21060,8454C21072,8589 21051,8850 21014,9020C20964,9247 20869,9485 20770,9630C20724,9697 20558,9860 20470,9925C20390,9984 20277,10041 20185,10070C20062,10108 19790,10108 19790,10070C19790,10064 19796,10060 19803,10060C19809,10059 19863,10053 19922,10046C20044,10031 20074,10015 20228,9887C20328,9804 20382,9738 20426,9645C20547,9392 20532,9014 20397,8871C20364,8837 20275,8790 20230,8784C20075,8761 19948,8816 19845,8950C19741,9085 19712,9190 19764,9239C19803,9276 19888,9278 19975,9245C20085,9204 20109,9196 20117,9203C20128,9215 20081,9257 20022,9288C19930,9337 19861,9350 19694,9350C19521,9350 19451,9336 19355,9285C19318,9266 19280,9250 19269,9250C19255,9250 19240,9229 19212,9168C19167,9071 19101,9003 19014,8963C18937,8928 18845,8933 18746,8979C18672,9012 18644,9017 18637,8998C18632,8982 18653,8938 18674,8921C18710,8891 18686,8892 18628,8921C18439,9016 18072,9265 18002,9344C17967,9384 17966,9386 17969,9446C17972,9502 17956,9514 17896,9499C17839,9485 17797,9493 17754,9525C17736,9539 17720,9550 17718,9550C17710,9550 17730,9379 17750,9276C17781,9118 17831,8985 17877,8937C17926,8888 18032,8809 18090,8780C18210,8721 18332,8611 18379,8523C18409,8466 18377,8387 18313,8362C18270,8344 18130,8334 18078,8343C18051,8348 18022,8349 18013,8346C17998,8340 17998,8338 18016,8320C18065,8271 18246,8234 18397,8243C18485,8248 18495,8251 18602,8305C18714,8361 18716,8361 18825,8367C18886,8370 18943,8377 18953,8382C18979,8396 18973,8428 18938,8461C18920,8477 18911,8490 18917,8490C18952,8490 19172,8426 19270,8387C19334,8362 19399,8338 19415,8334C19472,8320 19537,8272 19553,8232C19567,8196 19567,8194 19538,8161C19494,8111 19477,8063 19477,7990C19476,7911 19504,7834 19557,7769C19603,7712 19640,7686 19722,7652C19780,7627 19795,7625 19930,7625C20052,7625 20089,7629 20160,7649C20343,7700 20458,7768 20606,7912C20663,7968 20710,8010 20710,8007C20710,7988 20650,7840 20608,7755C20515,7570 20434,7468 20341,7421C20290,7395 20283,7369 20309,7309L20330,7263L20309,7189C20288,7111 20221,6970 20164,6885C20117,6814 20051,6749 19994,6719C19900,6668 19848,6674 19935,6724C20006,6766 19991,6800 19902,6800C19789,6800 19719,6886 19719,7024C19719,7061 19726,7093 19743,7126C19757,7153 19771,7189 19774,7207C19785,7256 19852,7325 19907,7344C20000,7376 20102,7358 20154,7301C20196,7255 20203,7295 20166,7368C20100,7497 19988,7543 19740,7544C19610,7545 19591,7543 19555,7523C19510,7499 19496,7478 19475,7405L19462,7355L19461,7420C19460,7458 19467,7505 19477,7533C19493,7577 19493,7581 19478,7597C19469,7606 19444,7616 19424,7619C19395,7624 19378,7635 19354,7667C19257,7794 19256,7981 19352,8050L19391,8078L19359,8085C19298,8099 19185,8092 19125,8071C19057,8047 18940,7960 18871,7883C18830,7838 18700,7635 18700,7617C18700,7613 18718,7605 18740,7599C18812,7577 18863,7504 18839,7458C18827,7436 18778,7410 18748,7410C18701,7410 18599,7469 18536,7533C18469,7600 18398,7724 18385,7795C18369,7884 18344,7889 18334,7804C18329,7765 18335,7734 18360,7655C18423,7460 18496,7353 18628,7260C18672,7230 18714,7193 18722,7179C18734,7160 18756,7146 18806,7130C18844,7118 18910,7090 18952,7068C19017,7034 19031,7023 19044,6990C19070,6923 19116,6916 19172,6968C19210,7003 19217,6990 19189,6938C19161,6889 19122,6860 19042,6829C18989,6809 18978,6808 18895,6818C18775,6833 18630,6902 18552,6981C18492,7042 18376,7227 18365,7280C18353,7335 18331,7382 18320,7375C18304,7365 18308,7236 18326,7183C18356,7094 18483,6868 18535,6812L18584,6758L18520,6790C18441,6830 18340,6896 18282,6945C18235,6986 18200,7048 18164,7154C18124,7271 18135,7340 18211,7457C18266,7541 18275,7586 18255,7675C18240,7745 18209,7810 18191,7810C18185,7810 18182,7775 18183,7731C18185,7664 18182,7647 18164,7623C18152,7608 18135,7593 18126,7592C18106,7588 18064,7623 18044,7661C18022,7704 17952,7988 17930,8124C17894,8350 17905,8416 17985,8451C18028,8470 18038,8471 18141,8460C18202,8453 18254,8451 18257,8454C18270,8466 18213,8514 18152,8542C18089,8571 17903,8623 17863,8622C17806,8622 17722,8536 17681,8434L17661,8385L17661,8438C17660,8504 17693,8572 17758,8642C17813,8700 17839,8716 17902,8725L17948,8732L17882,8782C17748,8882 17727,8911 17672,9075C17637,9176 17616,9275 17601,9400C17595,9447 17584,9544 17575,9615C17557,9762 17554,10160 17570,10160C17575,10160 17582,10148 17585,10133C17604,10047 17643,9938 17670,9902C17699,9862 17720,9848 17720,9870C17720,9875 17772,9984 17835,10112C17898,10240 17949,10341 17949,10335C17949,10330 17943,10296 17935,10260C17926,10224 17917,10137 17914,10065L17908,9935L17869,9898C17848,9877 17830,9857 17830,9852C17830,9840 17857,9818 17911,9787C17937,9773 18031,9686 18121,9594C18298,9415 18415,9325 18550,9264L18575,9253L18542,9319C18520,9365 18506,9411 18499,9469C18471,9675 18512,9786 18671,9940C18769,10036 18792,10067 18805,10128C18809,10146 18818,10173 18826,10188C18843,10221 18844,10267 18827,10299C18806,10341 18794,10333 18782,10269C18763,10168 18703,10119 18596,10118C18543,10117 18524,10122 18462,10155C18378,10199 18354,10228 18349,10289L18345,10334L18478,10376L18610,10418L18622,10397C18636,10370 18691,10321 18708,10320C18715,10320 18720,10333 18720,10351C18720,10401 18736,10420 18779,10420C18824,10420 18875,10386 18937,10316C18989,10257 19062,10065 19080,9941C19103,9789 19074,9566 19017,9440C18975,9347 18967,9320 18985,9320C19001,9320 19041,9367 19076,9426C19137,9530 19240,9903 19240,10021C19240,10045 19246,10088 19254,10117C19262,10145 19266,10170 19265,10172C19263,10174 19257,10204 19251,10239C19242,10296 19243,10309 19260,10348C19271,10373 19278,10401 19275,10411C19268,10433 19237,10444 19204,10436C19172,10428 19173,10443 19206,10469C19260,10512 19367,10491 19645,10386C19711,10361 19779,10341 19795,10341L19825,10341L19790,10371C19771,10388 19721,10422 19680,10447C19497,10560 19440,10598 19373,10654C19290,10723 19265,10764 19280,10804C19285,10819 19297,10833 19305,10836C19340,10850 19367,10958 19340,10975C19334,10979 19308,10966 19282,10947C19167,10862 19018,10809 18939,10824C18920,10827 18885,10847 18861,10868L18817,10906L18812,10987L18808,11068L18755,11044C18653,10999 18464,10941 18350,10919C18242,10898 18226,10898 18090,10909C18010,10915 17918,10927 17885,10934C17746,10963 17591,11069 17505,11194C17485,11224 17462,11251 17455,11254C17448,11256 17423,11254 17399,11248C17374,11242 17295,11240 17215,11243C17056,11249 17003,11262 16837,11337C16535,11474 16340,11617 16162,11834C16131,11871 16104,11898 16102,11892C16096,11874 16260,11654 16360,11545C16413,11487 16510,11334 16551,11242C16604,11126 16607,11013 16560,10966C16517,10923 16359,10944 16227,11011C16162,11044 15943,11271 15837,11413C15668,11643 15579,11811 15534,11989C15478,12209 15496,12377 15592,12513C15603,12528 15610,12546 15608,12552C15606,12558 15578,12532 15546,12493ZM20585,9639C20635,9556 20692,9429 20734,9306C20803,9106 20828,8878 20810,8607C20804,8512 20796,8424 20793,8410C20776,8339 20673,8177 20584,8081C20329,7806 19832,7653 19647,7794C19530,7883 19518,8037 19620,8141C19662,8184 19672,8189 19760,8210C19812,8222 19918,8241 19995,8251C20264,8289 20269,8290 20372,8343C20552,8434 20647,8565 20657,8733C20665,8858 20629,8925 20615,8814C20603,8715 20584,8668 20538,8623C20482,8569 20362,8505 20280,8486C20186,8463 20037,8465 19966,8490C19770,8557 19640,8683 19640,8807C19640,8871 19617,8895 19564,8887C19490,8875 19420,8791 19420,8714C19420,8683 19418,8679 19405,8690C19378,8712 19357,8807 19362,8884C19369,8982 19405,9055 19489,9139C19550,9200 19662,9271 19676,9257C19679,9254 19674,9240 19664,9226C19599,9125 19774,8822 19942,8745C20055,8693 20212,8687 20323,8730C20406,8762 20491,8844 20535,8934C20572,9011 20600,9149 20600,9255C20600,9406 20536,9653 20469,9763C20453,9790 20440,9814 20440,9818C20441,9834 20543,9708 20585,9639ZM19317,6226C19346,6194 19389,6128 19420,6067C19467,5973 19473,5954 19478,5884C19485,5763 19507,5751 19579,5831C19616,5871 19638,5886 19690,5903C19742,5921 19756,5930 19758,5948C19761,5970 19731,6028 19635,6183C19587,6259 19578,6297 19619,6243C19678,6167 19770,6029 19794,5982C19881,5810 19950,5388 19950,5020C19950,4854 19930,4638 19913,4619C19906,4610 19888,4556 19874,4499C19843,4371 19678,3869 19600,3665C19550,3534 19411,3241 19424,3295C19457,3424 19481,3540 19491,3608C19504,3700 19500,3794 19482,3812C19468,3826 19399,3824 19353,3809C19335,3803 19296,3772 19265,3738L19208,3677L19233,3727C19274,3807 19370,4038 19402,4130C19517,4468 19561,4794 19538,5125C19517,5426 19428,5702 19264,5976C19212,6064 19206,6078 19202,6144C19197,6225 19216,6280 19249,6280C19260,6280 19290,6256 19317,6226ZM18536,5620C18700,5563 18831,5419 18871,5250C18886,5186 18888,5070 18876,4948C18866,4851 18876,4834 18904,4898C18933,4965 18959,5088 18970,5216C18982,5353 18979,5372 18914,5554C18901,5592 18892,5625 18894,5627C18901,5635 19039,5459 19079,5392C19101,5355 19131,5294 19146,5255C19171,5188 19172,5178 19168,5030C19164,4882 19162,4871 19131,4794C19087,4685 19013,4591 18936,4548C18821,4483 18745,4375 18641,4130C18554,3928 18501,3846 18435,3812C18423,3806 18376,3796 18330,3790C18283,3784 18219,3768 18188,3755C18156,3743 18130,3733 18130,3735C18130,3748 18207,3902 18231,3936C18248,3961 18271,4002 18282,4028C18319,4113 18475,4325 18529,4363C18571,4393 18579,4405 18585,4442C18589,4466 18607,4530 18625,4585C18668,4717 18687,4856 18670,4916C18650,4985 18641,4976 18625,4875C18616,4817 18584,4750 18547,4712C18509,4672 18403,4607 18340,4585C18244,4551 18148,4602 18100,4713C18032,4867 18091,5237 18208,5397C18233,5430 18251,5442 18297,5457L18355,5475L18360,5538C18368,5640 18414,5661 18536,5620ZM17240,4979C17277,4928 17310,4840 17310,4794C17310,4773 17280,4686 17234,4577C17120,4302 17106,4252 17107,4095C17107,3980 17110,3957 17133,3891C17166,3801 17204,3734 17231,3719C17260,3704 17262,3710 17246,3766C17226,3836 17218,3976 17230,4038C17252,4156 17321,4289 17408,4382C17462,4440 17496,4460 17543,4460C17585,4460 17607,4483 17612,4530L17615,4565L17644,4527C17685,4473 17701,4404 17707,4253C17711,4153 17708,4098 17695,4023C17661,3832 17551,3562 17434,3385C17360,3273 17161,3016 17154,3023C17152,3025 17159,3062 17171,3106C17200,3216 17209,3425 17187,3501C17155,3608 17075,3650 16968,3614C16899,3591 16858,3552 16798,3451C16736,3345 16696,3294 16671,3287C16656,3283 16596,3300 16501,3335C16490,3339 16499,3354 16531,3388C16586,3445 16646,3519 16687,3580C16735,3651 16857,3884 16896,3979C16953,4115 17049,4397 17071,4490C17082,4537 17100,4599 17111,4628C17162,4769 17202,4926 17197,4973C17195,4999 17197,5020 17201,5020C17206,5020 17223,5002 17240,4979ZM19299,4592L19300,4509L19253,4557L19205,4605L19242,4655C19263,4683 19280,4712 19281,4720C19284,4761 19298,4665 19299,4592Z" style="fill-rule:nonzero;"/>
        </g>
        <g transform="matrix(1,0,0,1,-57271.5,39947.4)">
            <path d="M3640,11770C3646,11759 3659,11746 3669,11740C3680,11735 3730,11680 3782,11619C3833,11558 3884,11503 3896,11497C3907,11490 3961,11436 4017,11375C4241,11130 4372,11007 4464,10953C4572,10889 4607,10881 4652,10907C4696,10933 4710,10963 4710,11037L4710,11100L4599,11155C4213,11349 3942,11523 3723,11717C3678,11757 3638,11790 3635,11790C3632,11790 3634,11781 3640,11770Z" style="fill-rule:nonzero;"/>
        </g>
        <g transform="matrix(1,0,0,1,-57271.5,39947.4)">
            <path d="M19890,11729C19690,11544 19390,11351 19001,11155L18890,11100L18890,11032C18890,10987 18895,10957 18906,10942C18925,10915 18971,10890 19002,10890C19031,10890 19165,10965 19228,11017C19276,11055 19518,11301 19625,11420C19658,11456 19696,11494 19712,11505C19727,11516 19782,11576 19835,11638C19887,11699 19934,11750 19938,11750C19942,11750 19951,11759 19958,11770C19979,11804 19957,11791 19890,11729Z" style="fill-rule:nonzero;"/>
        </g>
        <g transform="matrix(1,0,0,1,-57271.5,39947.4)">
            <path d="M9750,11024C9511,10990 9464,10975 9203,10854C9163,10836 9105,10810 9073,10796C8998,10765 8768,10651 8625,10576C8451,10484 8378,10439 8330,10395C8285,10355 8102,10239 8025,10204C8000,10192 7979,10173 7968,10152C7946,10107 7926,10086 7855,10032C7822,10006 7764,9958 7725,9923C7587,9800 7354,9620 7275,9575C7231,9550 7160,9515 7117,9498L7040,9466L7085,9420C7110,9395 7130,9369 7130,9362C7130,9345 7124,9347 7091,9371C7055,9397 7025,9390 7004,9348C6996,9332 6958,9288 6921,9252C6884,9215 6847,9169 6837,9149C6828,9129 6813,9107 6804,9099C6725,9034 6580,8723 6580,8619C6580,8538 6605,8561 6651,8687C6680,8766 6728,8836 6798,8902C6864,8966 6934,9004 7069,9050C7145,9076 7175,9081 7221,9078C7289,9073 7315,9055 7327,9002C7339,8950 7369,8952 7395,9005C7417,9051 7471,9123 7477,9116C7485,9108 7386,8822 7348,8745C7307,8664 7257,8600 7233,8600C7218,8600 7200,8640 7200,8673C7200,8750 7245,8817 7323,8857C7369,8880 7372,8884 7356,8895C7346,8902 7316,8911 7289,8915C7244,8921 7233,8918 7138,8870C6977,8788 6818,8679 6710,8575C6596,8467 6562,8452 6523,8494C6481,8539 6472,8531 6406,8384C6337,8231 6296,8109 6270,7974C6245,7845 6244,7803 6260,7651C6273,7523 6268,7454 6240,7395C6229,7373 6216,7335 6211,7310C6198,7251 6178,7205 6140,7150C6124,7125 6110,7096 6110,7085C6110,7046 6170,6819 6206,6723C6226,6670 6248,6605 6256,6579C6280,6498 6366,6313 6403,6263C6439,6213 6510,6150 6530,6150C6543,6150 6522,6192 6464,6280C6398,6382 6357,6512 6352,6642C6346,6808 6378,6940 6452,7048C6487,7099 6508,7119 6528,7120C6535,7120 6530,7105 6514,7081C6491,7046 6490,7038 6499,7003C6505,6982 6510,6940 6510,6910C6510,6880 6517,6810 6525,6755C6537,6674 6547,6644 6574,6600C6593,6570 6618,6539 6629,6531C6648,6519 6650,6519 6650,6541C6650,6554 6643,6586 6633,6612C6618,6655 6618,6661 6634,6703C6676,6815 6793,6926 6950,7005C6991,7026 7050,7059 7080,7078C7110,7098 7172,7134 7216,7159L7298,7205L7274,7235C7261,7252 7250,7273 7250,7283C7250,7299 7254,7298 7283,7276C7302,7261 7326,7250 7337,7250C7375,7250 7517,7417 7554,7504C7578,7562 7575,7574 7543,7550C7478,7503 7421,7520 7380,7599C7351,7658 7342,7910 7370,7910C7374,7910 7380,7874 7384,7829C7397,7675 7422,7610 7463,7626C7480,7632 7500,7680 7500,7714C7500,7759 7557,7836 7620,7876C7693,7923 7701,7944 7670,8010L7647,8059L7672,8172C7698,8285 7730,8365 7850,8615C7927,8777 7956,8858 7942,8872C7935,8879 7902,8887 7868,8891C7814,8897 7800,8895 7758,8874C7732,8861 7710,8854 7710,8860C7710,8883 7964,8977 8001,8967C8028,8960 8082,8979 8077,8994C8076,9000 8039,9022 7996,9044C7923,9080 7916,9087 7893,9136C7880,9165 7867,9212 7863,9242C7856,9306 7844,9323 7813,9315C7800,9312 7790,9313 7790,9318C7790,9322 7824,9386 7866,9460C8008,9710 8211,9949 8308,9980C8348,9993 8358,10002 8377,10039C8414,10113 8444,10150 8552,10261C8693,10406 9001,10632 9200,10738C9376,10831 9636,10902 9741,10886C9806,10876 9949,10814 9924,10807C9893,10797 9823,10791 9685,10785C9529,10778 9527,10777 9422,10728C9377,10707 9335,10690 9330,10690C9325,10690 9319,10686 9316,10681C9313,10676 9357,10673 9414,10674L9518,10675L9572,10624C9641,10558 9677,10540 9738,10540C9812,10540 9984,10450 10167,10316C10190,10299 10228,10272 10250,10255C10273,10239 10324,10188 10363,10143C10402,10097 10435,10062 10437,10064C10440,10066 10406,10137 10363,10221C10298,10349 10273,10387 10213,10450C10174,10492 10116,10544 10086,10565C10056,10587 10031,10607 10030,10610C10030,10613 10060,10621 10097,10627C10215,10648 10281,10711 10288,10810L10292,10870L10349,10870C10380,10870 10420,10866 10438,10861C10455,10856 10470,10853 10470,10855C10470,10857 10441,10874 10406,10893C10317,10943 10170,10996 10071,11014C9996,11028 9819,11034 9750,11024ZM7164,8321C7179,8304 7182,8290 7178,8238C7171,8146 7136,8063 7083,8013C7058,7989 7035,7970 7031,7970C7016,7970 6981,7901 6974,7856C6968,7814 6959,7799 6909,7749C6850,7690 6833,7660 6868,7676C6900,7690 6982,7692 7006,7680C7019,7673 7036,7652 7045,7634C7075,7570 7041,7490 6963,7440C6924,7415 6906,7410 6853,7410C6805,7410 6788,7406 6783,7394C6776,7376 6821,7326 6863,7303C6902,7283 6891,7276 6843,7289C6705,7326 6634,7458 6660,7627C6690,7817 6745,7957 6852,8115C6919,8215 6961,8242 7038,8238C7069,8237 7101,8239 7108,8243C7124,8254 7123,8299 7105,8330C7097,8344 7091,8358 7090,8363C7090,8375 7143,8345 7164,8321Z" style="fill-rule:nonzero;"/>
        </g>
        <g transform="matrix(1,0,0,1,-57271.5,39947.4)">
            <path d="M11243,10546C11138,10489 11093,10458 10945,10339C10879,10286 10806,10231 10783,10217C10750,10196 10738,10181 10730,10149C10718,10106 10702,10088 10553,9960L10470,9889L10470,9825C10470,9763 10468,9757 10414,9678C10265,9459 10190,9380 10015,9258C9960,9219 9872,9167 9820,9142C9642,9057 9435,8882 9411,8795C9396,8739 9412,8728 9452,8767C9587,8892 9768,8951 10023,8949C10096,8949 10178,8945 10205,8940C10233,8936 10257,8934 10259,8935C10260,8937 10255,8949 10246,8962C10225,8992 10225,9076 10248,9120C10259,9143 10282,9164 10315,9182C10378,9217 10402,9218 10366,9185C10335,9156 10333,9130 10360,9105C10385,9083 10387,9022 10364,8978C10350,8950 10350,8946 10364,8931C10379,8916 10383,8916 10411,8933C10481,8973 10558,8943 10600,8859C10652,8758 10587,8642 10463,8615C10409,8604 10393,8559 10437,8543C10493,8524 10550,8456 10550,8410C10550,8360 10462,8320 10405,8344C10308,8385 10271,8534 10329,8655C10360,8722 10383,8742 10455,8763C10482,8770 10505,8781 10507,8787C10514,8806 10428,8832 10360,8832C10280,8832 10160,8795 10088,8749C10059,8730 9981,8668 9915,8610C9849,8552 9761,8478 9720,8446C9617,8365 9555,8304 9518,8246C9482,8191 9488,8165 9536,8165L9565,8165L9565,8090C9564,8049 9560,7967 9556,7907C9548,7811 9544,7797 9521,7774C9501,7754 9496,7739 9497,7707C9500,7649 9472,7500 9453,7470C9444,7456 9426,7433 9412,7418C9389,7393 9388,7389 9401,7358C9411,7335 9414,7289 9412,7200C9409,7088 9411,7067 9434,7001C9468,6904 9500,6850 9552,6806C9617,6750 9640,6760 9599,6827C9570,6874 9540,6976 9540,7031C9540,7097 9584,7178 9636,7207C9691,7239 9708,7235 9670,7200C9634,7166 9635,7144 9673,7148C9755,7158 9855,7078 9885,6977C9917,6870 9901,6739 9841,6622L9820,6580L9847,6591C9862,6596 9879,6605 9885,6609C9899,6620 10114,6703 10354,6790C10490,6839 10575,6877 10625,6908C10665,6934 10721,6967 10749,6983C10808,7014 10876,7100 10940,7221C10976,7291 11009,7402 11024,7505L11029,7545L11001,7500C10955,7427 10893,7410 10847,7458C10818,7488 10781,7565 10780,7594C10780,7612 10781,7612 10799,7596C10828,7570 10871,7579 10889,7615C10897,7632 10909,7656 10916,7670C10923,7683 10961,7717 11001,7745C11041,7772 11075,7800 11077,7805C11082,7824 11063,7842 11029,7849C10981,7859 10970,7887 10970,8000C10970,8141 11012,8284 11075,8357C11094,8380 11110,8404 11110,8412C11110,8437 11072,8450 11017,8444C10975,8439 10962,8441 10951,8454C10932,8477 10942,8565 10978,8682C10994,8733 11015,8802 11025,8835C11034,8868 11059,8922 11080,8955C11140,9052 11177,9131 11189,9192C11207,9276 11192,9320 11120,9394C11088,9428 11058,9452 11055,9448C11051,9444 11055,9417 11064,9387C11073,9357 11080,9319 11080,9304C11080,9266 11036,9205 10993,9185C10949,9164 10871,9169 10813,9196C10775,9215 10674,9307 10683,9316C10685,9319 10714,9305 10746,9285C10833,9233 10877,9242 10864,9309C10858,9336 10863,9346 10900,9386C10926,9414 10939,9437 10936,9446C10933,9455 10930,9463 10930,9466C10930,9468 10912,9479 10889,9490C10806,9533 10740,9686 10760,9792C10779,9891 10853,10039 10948,10167C11029,10275 11193,10450 11276,10516C11386,10604 11373,10616 11243,10546ZM10075,8167C10076,8082 10130,8045 10187,8090C10207,8106 10228,8110 10282,8110C10408,8110 10507,8041 10530,7938C10544,7870 10543,7849 10525,7856C10517,7859 10508,7870 10505,7879C10502,7888 10478,7919 10452,7948C10418,7985 10396,8000 10378,8000C10344,8000 10337,7979 10356,7928C10374,7879 10369,7816 10344,7769C10335,7751 10299,7700 10264,7653C10178,7541 10150,7483 10150,7421C10150,7394 10155,7368 10160,7365C10166,7362 10170,7368 10170,7380C10170,7438 10240,7510 10296,7510C10322,7510 10341,7500 10375,7469C10472,7379 10474,7251 10381,7132C10350,7093 10255,7027 10237,7033C10230,7035 10239,7044 10255,7053C10343,7099 10409,7224 10365,7260C10352,7271 10342,7268 10304,7242C10197,7166 10089,7233 9990,7437C9959,7500 9956,7513 9956,7605C9955,7748 9975,7810 10046,7875C10109,7933 10114,7959 10070,7991C10039,8015 10020,8056 10020,8102C10020,8132 10055,8210 10068,8210C10072,8210 10075,8190 10075,8167Z" style="fill-rule:nonzero;"/>
        </g>
        <g transform="matrix(1,0,0,1,-57271.5,39947.4)">
            <path d="M12250,10581C12250,10576 12280,10549 12318,10521C12397,10459 12570,10277 12652,10167C12746,10039 12821,9891 12840,9792C12850,9740 12837,9668 12814,9649C12802,9640 12800,9646 12800,9686C12800,9716 12789,9758 12774,9795C12760,9828 12737,9883 12724,9918C12711,9953 12694,9993 12686,10008C12669,10040 12612,10100 12598,10100C12592,10100 12590,10087 12594,10068C12598,10050 12603,10011 12607,9983C12612,9935 12611,9930 12593,9930C12568,9930 12507,9971 12431,10038C12363,10098 12308,10116 12226,10106C12164,10098 12106,10069 12056,10022L12021,9989L12027,9887C12031,9815 12028,9772 12019,9740L12005,9695L12002,9758C11999,9820 11998,9822 11963,9837C11943,9845 11910,9863 11891,9876C11847,9906 11804,9908 11795,9880C11792,9869 11792,9840 11795,9816C11801,9775 11799,9768 11771,9738C11754,9720 11740,9702 11740,9698C11740,9693 11736,9690 11731,9690C11726,9690 11719,9706 11716,9725C11707,9773 11671,9811 11600,9849C11545,9879 11540,9883 11546,9908C11556,9949 11578,9987 11614,10028C11631,10048 11660,10085 11677,10108L11708,10152L11724,10126C11777,10039 11773,10044 11781,10065C11785,10076 11789,10110 11789,10141C11790,10188 11785,10204 11760,10238C11743,10261 11728,10280 11726,10280C11724,10280 11706,10273 11686,10265C11612,10234 11503,10160 11420,10084C11388,10055 11330,10033 11330,10050C11330,10080 11471,10223 11541,10263C11562,10275 11580,10288 11580,10292C11580,10297 11525,10299 11458,10297C11357,10295 11326,10290 11287,10272C11225,10244 11143,10184 11128,10157C11119,10138 11119,10137 11131,10146C11139,10153 11179,10169 11220,10183C11378,10235 11407,10228 11281,10167C11062,10061 10913,9837 10975,9707C10999,9656 11103,9600 11171,9600C11206,9600 11214,9588 11195,9564C11172,9534 11177,9502 11211,9473C11252,9436 11266,9408 11294,9300C11317,9215 11341,8980 11327,8980C11323,8980 11309,9003 11295,9030C11266,9088 11243,9095 11236,9048C11233,9030 11229,8894 11226,8745L11220,8475L11244,8536C11277,8621 11296,8655 11325,8685C11354,8713 11370,8717 11370,8695C11370,8687 11352,8632 11329,8573C11274,8430 11212,8179 11200,8055C11170,7743 11147,7555 11130,7480C11119,7433 11104,7361 11095,7320C11087,7279 11073,7214 11064,7175C11055,7133 11050,7074 11052,7028C11054,6985 11053,6950 11050,6950C11047,6951 11030,6964 11011,6980C10972,7013 10964,7012 10955,6970C10947,6933 10876,6838 10817,6783C10739,6711 10599,6640 10464,6605C10431,6597 10331,6583 10241,6575C10059,6558 10021,6551 9903,6513C9814,6484 9793,6467 9863,6481C9927,6494 10140,6477 10140,6459C10140,6454 10133,6450 10124,6450C10114,6450 10023,6428 9921,6400C9526,6294 9301,6250 9154,6250C9105,6250 9089,6246 9074,6229C9043,6194 8985,6171 8872,6145C8724,6112 8510,6026 8510,6000C8510,5984 8575,5989 8652,6010C8731,6032 8880,6037 8924,6020C8951,6010 8979,5965 8967,5953C8963,5950 8951,5955 8941,5964C8930,5974 8904,5984 8882,5987C8845,5992 8841,5990 8805,5946C8783,5919 8739,5884 8701,5862C8665,5842 8619,5812 8600,5795C8581,5778 8507,5731 8435,5690C8273,5599 8214,5556 8125,5466C8087,5427 8017,5363 7971,5325C7738,5131 7666,5056 7554,4888C7464,4754 7337,4483 7296,4339C7267,4237 7256,3991 7280,3967C7289,3957 7294,3976 7316,4115C7341,4277 7346,4291 7432,4450C7569,4703 7708,4850 8056,5111C8187,5209 8288,5277 8363,5315C8425,5347 8484,5381 8495,5391C8533,5424 8865,5562 9059,5624C9141,5651 9201,5663 9269,5668L9364,5675L9375,5717C9393,5790 9408,5801 9625,5893C9756,5949 9801,5964 10010,6021C10119,6051 10133,6052 10265,6049C10342,6047 10563,6045 10755,6045C11032,6046 11129,6050 11221,6063C11392,6088 11590,6156 11590,6189C11590,6194 11612,6212 11640,6230C11699,6268 11814,6388 11862,6462C11942,6585 11989,6741 11974,6836C11968,6875 11955,6899 11945,6889C11943,6887 11934,6849 11925,6805C11913,6744 11896,6704 11855,6635C11740,6441 11597,6360 11447,6404C11384,6422 11367,6441 11344,6517C11325,6577 11315,6756 11327,6789C11336,6811 11338,6806 11349,6750C11364,6673 11396,6586 11414,6571C11438,6551 11460,6571 11476,6629C11499,6706 11515,6727 11577,6762C11636,6796 11660,6823 11660,6858C11660,6872 11678,6902 11703,6930C11760,6994 11790,7072 11790,7159C11790,7200 11785,7233 11776,7245C11763,7263 11762,7263 11755,7239C11741,7192 11677,7099 11654,7090C11598,7068 11577,7106 11559,7258C11549,7348 11549,7401 11558,7513C11564,7591 11574,7734 11580,7830C11595,8085 11610,8239 11626,8285C11654,8366 11645,8381 11559,8404L11505,8418L11535,8430C11587,8452 11685,8454 11735,8435C11779,8419 11795,8400 11765,8400C11689,8400 11627,8143 11664,7986C11696,7852 11786,7724 11882,7676C11933,7651 11990,7641 11990,7658C11990,7663 11962,7688 11927,7713C11875,7751 11861,7768 11846,7810C11823,7875 11828,7958 11859,8023C11905,8118 12024,8220 12136,8260C12163,8270 12164,8269 12145,8255C12031,8166 12008,8146 11998,8124C11989,8104 11989,8096 12003,8083C12018,8068 12025,8069 12092,8096C12224,8149 12376,8132 12455,8056L12497,8015L12504,7887C12515,7706 12503,7678 12363,7547C12281,7470 12244,7404 12234,7320C12228,7264 12242,7204 12259,7214C12264,7218 12271,7238 12275,7260C12290,7346 12365,7410 12454,7410C12536,7410 12566,7384 12614,7268C12635,7215 12667,7216 12711,7271C12750,7320 12758,7311 12731,7249C12702,7182 12655,7123 12613,7101C12592,7091 12557,7073 12535,7061C12464,7023 12334,7039 12197,7103C12014,7188 11860,7434 11900,7576C11916,7634 11905,7643 11870,7603C11788,7512 11797,7321 11888,7194C11962,7090 12240,6661 12252,6630C12286,6551 12469,6394 12580,6350C12631,6330 12680,6324 12680,6338C12679,6345 12668,6353 12572,6420C12524,6455 12470,6533 12470,6571C12470,6619 12502,6635 12599,6634C12785,6633 12999,6552 13134,6431C13177,6392 13219,6360 13226,6360C13233,6360 13246,6368 13256,6377C13269,6391 13271,6406 13267,6457C13263,6512 13264,6519 13277,6508C13318,6474 13352,6361 13329,6333C13306,6306 13218,6270 13173,6270C13126,6270 13032,6303 12980,6337C12938,6365 12932,6355 12959,6302C12986,6249 13069,6177 13138,6145C13169,6131 13227,6103 13265,6084C13326,6054 13344,6050 13405,6051C13473,6053 13556,6034 13775,5969C13843,5949 14068,5857 14140,5820C14188,5795 14213,5765 14225,5716L14235,5675L14331,5668C14399,5663 14459,5651 14541,5624C14735,5562 15067,5424 15105,5391C15116,5381 15175,5347 15235,5316C15309,5278 15410,5211 15541,5112C15770,4940 15863,4858 15973,4735C16065,4631 16092,4591 16185,4420C16252,4296 16252,4294 16281,4130C16296,4039 16309,3963 16310,3961C16310,3958 16315,3961 16321,3967C16337,3983 16333,4195 16315,4285C16284,4433 16156,4721 16046,4887C15935,5054 15865,5128 15629,5325C15583,5364 15509,5431 15465,5475C15377,5563 15334,5594 15155,5696C15089,5733 15019,5778 15000,5795C14981,5812 14935,5842 14899,5862C14861,5884 14817,5919 14795,5946C14759,5990 14755,5992 14718,5987C14696,5984 14670,5974 14659,5964C14649,5955 14637,5950 14633,5953C14621,5965 14649,6010 14676,6020C14719,6037 14861,6032 14945,6010C15030,5988 15090,5984 15090,6000C15090,6026 14876,6112 14730,6145C14597,6175 14584,6180 14531,6224C14494,6255 14481,6260 14438,6260C14380,6260 14131,6318 14035,6355C13948,6387 13897,6424 13814,6513C13734,6600 13684,6679 13654,6766L13633,6829L13591,6803C13563,6786 13539,6779 13519,6782C13496,6786 13490,6783 13490,6768C13490,6758 13484,6750 13476,6750C13458,6750 13344,6872 13298,6941C13249,7015 13160,7197 13160,7224C13160,7236 13153,7269 13146,7298C13134,7343 13134,7360 13146,7418C13154,7455 13169,7509 13181,7538C13211,7611 13199,7623 13108,7618C13033,7614 13030,7617 13054,7675C13062,7694 13087,7722 13109,7737C13160,7773 13166,7788 13140,7820C13098,7873 13090,7887 13075,7948C13055,8026 13059,8186 13084,8279C13125,8431 13050,8674 12952,8711C12920,8723 12914,8716 12930,8685C12947,8653 12937,8564 12912,8530C12901,8516 12866,8489 12834,8470C12776,8436 12772,8435 12670,8435C12577,8436 12559,8439 12509,8463C12455,8489 12355,8569 12395,8554C12406,8550 12434,8545 12457,8542C12509,8537 12536,8562 12563,8639C12582,8694 12681,8867 12770,9000C12801,9047 12891,9189 12969,9315C13048,9442 13119,9555 13127,9568C13134,9580 13143,9622 13145,9661C13147,9699 13152,9750 13155,9774C13161,9815 13159,9820 13109,9880C13055,9945 13007,9994 12927,10066C12896,10095 12878,10121 12870,10149C12862,10181 12850,10196 12817,10217C12794,10231 12719,10288 12650,10343C12513,10453 12428,10511 12333,10559C12268,10591 12250,10596 12250,10581ZM12505,9448C12511,9443 12504,9431 12485,9416L12455,9392L12478,9347C12526,9251 12508,9215 12291,8973C12119,8780 11997,8664 11928,8629C11877,8603 11806,8604 11779,8631C11724,8686 11705,8800 11731,8920C11742,8972 11760,8979 11760,8931C11760,8889 11781,8869 11831,8863C11872,8858 11877,8860 11888,8885C11895,8900 11904,8951 11910,8998C11924,9134 11949,9189 12039,9283C12090,9336 12150,9360 12232,9360C12299,9360 12343,9339 12379,9290C12423,9229 12427,9260 12386,9344C12346,9424 12347,9447 12389,9456C12403,9459 12420,9463 12425,9465C12441,9469 12494,9458 12505,9448Z" style="fill-rule:nonzero;"/>
        </g>
        <g transform="matrix(1,0,0,1,-57271.5,39947.4)">
            <path d="M14370,10435C14362,10433 14321,10426 14280,10420C14190,10405 14112,10381 14004,10335C13949,10311 13907,10300 13874,10300C13829,10300 13823,10297 13775,10247C13748,10218 13693,10175 13655,10153C13558,10096 13450,9980 13494,9980C13502,9980 13532,9991 13561,10004C13609,10026 13649,10034 13688,10031C13707,10029 13702,9989 13679,9951C13649,9902 13505,9762 13440,9719C13410,9699 13353,9671 13315,9658C13238,9632 13218,9604 13262,9585C13297,9570 13294,9484 13256,9405C13218,9329 13127,9236 13076,9221C13037,9211 13000,9184 13000,9167C13000,9162 12978,9128 12952,9091C12834,8930 12761,8766 12753,8645C12748,8565 12759,8570 12786,8660C12827,8801 12989,8953 13101,8954C13166,8955 13197,8930 13243,8836C13284,8752 13289,8712 13250,8776C13236,8797 13210,8832 13192,8853C13151,8898 13106,8903 13066,8868L13041,8845L13110,8742C13148,8685 13188,8611 13200,8576C13222,8509 13239,8359 13240,8220C13241,8136 13253,8053 13285,7915C13294,7877 13304,7825 13307,7800C13310,7775 13323,7717 13336,7671C13350,7623 13360,7561 13360,7524C13360,7462 13359,7459 13315,7415C13269,7367 13250,7317 13268,7284C13273,7273 13290,7218 13305,7160C13351,6980 13423,6880 13507,6880C13549,6880 13549,6895 13506,6935C13471,6967 13432,7064 13443,7093C13460,7137 13512,7148 13645,7135C13712,7128 13741,7119 13820,7080C13969,7005 14055,6918 14052,6842C14050,6804 14079,6770 14113,6770C14133,6771 14170,6783 14223,6805C14253,6818 14242,6794 14192,6741L14144,6690L14073,6690C14033,6690 13990,6694 13977,6699C13939,6714 13902,6759 13880,6817C13864,6860 13862,6878 13870,6926C13882,6997 13869,7018 13840,6980C13807,6938 13797,6892 13804,6821C13813,6738 13843,6672 13907,6594C13953,6540 13965,6531 14026,6512C14106,6487 14233,6466 14261,6473C14271,6476 14299,6474 14322,6468C14345,6463 14374,6461 14386,6464C14423,6474 14795,6928 14860,7043L14892,7100L14842,7100C14782,7100 14740,7128 14740,7168L14740,7194L14768,7167C14789,7147 14806,7140 14836,7140C14884,7140 14902,7157 14918,7215C14924,7237 14942,7291 14959,7335C14994,7425 14995,7433 14977,7448C14968,7456 14955,7454 14932,7443C14901,7428 14898,7428 14874,7451C14835,7487 14793,7559 14767,7635C14742,7707 14732,7763 14705,7980C14677,8199 14670,8273 14670,8343C14670,8409 14669,8410 14649,8399C14636,8392 14624,8392 14619,8397C14613,8403 14606,8461 14603,8528C14596,8663 14595,8659 14675,8755C14698,8783 14722,8813 14727,8824C14739,8846 14728,8906 14703,8954C14694,8971 14683,9025 14679,9073C14665,9223 14577,9455 14490,9570C14467,9600 14446,9627 14443,9630C14441,9633 14447,9613 14458,9585C14514,9444 14524,9285 14482,9204C14454,9149 14390,9094 14340,9080C14276,9063 14257,9072 14305,9097C14402,9148 14453,9258 14398,9294C14380,9306 14366,9307 14331,9299C14291,9290 14280,9292 14226,9319C14097,9383 14026,9476 14013,9597C14006,9661 14013,9690 14046,9729C14071,9759 14072,9760 14100,9744C14115,9734 14135,9730 14144,9733C14159,9739 14160,9749 14153,9802C14123,10037 14204,10175 14428,10272C14502,10304 14511,10305 14631,10305L14757,10305L14836,10246C14879,10213 14921,10182 14928,10177C14948,10162 14954,10177 14940,10209C14923,10250 14834,10333 14774,10363C14677,10412 14601,10431 14490,10435C14432,10437 14378,10437 14370,10435ZM13635,9343C13602,9263 13582,9098 13598,9030C13604,9002 13611,8995 13630,8995C13650,8995 13659,9005 13677,9043C13695,9080 13705,9090 13724,9090C13803,9090 14120,8788 14120,8713C14120,8697 14103,8669 14075,8638C13976,8528 13924,8359 13948,8225L13955,8185L13979,8242C14005,8305 14059,8375 14090,8383C14160,8401 14219,8248 14239,7991C14251,7847 14248,7810 14218,7709C14204,7659 14202,7637 14209,7617C14227,7569 14299,7559 14342,7597C14357,7610 14360,7609 14373,7588C14381,7576 14398,7529 14410,7485C14421,7441 14440,7390 14451,7372C14462,7353 14467,7333 14463,7326C14454,7311 14359,7234 14316,7206C14287,7187 14286,7188 14270,7208C14260,7220 14251,7255 14247,7292C14239,7382 14234,7393 14207,7376C14195,7368 14175,7359 14162,7355L14139,7348L14164,7387C14200,7441 14211,7484 14199,7520C14186,7555 14164,7564 14102,7555C14041,7547 14011,7559 13949,7617C13875,7686 13860,7721 13874,7790C13889,7861 13906,7892 13970,7964C13998,7996 14028,8033 14036,8046C14051,8068 14080,8162 14080,8188C14080,8196 14052,8178 14018,8149C13949,8092 13894,8063 13840,8058C13808,8055 13804,8058 13778,8105C13738,8178 13698,8313 13630,8599C13550,8933 13537,9020 13543,9145C13549,9257 13559,9293 13598,9333C13627,9364 13646,9369 13635,9343ZM14550,7166C14550,7164 14553,7155 14556,7147C14564,7124 14493,7050 14464,7050C14421,7050 14424,7078 14471,7126C14495,7150 14522,7170 14532,7170C14542,7170 14550,7168 14550,7166Z" style="fill-rule:nonzero;"/>
        </g>
    </g>
</svg>
